<svg width="243" height="59" viewBox="0 0 243 59" fill="none" xmlns="http://www.w3.org/2000/svg">
<path fill-rule="evenodd" clip-rule="evenodd" d="M101 49H102V27H101V49Z" fill="#9D9D9D" fill-opacity="0.270588"/>
<path d="M13.6106 5H14.7585C15.0045 5 15.1956 5.11119 15.3325 5.33336C16.3163 7.51392 17.3958 10.1457 18.5711 13.25L21.2767 20.7431L23.1625 25.7222C23.8185 27.3957 24.5292 29.0556 25.2943 30.7083C25.5129 31.125 25.9776 31.3333 26.6882 31.3333C27.1801 31.3333 27.5217 31.486 27.7131 31.7848C27.9044 32.0902 28 32.5832 28 33.2778C28 35.0346 27.8293 36.7429 27.4877 38.3959C27.1461 40.0486 26.7566 40.9167 26.3192 41C25.882 41 25.3627 40.2221 24.7614 38.6667C24.4334 37.6943 23.9824 36.889 23.4086 36.2499C23.1625 35.9999 22.8756 35.7708 22.5476 35.5625C22.2196 35.3541 21.9053 35.2083 21.6047 35.125C20.9762 34.9583 20.0606 34.875 18.858 34.875H6.51829C5.86231 34.875 5.09714 35.4513 4.22257 36.6041C3.348 37.7569 2.61008 39.0278 2.0088 40.4166C1.9541 40.6111 1.68081 40.7084 1.18893 40.7084C0.778996 40.7084 0.478258 40.1111 0.286915 38.9166L0.0819462 36.8334L0 34.0832L0.0410734 31.9167C0.0410734 31.6111 0.123021 31.4166 0.286915 31.3333C0.560205 31.3333 0.847319 31.2221 1.14786 30.9999L1.92685 30.375C2.09075 30.2084 2.82867 28.3958 4.14062 24.9443L6.10835 19.8125C6.49104 18.7847 6.88735 17.7569 7.29728 16.7292C7.62527 15.9236 7.95326 15.139 8.28105 14.389C9.97569 10.2431 11.3694 7.24308 12.4627 5.3749C12.5994 5.12503 12.7769 5 12.9957 5H13.6106ZM8.03521 31.3333H17.8332C18.2704 31.3333 18.4891 31.0694 18.4891 30.5415C18.4891 30.3473 18.0654 28.9721 17.2183 26.4166L14.1436 17.2083C13.5695 15.375 13.1596 14.4584 12.9136 14.4584L12.6677 14.8333L11.9707 15.9584C11.6429 16.6805 11.2191 17.7362 10.6998 19.125C10.1807 20.5138 9.593 22.1111 8.93702 23.9166C7.62527 27.5556 6.94184 29.6388 6.88735 30.1666C6.88735 30.5 7.01017 30.7916 7.25621 31.0417L8.03521 31.3333Z" fill="#394551"/>
<path d="M54.2993 13C54.4955 13.1544 54.6218 13.3226 54.6779 13.5049L58.1073 22.2052L59.2083 24.9605L59.7973 26.2785L60.0498 26.615L60.1479 26.629L60.4426 26.2084L65.8846 13.7853L66.1581 13.2734L66.3333 13H68.339L68.5566 13.2175L68.8159 14.0937L71.7404 24.2664C73.2552 29.6227 74.1948 32.5392 74.5596 33.0159C74.8401 33.2963 75.345 33.6189 76.0744 33.9904C76.6634 34.1587 76.972 34.3409 77 34.5372C77 34.8458 76.7335 35 76.2007 35H70.3798C69.9591 35 69.5875 34.7897 69.2788 34.3691L68.2759 30.8776L66.123 22.8853L65.9547 22.5909C65.7583 22.6189 65.6181 22.7172 65.534 22.8853L62.35 30.3799L60.4566 34.6635C60.4566 34.8037 60.3865 34.9159 60.2462 35H60.1199H58.6473L58.4789 34.8738L58.1422 34.4531L55.9614 29.4825L53.1701 22.7942L52.8756 22.2893L52.7915 22.2052L52.6231 22.4156L52.4127 22.7942C51.8517 24.1192 51.2907 25.6967 50.7227 27.5264C50.2738 29.2722 50.0494 30.4148 50.0494 30.9477C50.0494 31.8171 50.2177 32.4271 50.5543 32.7636L52.1532 33.4787C53.0508 33.8222 53.5419 34.1727 53.626 34.5372C53.626 34.8458 53.4015 35 52.9528 35H46.8514C45.6171 35 45 34.5794 45 33.7381C45 33.2823 45.4769 31.6699 46.4307 28.8865L49.4183 20.5016L51.7325 14.2199C52.0411 13.4909 52.2934 13.0843 52.4898 13H54.2993Z" fill="#394551"/>
<path d="M26 24.0207C26 21.1313 26.7802 18.6272 28.3409 16.5085C30.1752 14.1694 32.7351 13 36.0206 13C38.9775 13 41.4141 14.1694 43.3307 16.5085C45.1102 18.6823 46 21.1864 46 24.0207C46 26.91 45.3292 29.3316 43.9877 31.2852C42.2629 33.7618 39.6071 35 36.0206 35C32.8447 35 30.2848 33.7618 28.3409 31.2852C26.7802 29.2215 26 26.7999 26 24.0207ZM40.8254 26.8273C40.8254 23.828 40.2574 21.2277 39.1212 19.0263C37.9849 16.8248 36.6093 15.7242 34.9939 15.7242C33.9261 15.7242 33.0432 16.1714 32.3449 17.0657C31.6468 17.9599 31.2978 19.3702 31.2978 21.2965C31.2978 24.3783 31.8658 26.9994 33.0021 29.1595C34.1383 31.3196 35.514 32.3997 37.1293 32.3997C38.1971 32.3997 39.0871 31.9593 39.7988 31.0788C40.4832 30.1434 40.8254 28.7262 40.8254 26.8273Z" fill="#FEDB09"/>
<path d="M9.25231 39C9.57241 39 9.89272 39.3478 10.2128 40.043L15.4632 52.9878C15.5274 53.1515 15.666 53.2639 15.8794 53.3252C16.221 53.3252 16.493 53.407 16.6958 53.5706C16.8985 53.7343 17 53.9898 17 54.3374C17 54.6852 16.9627 55.0532 16.888 55.4417C16.8131 55.8304 16.6692 56.2393 16.4557 56.6687C16.2849 57.1187 16.1356 57.4459 16.0075 57.6503L15.5274 58.4479L15.2392 58.7854C15.1751 58.9081 15.0684 58.9796 14.9189 59H13.5743L13.4463 58.9081L13.3823 58.7854L13.5424 58.2024C13.6705 57.6708 13.7344 57.2311 13.7344 56.8835C13.7344 56.0656 13.2115 55.6565 12.1656 55.6565H4.45012C4.00193 55.6565 3.60695 55.8304 3.2656 56.178C2.62519 56.8323 2.30508 57.5787 2.30508 58.4172C2.30508 58.7854 2.23042 58.9796 2.08089 59H0.768293C0.725598 58.9387 0.693629 58.8876 0.672385 58.8466C0.565545 58.6627 0.480157 58.499 0.416219 58.356L0.0961134 55.8405L0 54.5216C0 54.0716 0.0587817 53.7597 0.17614 53.586C0.293498 53.4121 0.437463 53.3252 0.60824 53.3252C0.949795 53.3252 1.2699 53.1821 1.56876 52.8958L1.82493 52.5276L2.01695 52.1903C3.27612 49.0307 4.40742 46.3569 5.41064 44.1739L6.49904 41.7558L7.68355 39.3988C7.81163 39.1536 8.01438 39.0206 8.29179 39H9.25231ZM8.0678 45.2578C8.0678 45.1351 7.99313 45.0635 7.83844 45.043L7.60888 45.1963L7.44883 45.4111L6.26968 48.1412L5.09033 51.3006L4.96224 52.0063V52.497C4.96224 53.0491 5.16499 53.3252 5.57069 53.3252H10.4368C10.5649 53.2639 10.6396 53.1515 10.661 52.9878C10.661 52.8037 10.6076 52.6197 10.501 52.4357L8.0678 45.2578Z" fill="#394551"/>
<path d="M23.0307 40L23.2758 40.2248L23.5824 40.7391C24.2363 42.2815 25.0435 44.4668 26.0038 47.2949L27.6284 52.4365C28.1189 53.8721 28.5684 54.7827 28.9771 55.1682C29.1815 55.3824 29.3857 55.5431 29.5901 55.6503L30.4483 56.0681C30.8162 56.1965 31 56.3679 31 56.5822C31 56.8607 30.7447 57 30.2338 57H26.1879H25.82H25.3295C25.2068 56.9787 25.0639 56.8178 24.9004 56.518L22.9642 50.23C22.5147 48.6607 22.1162 47.4555 21.7689 46.6199L21.6156 46.3307L21.5236 46.2665L21.3398 46.4272L21.1557 46.6199L19.9962 49.8335C19.3627 51.7403 18.9948 52.9508 18.8927 53.4651L18.8313 54.2363C18.8313 54.5148 18.8773 54.7452 18.9693 54.9272C19.0612 55.1094 19.1992 55.286 19.383 55.4574L20.4559 56.0358C20.742 56.1644 20.9156 56.3251 20.977 56.518C20.977 56.8393 20.8339 57 20.5479 57H15.3983C15.1327 57 15 56.8178 15 56.4536L15.1838 55.7145L19.6897 43.8883C20.4253 41.9389 20.9565 40.7068 21.2835 40.1928C21.3244 40.0642 21.4265 40 21.59 40H23.0307Z" fill="#394551"/>
<path d="M37.2348 40H40.4599H42.8396C43.2154 40 43.4032 40.1529 43.4032 40.4588C43.4032 40.5812 43.3197 40.6833 43.1526 40.7647L42.8396 40.8871C42.1717 41.1116 41.8376 41.4124 41.8376 41.7795V52.9662C41.8376 53.5374 42.1402 53.9962 42.7456 54.3429L43.4659 54.6844L44.4364 54.9598L44.8435 55.174C44.927 55.2964 44.9792 55.3882 45 55.4493C45 55.8165 44.8122 56 44.4364 56H41.0235H38.55C38.4038 56 38.263 55.9438 38.1272 55.8317C37.9917 55.7195 37.9029 55.5615 37.8611 55.3575V53.2161L37.9549 48.6578C37.9549 48.3519 37.8611 48.1988 37.6731 48.1988C37.4853 48.1988 37.3288 48.3212 37.2035 48.5659C37.0157 49.1166 36.7547 49.4022 36.4209 49.4225C35.732 49.4225 35.1371 49.8508 34.636 50.7075C33.9682 51.8292 33.6341 52.8489 33.6341 53.7668C33.6341 54.2969 33.9472 54.7152 34.5735 55.021C35.1997 55.2658 35.544 55.4799 35.6067 55.6636C35.6067 55.8266 35.4605 55.9389 35.1684 56H29.3758C29.1253 56 29 55.8063 29 55.4188C29 55.0721 29.3443 53.9962 30.0332 52.1912C30.7221 50.3863 31.2597 49.3358 31.6458 49.0401C32.0321 48.7445 32.7157 48.4333 33.6966 48.1071C32.82 47.7604 32.0788 47.3371 31.4737 46.8477C30.4715 45.986 29.9707 44.9663 29.9707 43.7782C29.9707 42.6921 30.3515 41.7896 31.1134 41.0759C31.8755 40.3569 32.6217 40 33.3523 40H37.2348ZM36.5459 47.2506C37.047 47.2506 37.4071 47.1841 37.6263 47.0517C37.8454 46.9191 37.9549 46.6335 37.9549 46.2052C37.9549 44.0076 37.8924 42.7023 37.7671 42.2843C37.6419 41.8611 37.193 41.652 36.4209 41.652C35.6067 41.652 34.9856 41.8763 34.5578 42.3302C34.1299 42.7788 33.9159 43.4875 33.9159 44.4513C33.9159 45.313 34.1455 46.0115 34.6048 46.5418C35.0849 47.0158 35.732 47.2506 36.5459 47.2506Z" fill="#394551"/>
<path d="M51.5737 40H61.9641C63.1115 40 64.0943 40.3264 64.9123 40.9841C65.7304 41.6366 66.1394 42.5391 66.1394 43.6864C66.1394 44.5481 65.8421 45.3638 65.247 46.1441C64.7372 46.7559 64.174 47.169 63.5577 47.3728C64.344 47.3728 65.077 47.6686 65.7571 48.2601C66.5858 48.9739 67 49.8407 67 50.8605C67 52.2269 66.4688 53.425 65.4117 54.455C64.3547 55.485 63.2444 56 62.0863 56H56.7849H55.4568C54.8195 56 54.4104 55.893 54.2191 55.6787C54.0279 55.4647 53.9322 55.0313 53.9322 54.3785V50.8197V46.042C53.9322 44.0179 53.7996 42.738 53.5339 42.2078C53.2684 41.6774 52.615 41.29 51.5737 41.04C51.1912 40.9789 51 40.8158 51 40.5507C51 40.1835 51.1912 40 51.5737 40ZM62.5699 44.2065C62.5699 43.5283 62.368 43.0033 61.9588 42.6361C61.4596 42.2027 60.6416 41.9884 59.4995 41.9884C58.6601 41.9884 58.1449 42.2027 57.9482 42.6361C57.9057 42.7585 57.8685 42.9471 57.8367 43.2019C57.8048 43.4621 57.7888 43.7526 57.7888 44.079V47.0974V48.0153V48.1377L57.8845 48.1988C58.0174 48.1988 58.1449 48.0458 58.2722 47.7399L58.6282 47.0363C58.6919 46.8936 58.8141 46.7813 58.9841 46.6999L59.696 46.608C60.5777 46.608 61.2789 46.4041 61.7943 45.9912C62.3095 45.5832 62.5699 44.9866 62.5699 44.2065ZM63.1436 51.4111C63.1436 50.6973 62.8832 50.1058 62.3627 49.6367C61.842 49.1677 61.2418 48.9331 60.5619 48.9331H59.0001C58.5964 48.9331 58.2989 49.0147 58.1077 49.1777C57.9163 49.3001 57.8102 49.4735 57.7888 49.6978C57.7888 51.7578 57.8209 52.9918 57.8845 53.3996C57.9482 53.8076 58.2032 54.0116 58.6494 54.0116H59.7332C60.8167 54.0116 61.6348 53.8484 62.1873 53.522C62.8247 53.114 63.1436 52.4104 63.1436 51.4111Z" fill="#394551"/>
<path d="M72.0331 42.9257C71.397 42.9257 70.7665 43.0121 70.1516 43.1848C69.5367 43.3574 69.027 43.6266 68.6276 43.9924C68.2439 44.2769 67.9075 44.4495 67.6081 44.5105C67.461 44.5105 67.3558 44.3886 67.2928 44.1448L67.3558 43.9009L68.6485 40.7771C68.7747 40.5688 69.2372 40.3607 70.036 40.1575L71.1711 40H72.3063C74.2402 40 75.7643 40.4673 76.8783 41.3968C77.8453 42.2094 78.3288 43.1746 78.3288 44.2869V49.7931V50.4636C78.3288 51.3371 78.497 52.0025 78.8334 52.47L80 53.6889C80 53.8719 79.958 53.9938 79.8739 54.0547L77.0045 55.9391L76.7207 56C76.5316 56 76.3581 55.9493 76.2005 55.8476C76.0428 55.7461 75.7326 55.4514 75.2703 54.9639C74.913 54.5168 74.7342 54.1613 74.7342 53.8972C74.7342 53.7753 74.6816 53.7042 74.5766 53.684L74.3874 53.7753L72.5271 55.9391L72.2433 56H71.3288C70.0254 56 68.8482 55.5836 67.7972 54.7556C66.5991 53.8108 66 52.5664 66 51.0324C66 49.2954 66.8985 47.939 68.7012 46.974C69.9046 46.3644 71.5285 45.9733 73.5623 45.7905C73.9196 45.7905 74.1772 45.7549 74.3401 45.6839C74.4977 45.6128 74.5766 45.4045 74.5766 45.0591C74.5766 44.3682 74.3663 43.8502 73.9407 43.5047C73.5361 43.1187 72.9001 42.9257 72.0331 42.9257ZM72.2433 52.922C72.816 52.922 73.352 52.7188 73.8408 52.3125C74.3296 51.9061 74.5766 51.4084 74.5766 50.8192V47.4973C74.5766 47.2534 74.4715 47.1315 74.2613 47.1315C74.0931 47.1315 73.9091 47.1466 73.7094 47.1772C73.5097 47.2077 73.2103 47.3041 72.8109 47.4666C72.2642 47.6496 71.8122 47.8731 71.4549 48.1371C71.0976 48.4012 70.8032 48.6857 70.5721 48.9904C70.2357 49.5188 70.0675 50.0572 70.0675 50.6057C70.0675 51.3575 70.3039 51.957 70.7718 52.4038C71.1764 52.7492 71.6652 52.922 72.2433 52.922Z" fill="#394551"/>
<path d="M78 48.0742C78 45.8454 78.6333 43.9425 79.9002 42.3656C81.167 40.7886 82.7718 40 84.7142 40C86.1922 40 87.3324 40.1788 88.1346 40.5362C88.9369 40.8936 89.338 41.3142 89.338 41.7978C89.338 41.987 89.317 42.1132 89.2748 42.1764L89.1797 42.397L87.9128 45.5827C87.8496 45.898 87.7019 46.0663 87.4695 46.0872C87.1528 46.0872 86.889 45.6562 86.6778 44.7941C86.5089 43.8899 86.171 43.1645 85.6644 42.6179C85.3475 42.2394 84.8619 42.0502 84.2074 42.0502C83.5108 42.0502 82.9089 42.4076 82.4023 43.1224C81.811 43.9637 81.5155 45.057 81.5155 46.4026C81.5155 48.253 82.0485 49.8353 83.1148 51.1493C84.181 52.4636 85.5271 53.1207 87.1528 53.1207L87.9447 53.089C88.2191 53.089 88.4829 53.0471 88.7363 52.963L89.5914 52.7736L89.8449 52.8683C89.9926 52.9734 90.0348 53.1207 89.9716 53.3098L86.7411 56.59L86.3293 56.8423L85.5693 57C83.8378 57 82.2121 56.2535 80.692 54.7606C78.8974 52.9734 78 50.7446 78 48.0742Z" fill="#394551"/>
<path fill-rule="evenodd" clip-rule="evenodd" d="M22 14.9703C26.1361 14.8822 23.8545 15.2539 29.2196 10.0591C30.926 8.40654 30.7439 8.41006 32.1945 6.60192C36.6925 0.995867 38.0592 4.64151 45.4669 13.0042C47.7926 15.6297 45.3437 14.8713 50 14.9703C49.6035 10.411 46.8127 9.29495 44.0134 6.5158C40.394 2.92281 38.6003 0.587773 36.8971 0H35.1997C33.5719 0.537275 31.5681 2.58577 27.9639 6.49408C25.2141 9.476 22.4149 10.2018 22 14.9703Z" fill="#FEDB09"/>
<path d="M122.839 30.0923H121.732C121.689 29.8556 121.61 29.6473 121.494 29.4673C121.378 29.2874 121.236 29.1347 121.067 29.0092C120.899 28.8838 120.711 28.7891 120.503 28.7251C120.297 28.6612 120.078 28.6293 119.846 28.6293C119.427 28.6293 119.052 28.7346 118.72 28.9453C118.391 29.156 118.131 29.465 117.939 29.8722C117.75 30.2794 117.655 30.7765 117.655 31.3636C117.655 31.9555 117.75 32.455 117.939 32.8622C118.131 33.2694 118.392 33.5772 118.724 33.7855C119.055 33.9938 119.428 34.098 119.842 34.098C120.072 34.098 120.29 34.0672 120.496 34.0057C120.704 33.9418 120.892 33.8482 121.06 33.7251C121.228 33.602 121.371 33.4517 121.487 33.2741C121.605 33.0942 121.687 32.8883 121.732 32.6562L122.839 32.6598C122.78 33.0173 122.665 33.3464 122.495 33.647C122.327 33.9453 122.11 34.2034 121.845 34.4212C121.582 34.6366 121.282 34.8035 120.943 34.9219C120.605 35.0402 120.235 35.0994 119.835 35.0994C119.205 35.0994 118.644 34.9503 118.152 34.652C117.66 34.3513 117.271 33.9216 116.987 33.3629C116.705 32.8042 116.565 32.1378 116.565 31.3636C116.565 30.5871 116.707 29.9207 116.991 29.3643C117.275 28.8056 117.663 28.3771 118.156 28.0788C118.648 27.7782 119.208 27.6278 119.835 27.6278C120.221 27.6278 120.581 27.6835 120.915 27.7947C121.251 27.9036 121.553 28.0646 121.82 28.2777C122.088 28.4884 122.309 28.7464 122.484 29.0518C122.66 29.3549 122.778 29.7017 122.839 30.0923ZM123.762 30.4616V29.5455H128.364V30.4616H126.585V35H125.548V30.4616H123.762ZM129.487 37.0455V29.5455H130.524V30.4297H130.613C130.674 30.3161 130.763 30.1847 130.879 30.0355C130.995 29.8864 131.156 29.7562 131.362 29.6449C131.568 29.5312 131.84 29.4744 132.179 29.4744C132.619 29.4744 133.012 29.5857 133.358 29.8082C133.704 30.0308 133.975 30.3516 134.171 30.7706C134.37 31.1896 134.469 31.6939 134.469 32.2834C134.469 32.8729 134.371 33.3783 134.175 33.7997C133.978 34.2187 133.708 34.5419 133.365 34.7692C133.022 34.9941 132.63 35.1065 132.19 35.1065C131.858 35.1065 131.587 35.0509 131.376 34.9396C131.168 34.8284 131.005 34.6982 130.886 34.549C130.768 34.3999 130.677 34.2673 130.613 34.1513H130.549V37.0455H129.487ZM130.528 32.2727C130.528 32.6562 130.583 32.9924 130.695 33.2812C130.806 33.5701 130.967 33.7962 131.178 33.9595C131.388 34.1205 131.646 34.201 131.952 34.201C132.269 34.201 132.534 34.117 132.747 33.9489C132.96 33.7784 133.121 33.5476 133.23 33.2564C133.341 32.9652 133.397 32.6373 133.397 32.2727C133.397 31.9129 133.343 31.5897 133.234 31.3033C133.127 31.0168 132.966 30.7907 132.751 30.625C132.538 30.4593 132.271 30.3764 131.952 30.3764C131.644 30.3764 131.384 30.4557 131.17 30.6143C130.96 30.773 130.8 30.9943 130.691 31.2784C130.582 31.5625 130.528 31.8939 130.528 32.2727ZM137.957 35.1101C137.445 35.1101 136.999 34.9929 136.618 34.7585C136.237 34.5241 135.941 34.1963 135.73 33.7749C135.519 33.3535 135.414 32.861 135.414 32.2976C135.414 31.7318 135.519 31.237 135.73 30.8132C135.941 30.3894 136.237 30.0604 136.618 29.826C136.999 29.5916 137.445 29.4744 137.957 29.4744C138.468 29.4744 138.914 29.5916 139.295 29.826C139.677 30.0604 139.973 30.3894 140.183 30.8132C140.394 31.237 140.499 31.7318 140.499 32.2976C140.499 32.861 140.394 33.3535 140.183 33.7749C139.973 34.1963 139.677 34.5241 139.295 34.7585C138.914 34.9929 138.468 35.1101 137.957 35.1101ZM137.96 34.2188C138.292 34.2188 138.566 34.1312 138.784 33.956C139.002 33.7808 139.163 33.5476 139.267 33.2564C139.374 32.9652 139.427 32.6444 139.427 32.294C139.427 31.946 139.374 31.6264 139.267 31.3352C139.163 31.0417 139.002 30.8061 138.784 30.6286C138.566 30.451 138.292 30.3622 137.96 30.3622C137.626 30.3622 137.349 30.451 137.129 30.6286C136.911 30.8061 136.749 31.0417 136.643 31.3352C136.539 31.6264 136.487 31.946 136.487 32.294C136.487 32.6444 136.539 32.9652 136.643 33.2564C136.749 33.5476 136.911 33.7808 137.129 33.956C137.349 34.1312 137.626 34.2188 137.96 34.2188ZM142.725 33.5121L145.129 29.5455H146.273V35H145.232V31.0298L142.839 35H141.684V29.5455H142.725V33.5121ZM150.761 33.6861L152.523 29.5455H153.439L151.155 35H150.367L148.13 29.5455H149.035L150.761 33.6861ZM148.741 29.5455V35H147.7V29.5455H148.741ZM152.81 35V29.5455H153.844V35H152.81ZM157.905 35V29.5455H158.967V31.8324H159.478L161.279 29.5455H162.593L160.48 32.1982L162.618 35H161.3L159.656 32.8196H158.967V35H157.905ZM165.03 35.1207C164.684 35.1207 164.372 35.0568 164.092 34.929C163.813 34.7988 163.591 34.6106 163.428 34.3643C163.267 34.1181 163.187 33.8163 163.187 33.4588C163.187 33.151 163.246 32.8977 163.364 32.6989C163.483 32.5 163.642 32.3426 163.844 32.2266C164.045 32.1106 164.27 32.023 164.518 31.9638C164.767 31.9046 165.02 31.8596 165.278 31.8288C165.605 31.791 165.87 31.7602 166.074 31.7365C166.277 31.7105 166.425 31.669 166.518 31.6122C166.61 31.5554 166.656 31.4631 166.656 31.3352V31.3104C166.656 31.0002 166.568 30.7599 166.393 30.5895C166.22 30.419 165.962 30.3338 165.619 30.3338C165.262 30.3338 164.98 30.4131 164.774 30.5717C164.57 30.728 164.43 30.902 164.351 31.0938L163.354 30.8665C163.472 30.535 163.645 30.2675 163.872 30.0639C164.102 29.858 164.366 29.7088 164.664 29.6165C164.962 29.5218 165.276 29.4744 165.605 29.4744C165.823 29.4744 166.054 29.5005 166.297 29.5526C166.544 29.6023 166.773 29.6946 166.986 29.8295C167.202 29.9645 167.378 30.1574 167.515 30.4084C167.653 30.657 167.721 30.9801 167.721 31.3778V35H166.684V34.2543H166.642C166.573 34.3916 166.47 34.5265 166.333 34.6591C166.196 34.7917 166.019 34.9018 165.804 34.9893C165.588 35.0769 165.33 35.1207 165.03 35.1207ZM165.26 34.2685C165.554 34.2685 165.805 34.2105 166.013 34.0945C166.224 33.9785 166.384 33.8269 166.493 33.6399C166.604 33.4505 166.66 33.2481 166.66 33.0327V32.3295C166.622 32.3674 166.548 32.4029 166.439 32.4361C166.333 32.4669 166.211 32.4941 166.074 32.5178C165.936 32.5391 165.803 32.5592 165.672 32.5781C165.542 32.5947 165.433 32.6089 165.346 32.6207C165.14 32.6468 164.952 32.6906 164.781 32.7521C164.613 32.8137 164.478 32.9025 164.376 33.0185C164.277 33.1321 164.227 33.2836 164.227 33.473C164.227 33.7358 164.324 33.9347 164.518 34.0696C164.712 34.2022 164.96 34.2685 165.26 34.2685ZM169.136 37.0455V29.5455H170.173V30.4297H170.261C170.323 30.3161 170.412 30.1847 170.528 30.0355C170.644 29.8864 170.805 29.7562 171.011 29.6449C171.217 29.5312 171.489 29.4744 171.827 29.4744C172.268 29.4744 172.661 29.5857 173.006 29.8082C173.352 30.0308 173.623 30.3516 173.82 30.7706C174.018 31.1896 174.118 31.6939 174.118 32.2834C174.118 32.8729 174.02 33.3783 173.823 33.7997C173.627 34.2187 173.357 34.5419 173.013 34.7692C172.67 34.9941 172.278 35.1065 171.838 35.1065C171.507 35.1065 171.236 35.0509 171.025 34.9396C170.817 34.8284 170.653 34.6982 170.535 34.549C170.416 34.3999 170.325 34.2673 170.261 34.1513H170.197V37.0455H169.136ZM170.176 32.2727C170.176 32.6562 170.232 32.9924 170.343 33.2812C170.454 33.5701 170.615 33.7962 170.826 33.9595C171.037 34.1205 171.295 34.201 171.6 34.201C171.917 34.201 172.183 34.117 172.396 33.9489C172.609 33.7784 172.77 33.5476 172.879 33.2564C172.99 32.9652 173.045 32.6373 173.045 32.2727C173.045 31.9129 172.991 31.5897 172.882 31.3033C172.776 31.0168 172.615 30.7907 172.399 30.625C172.186 30.4593 171.92 30.3764 171.6 30.3764C171.292 30.3764 171.032 30.4557 170.819 30.6143C170.608 30.773 170.448 30.9943 170.339 31.2784C170.231 31.5625 170.176 31.8939 170.176 32.2727ZM175.308 35V29.5455H176.369V31.8324H176.881L178.681 29.5455H179.995L177.882 32.1982L180.02 35H178.702L177.058 32.8196H176.369V35H175.308ZM182.432 35.1207C182.086 35.1207 181.774 35.0568 181.494 34.929C181.215 34.7988 180.994 34.6106 180.83 34.3643C180.669 34.1181 180.589 33.8163 180.589 33.4588C180.589 33.151 180.648 32.8977 180.767 32.6989C180.885 32.5 181.045 32.3426 181.246 32.2266C181.447 32.1106 181.672 32.023 181.921 31.9638C182.169 31.9046 182.423 31.8596 182.681 31.8288C183.007 31.791 183.272 31.7602 183.476 31.7365C183.68 31.7105 183.828 31.669 183.92 31.6122C184.012 31.5554 184.058 31.4631 184.058 31.3352V31.3104C184.058 31.0002 183.971 30.7599 183.796 30.5895C183.623 30.419 183.365 30.3338 183.021 30.3338C182.664 30.3338 182.382 30.4131 182.176 30.5717C181.973 30.728 181.832 30.902 181.754 31.0938L180.756 30.8665C180.874 30.535 181.047 30.2675 181.274 30.0639C181.504 29.858 181.768 29.7088 182.066 29.6165C182.365 29.5218 182.678 29.4744 183.007 29.4744C183.225 29.4744 183.456 29.5005 183.7 29.5526C183.946 29.6023 184.176 29.6946 184.389 29.8295C184.604 29.9645 184.78 30.1574 184.918 30.4084C185.055 30.657 185.124 30.9801 185.124 31.3778V35H184.087V34.2543H184.044C183.976 34.3916 183.873 34.5265 183.735 34.6591C183.598 34.7917 183.422 34.9018 183.206 34.9893C182.991 35.0769 182.733 35.1207 182.432 35.1207ZM182.663 34.2685C182.956 34.2685 183.207 34.2105 183.416 34.0945C183.626 33.9785 183.786 33.8269 183.895 33.6399C184.006 33.4505 184.062 33.2481 184.062 33.0327V32.3295C184.024 32.3674 183.951 32.4029 183.842 32.4361C183.735 32.4669 183.613 32.4941 183.476 32.5178C183.339 32.5391 183.205 32.5592 183.075 32.5781C182.945 32.5947 182.836 32.6089 182.748 32.6207C182.542 32.6468 182.354 32.6906 182.183 32.7521C182.015 32.8137 181.88 32.9025 181.779 33.0185C181.679 33.1321 181.629 33.2836 181.629 33.473C181.629 33.7358 181.727 33.9347 181.921 34.0696C182.115 34.2022 182.362 34.2685 182.663 34.2685ZM188.836 35.1101C188.308 35.1101 187.853 34.9905 187.472 34.7514C187.093 34.5099 186.802 34.1773 186.598 33.7536C186.395 33.3298 186.293 32.8445 186.293 32.2976C186.293 31.7436 186.397 31.2547 186.605 30.831C186.814 30.4048 187.107 30.0722 187.486 29.8331C187.865 29.594 188.311 29.4744 188.825 29.4744C189.239 29.4744 189.609 29.5514 189.933 29.7053C190.257 29.8568 190.519 30.0698 190.718 30.3445C190.919 30.6191 191.038 30.9399 191.076 31.3068H190.043C189.986 31.0511 189.856 30.831 189.652 30.6463C189.451 30.4616 189.181 30.3693 188.843 30.3693C188.547 30.3693 188.288 30.4474 188.065 30.6037C187.845 30.7576 187.673 30.9777 187.55 31.2642C187.427 31.5483 187.365 31.8845 187.365 32.2727C187.365 32.6705 187.426 33.0137 187.547 33.3026C187.667 33.5914 187.838 33.8151 188.058 33.9737C188.28 34.1323 188.542 34.2116 188.843 34.2116C189.044 34.2116 189.226 34.175 189.39 34.1016C189.555 34.0258 189.694 33.9181 189.805 33.7784C189.919 33.6387 189.998 33.4706 190.043 33.2741H191.076C191.038 33.6269 190.924 33.9418 190.732 34.2188C190.54 34.4957 190.283 34.7135 189.961 34.8722C189.642 35.0308 189.266 35.1101 188.836 35.1101ZM195.909 31.8146V32.7344H192.954V31.8146H195.909ZM193.252 29.5455V35H192.212V29.5455H193.252ZM196.651 29.5455V35H195.614V29.5455H196.651ZM198.87 31.4205H200.454C201.122 31.4205 201.635 31.5862 201.995 31.9176C202.355 32.2491 202.535 32.6764 202.535 33.1996C202.535 33.5405 202.454 33.8471 202.294 34.1193C202.133 34.3916 201.897 34.607 201.587 34.7656C201.277 34.9219 200.899 35 200.454 35H198.071V29.5455H199.112V34.0838H200.454C200.759 34.0838 201.01 34.0045 201.207 33.8459C201.403 33.6849 201.502 33.4801 201.502 33.2315C201.502 32.9687 201.403 32.7545 201.207 32.5888C201.01 32.4207 200.759 32.3366 200.454 32.3366H198.87V31.4205ZM203.309 35V29.5455H204.371V35H203.309ZM208.147 35.1101C207.609 35.1101 207.146 34.9953 206.758 34.7656C206.372 34.5336 206.074 34.2081 205.863 33.7891C205.655 33.3677 205.551 32.8741 205.551 32.3082C205.551 31.7495 205.655 31.2571 205.863 30.831C206.074 30.4048 206.368 30.0722 206.744 29.8331C207.123 29.594 207.565 29.4744 208.072 29.4744C208.38 29.4744 208.678 29.5253 208.967 29.6271C209.256 29.7289 209.515 29.8887 209.745 30.1065C209.974 30.3243 210.155 30.6072 210.288 30.9553C210.421 31.3009 210.487 31.7211 210.487 32.2159V32.5923H206.151V31.7969H209.446C209.446 31.5175 209.39 31.2701 209.276 31.0547C209.162 30.8369 209.002 30.6652 208.797 30.5398C208.593 30.4143 208.354 30.3516 208.079 30.3516C207.781 30.3516 207.52 30.425 207.298 30.5717C207.078 30.7161 206.907 30.9055 206.787 31.1399C206.668 31.3719 206.609 31.6241 206.609 31.8963V32.5178C206.609 32.8823 206.673 33.1925 206.801 33.4482C206.931 33.7038 207.112 33.8991 207.344 34.0341C207.576 34.1667 207.847 34.233 208.157 34.233C208.359 34.233 208.542 34.2045 208.708 34.1477C208.873 34.0885 209.017 34.0009 209.137 33.8849C209.258 33.7689 209.35 33.6257 209.414 33.4553L210.419 33.6364C210.339 33.9323 210.194 34.1915 209.986 34.4141C209.78 34.6342 209.521 34.8059 209.208 34.929C208.898 35.0497 208.544 35.1101 208.147 35.1101ZM213.779 36.5732V34.0803H214.223C214.336 33.9761 214.432 33.8518 214.51 33.7074C214.591 33.563 214.658 33.3913 214.713 33.1925C214.77 32.9936 214.817 32.7616 214.855 32.4964C214.893 32.2289 214.926 31.9235 214.954 31.5803L215.125 29.5455H218.832V34.0803H219.67V36.5732H218.633V35H214.83V36.5732H213.779ZM215.359 34.0803H217.795V30.4545H216.076L215.963 31.5803C215.908 32.1532 215.84 32.6503 215.757 33.0717C215.674 33.4908 215.541 33.8269 215.359 34.0803ZM223.006 35.1101C222.494 35.1101 222.048 34.9929 221.667 34.7585C221.286 34.5241 220.99 34.1963 220.779 33.7749C220.568 33.3535 220.463 32.861 220.463 32.2976C220.463 31.7318 220.568 31.237 220.779 30.8132C220.99 30.3894 221.286 30.0604 221.667 29.826C222.048 29.5916 222.494 29.4744 223.006 29.4744C223.517 29.4744 223.963 29.5916 224.344 29.826C224.725 30.0604 225.021 30.3894 225.232 30.8132C225.443 31.237 225.548 31.7318 225.548 32.2976C225.548 32.861 225.443 33.3535 225.232 33.7749C225.021 34.1963 224.725 34.5241 224.344 34.7585C223.963 34.9929 223.517 35.1101 223.006 35.1101ZM223.009 34.2188C223.34 34.2188 223.615 34.1312 223.833 33.956C224.051 33.7808 224.212 33.5476 224.316 33.2564C224.422 32.9652 224.476 32.6444 224.476 32.294C224.476 31.946 224.422 31.6264 224.316 31.3352C224.212 31.0417 224.051 30.8061 223.833 30.6286C223.615 30.451 223.34 30.3622 223.009 30.3622C222.675 30.3622 222.398 30.451 222.178 30.6286C221.96 30.8061 221.798 31.0417 221.692 31.3352C221.587 31.6264 221.535 31.946 221.535 32.294C221.535 32.6444 221.587 32.9652 221.692 33.2564C221.798 33.5476 221.96 33.7808 222.178 33.956C222.398 34.1312 222.675 34.2188 223.009 34.2188ZM229.794 33.6861L231.556 29.5455H232.472L230.189 35H229.4L227.163 29.5455H228.069L229.794 33.6861ZM227.774 29.5455V35H226.733V29.5455H227.774ZM231.843 35V29.5455H232.877V35H231.843ZM235.879 35.1207C235.534 35.1207 235.221 35.0568 234.942 34.929C234.662 34.7988 234.441 34.6106 234.278 34.3643C234.117 34.1181 234.036 33.8163 234.036 33.4588C234.036 33.151 234.095 32.8977 234.214 32.6989C234.332 32.5 234.492 32.3426 234.693 32.2266C234.894 32.1106 235.119 32.023 235.368 31.9638C235.616 31.9046 235.87 31.8596 236.128 31.8288C236.455 31.791 236.72 31.7602 236.923 31.7365C237.127 31.7105 237.275 31.669 237.367 31.6122C237.46 31.5554 237.506 31.4631 237.506 31.3352V31.3104C237.506 31.0002 237.418 30.7599 237.243 30.5895C237.07 30.419 236.812 30.3338 236.469 30.3338C236.111 30.3338 235.83 30.4131 235.624 30.5717C235.42 30.728 235.279 30.902 235.201 31.0938L234.203 30.8665C234.321 30.535 234.494 30.2675 234.722 30.0639C234.951 29.858 235.215 29.7088 235.513 29.6165C235.812 29.5218 236.125 29.4744 236.455 29.4744C236.672 29.4744 236.903 29.5005 237.147 29.5526C237.393 29.6023 237.623 29.6946 237.836 29.8295C238.051 29.9645 238.228 30.1574 238.365 30.4084C238.502 30.657 238.571 30.9801 238.571 31.3778V35H237.534V34.2543H237.491C237.423 34.3916 237.32 34.5265 237.183 34.6591C237.045 34.7917 236.869 34.9018 236.653 34.9893C236.438 35.0769 236.18 35.1207 235.879 35.1207ZM236.11 34.2685C236.404 34.2685 236.655 34.2105 236.863 34.0945C237.074 33.9785 237.233 33.8269 237.342 33.6399C237.454 33.4505 237.509 33.2481 237.509 33.0327V32.3295C237.471 32.3674 237.398 32.4029 237.289 32.4361C237.183 32.4669 237.061 32.4941 236.923 32.5178C236.786 32.5391 236.652 32.5592 236.522 32.5781C236.392 32.5947 236.283 32.6089 236.195 32.6207C235.989 32.6468 235.801 32.6906 235.631 32.7521C235.463 32.8137 235.328 32.9025 235.226 33.0185C235.126 33.1321 235.077 33.2836 235.077 33.473C235.077 33.7358 235.174 33.9347 235.368 34.0696C235.562 34.2022 235.809 34.2685 236.11 34.2685ZM120.922 40.5142L121.362 41.1854C121.199 41.3345 121.013 41.4411 120.805 41.505C120.599 41.5665 120.361 41.6056 120.091 41.6222C119.821 41.6364 119.512 41.6494 119.164 41.6612C118.771 41.6731 118.448 41.7583 118.195 41.9169C117.941 42.0732 117.746 42.3052 117.609 42.6129C117.474 42.9183 117.386 43.3018 117.346 43.7635H117.413C117.591 43.425 117.837 43.1716 118.152 43.0036C118.469 42.8355 118.826 42.7514 119.221 42.7514C119.661 42.7514 120.053 42.852 120.396 43.0533C120.74 43.2545 121.009 43.5492 121.206 43.9375C121.405 44.3234 121.504 44.7957 121.504 45.3544C121.504 45.9202 121.4 46.4091 121.192 46.821C120.986 47.233 120.695 47.5514 120.318 47.7763C119.944 47.9988 119.503 48.1101 118.994 48.1101C118.485 48.1101 118.041 47.9953 117.662 47.7656C117.286 47.5336 116.993 47.1903 116.785 46.7358C116.579 46.2812 116.476 45.7202 116.476 45.0526V44.5128C116.476 43.2652 116.698 42.3265 117.143 41.6967C117.589 41.067 118.254 40.7438 119.139 40.7273C119.426 40.7202 119.681 40.719 119.906 40.7237C120.131 40.7261 120.328 40.7154 120.496 40.6918C120.666 40.6657 120.808 40.6065 120.922 40.5142ZM118.997 47.2188C119.293 47.2188 119.548 47.1442 119.761 46.995C119.976 46.8435 120.142 46.6293 120.258 46.3523C120.374 46.0753 120.432 45.7486 120.432 45.3722C120.432 45.0028 120.374 44.6892 120.258 44.4311C120.142 44.1731 119.976 43.9766 119.761 43.8416C119.545 43.7043 119.287 43.6357 118.987 43.6357C118.764 43.6357 118.565 43.6747 118.39 43.7528C118.215 43.8286 118.064 43.9411 117.939 44.0902C117.816 44.2393 117.72 44.4216 117.651 44.6371C117.585 44.8501 117.549 45.0952 117.545 45.3722C117.545 45.9356 117.674 46.3842 117.932 46.718C118.192 47.0518 118.547 47.2188 118.997 47.2188ZM123.489 44.4205H125.073C125.741 44.4205 126.254 44.5862 126.614 44.9176C126.974 45.2491 127.154 45.6764 127.154 46.1996C127.154 46.5405 127.074 46.8471 126.913 47.1193C126.752 47.3916 126.516 47.607 126.206 47.7656C125.896 47.9219 125.518 48 125.073 48H122.69V42.5455H123.731V47.0838H125.073C125.379 47.0838 125.629 47.0045 125.826 46.8459C126.022 46.6849 126.121 46.4801 126.121 46.2315C126.121 45.9687 126.022 45.7545 125.826 45.5888C125.629 45.4207 125.379 45.3366 125.073 45.3366H123.489V44.4205ZM127.928 48V42.5455H128.99V48H127.928ZM132.713 48.1101C132.185 48.1101 131.73 47.9905 131.349 47.7514C130.97 47.5099 130.679 47.1773 130.475 46.7536C130.272 46.3298 130.17 45.8445 130.17 45.2976C130.17 44.7436 130.274 44.2547 130.482 43.831C130.691 43.4048 130.984 43.0722 131.363 42.8331C131.742 42.594 132.188 42.4744 132.702 42.4744C133.116 42.4744 133.485 42.5514 133.81 42.7053C134.134 42.8568 134.396 43.0698 134.595 43.3445C134.796 43.6191 134.915 43.9399 134.953 44.3068H133.92C133.863 44.0511 133.733 43.831 133.529 43.6463C133.328 43.4616 133.058 43.3693 132.72 43.3693C132.424 43.3693 132.164 43.4474 131.942 43.6037C131.722 43.7576 131.55 43.9777 131.427 44.2642C131.304 44.5483 131.242 44.8845 131.242 45.2727C131.242 45.6705 131.303 46.0137 131.423 46.3026C131.544 46.5914 131.715 46.8151 131.935 46.9737C132.157 47.1323 132.419 47.2116 132.72 47.2116C132.921 47.2116 133.103 47.175 133.267 47.1016C133.432 47.0258 133.571 46.9181 133.682 46.7784C133.796 46.6387 133.875 46.4706 133.92 46.2741H134.953C134.915 46.6269 134.801 46.9418 134.609 47.2188C134.417 47.4957 134.16 47.7135 133.838 47.8722C133.519 48.0308 133.143 48.1101 132.713 48.1101ZM135.676 43.4616V42.5455H140.278V43.4616H138.499V48H137.462V43.4616H135.676ZM141.401 50.0455V42.5455H142.438V43.4297H142.527C142.589 43.3161 142.677 43.1847 142.793 43.0355C142.909 42.8864 143.07 42.7562 143.276 42.6449C143.482 42.5312 143.754 42.4744 144.093 42.4744C144.533 42.4744 144.926 42.5857 145.272 42.8082C145.618 43.0308 145.889 43.3516 146.085 43.7706C146.284 44.1896 146.384 44.6939 146.384 45.2834C146.384 45.8729 146.285 46.3783 146.089 46.7997C145.892 47.2187 145.622 47.5419 145.279 47.7692C144.936 47.9941 144.544 48.1065 144.104 48.1065C143.772 48.1065 143.501 48.0509 143.29 47.9396C143.082 47.8284 142.919 47.6982 142.8 47.549C142.682 47.3999 142.591 47.2673 142.527 47.1513H142.463V50.0455H141.401ZM142.442 45.2727C142.442 45.6562 142.497 45.9924 142.609 46.2812C142.72 46.5701 142.881 46.7962 143.092 46.9595C143.302 47.1205 143.56 47.201 143.866 47.201C144.183 47.201 144.448 47.117 144.661 46.9489C144.874 46.7784 145.035 46.5476 145.144 46.2564C145.255 45.9652 145.311 45.6373 145.311 45.2727C145.311 44.9129 145.257 44.5897 145.148 44.3033C145.041 44.0168 144.88 43.7907 144.665 43.625C144.452 43.4593 144.185 43.3764 143.866 43.3764C143.558 43.3764 143.298 43.4557 143.085 43.6143C142.874 43.773 142.714 43.9943 142.605 44.2784C142.496 44.5625 142.442 44.8939 142.442 45.2727ZM149.871 48.1101C149.359 48.1101 148.913 47.9929 148.532 47.7585C148.151 47.5241 147.855 47.1963 147.644 46.7749C147.433 46.3535 147.328 45.861 147.328 45.2976C147.328 44.7318 147.433 44.237 147.644 43.8132C147.855 43.3894 148.151 43.0604 148.532 42.826C148.913 42.5916 149.359 42.4744 149.871 42.4744C150.382 42.4744 150.828 42.5916 151.21 42.826C151.591 43.0604 151.887 43.3894 152.097 43.8132C152.308 44.237 152.413 44.7318 152.413 45.2976C152.413 45.861 152.308 46.3535 152.097 46.7749C151.887 47.1963 151.591 47.5241 151.21 47.7585C150.828 47.9929 150.382 48.1101 149.871 48.1101ZM149.874 47.2188C150.206 47.2188 150.48 47.1312 150.698 46.956C150.916 46.7808 151.077 46.5476 151.181 46.2564C151.288 45.9652 151.341 45.6444 151.341 45.294C151.341 44.946 151.288 44.6264 151.181 44.3352C151.077 44.0417 150.916 43.8061 150.698 43.6286C150.48 43.451 150.206 43.3622 149.874 43.3622C149.54 43.3622 149.263 43.451 149.043 43.6286C148.826 43.8061 148.663 44.0417 148.557 44.3352C148.453 44.6264 148.401 44.946 148.401 45.294C148.401 45.6444 148.453 45.9652 148.557 46.2564C148.663 46.5476 148.826 46.7808 149.043 46.956C149.263 47.1312 149.54 47.2188 149.874 47.2188ZM157.286 46.5121L159.69 42.5455H160.833V48H159.793V44.0298L157.399 48H156.245V42.5455H157.286V46.5121ZM164.907 48V42.5455H165.969V44.8324H166.48L168.281 42.5455H169.595L167.482 45.1982L169.619 48H168.302L166.658 45.8196H165.969V48H164.907ZM172.032 48.1207C171.686 48.1207 171.373 48.0568 171.094 47.929C170.815 47.7988 170.593 47.6106 170.43 47.3643C170.269 47.1181 170.189 46.8163 170.189 46.4588C170.189 46.151 170.248 45.8977 170.366 45.6989C170.484 45.5 170.644 45.3426 170.846 45.2266C171.047 45.1106 171.272 45.023 171.52 44.9638C171.769 44.9046 172.022 44.8596 172.28 44.8288C172.607 44.791 172.872 44.7602 173.076 44.7365C173.279 44.7105 173.427 44.669 173.52 44.6122C173.612 44.5554 173.658 44.4631 173.658 44.3352V44.3104C173.658 44.0002 173.57 43.7599 173.395 43.5895C173.222 43.419 172.964 43.3338 172.621 43.3338C172.264 43.3338 171.982 43.4131 171.776 43.5717C171.572 43.728 171.431 43.902 171.353 44.0938L170.355 43.8665C170.474 43.535 170.647 43.2675 170.874 43.0639C171.104 42.858 171.368 42.7088 171.666 42.6165C171.964 42.5218 172.278 42.4744 172.607 42.4744C172.825 42.4744 173.056 42.5005 173.299 42.5526C173.546 42.6023 173.775 42.6946 173.988 42.8295C174.204 42.9645 174.38 43.1574 174.517 43.4084C174.655 43.657 174.723 43.9801 174.723 44.3778V48H173.686V47.2543H173.644C173.575 47.3916 173.472 47.5265 173.335 47.6591C173.198 47.7917 173.021 47.9018 172.806 47.9893C172.59 48.0769 172.332 48.1207 172.032 48.1207ZM172.262 47.2685C172.556 47.2685 172.807 47.2105 173.015 47.0945C173.226 46.9785 173.386 46.8269 173.495 46.6399C173.606 46.4505 173.662 46.2481 173.662 46.0327V45.3295C173.624 45.3674 173.55 45.4029 173.441 45.4361C173.335 45.4669 173.213 45.4941 173.076 45.5178C172.938 45.5391 172.805 45.5592 172.674 45.5781C172.544 45.5947 172.435 45.6089 172.348 45.6207C172.142 45.6468 171.953 45.6906 171.783 45.7521C171.615 45.8137 171.48 45.9025 171.378 46.0185C171.279 46.1321 171.229 46.2836 171.229 46.473C171.229 46.7358 171.326 46.9347 171.52 47.0696C171.714 47.2022 171.962 47.2685 172.262 47.2685ZM180.516 42.5455V48H179.479V42.5455H180.516ZM180.065 45.0774V45.9936C179.902 46.0599 179.729 46.1191 179.547 46.1712C179.364 46.2209 179.173 46.2599 178.971 46.2884C178.77 46.3168 178.561 46.331 178.343 46.331C177.668 46.331 177.132 46.1664 176.734 45.8374C176.336 45.5059 176.138 44.9993 176.138 44.3175V42.5348H177.171V44.3175C177.171 44.5755 177.218 44.785 177.313 44.946C177.408 45.107 177.543 45.2254 177.718 45.3011C177.893 45.3769 178.101 45.4148 178.343 45.4148C178.662 45.4148 178.957 45.3852 179.227 45.326C179.499 45.2644 179.779 45.1816 180.065 45.0774ZM184.279 48.1101C183.742 48.1101 183.279 47.9953 182.891 47.7656C182.505 47.5336 182.207 47.2081 181.996 46.7891C181.788 46.3677 181.684 45.8741 181.684 45.3082C181.684 44.7495 181.788 44.2571 181.996 43.831C182.207 43.4048 182.5 43.0722 182.877 42.8331C183.256 42.594 183.698 42.4744 184.205 42.4744C184.513 42.4744 184.811 42.5253 185.1 42.6271C185.389 42.7289 185.648 42.8887 185.877 43.1065C186.107 43.3243 186.288 43.6072 186.421 43.9553C186.553 44.3009 186.62 44.7211 186.62 45.2159V45.5923H182.284V44.7969H185.579C185.579 44.5175 185.522 44.2701 185.409 44.0547C185.295 43.8369 185.135 43.6652 184.929 43.5398C184.726 43.4143 184.487 43.3516 184.212 43.3516C183.914 43.3516 183.653 43.425 183.431 43.5717C183.211 43.7161 183.04 43.9055 182.919 44.1399C182.801 44.3719 182.742 44.6241 182.742 44.8963V45.5178C182.742 45.8823 182.806 46.1925 182.934 46.4482C183.064 46.7038 183.245 46.8991 183.477 47.0341C183.709 47.1667 183.98 47.233 184.29 47.233C184.491 47.233 184.675 47.2045 184.841 47.1477C185.006 47.0885 185.15 47.0009 185.27 46.8849C185.391 46.7689 185.483 46.6257 185.547 46.4553L186.552 46.6364C186.472 46.9323 186.327 47.1915 186.119 47.4141C185.913 47.6342 185.654 47.8059 185.341 47.929C185.031 48.0497 184.677 48.1101 184.279 48.1101ZM190.095 48.1101C189.567 48.1101 189.113 47.9905 188.732 47.7514C188.353 47.5099 188.062 47.1773 187.858 46.7536C187.655 46.3298 187.553 45.8445 187.553 45.2976C187.553 44.7436 187.657 44.2547 187.865 43.831C188.074 43.4048 188.367 43.0722 188.746 42.8331C189.125 42.594 189.571 42.4744 190.085 42.4744C190.499 42.4744 190.868 42.5514 191.193 42.7053C191.517 42.8568 191.779 43.0698 191.977 43.3445C192.179 43.6191 192.298 43.9399 192.336 44.3068H191.303C191.246 44.0511 191.116 43.831 190.912 43.6463C190.711 43.4616 190.441 43.3693 190.102 43.3693C189.807 43.3693 189.547 43.4474 189.325 43.6037C189.105 43.7576 188.933 43.9777 188.81 44.2642C188.687 44.5483 188.625 44.8845 188.625 45.2727C188.625 45.6705 188.686 46.0137 188.806 46.3026C188.927 46.5914 189.097 46.8151 189.318 46.9737C189.54 47.1323 189.802 47.2116 190.102 47.2116C190.304 47.2116 190.486 47.175 190.649 47.1016C190.815 47.0258 190.954 46.9181 191.065 46.7784C191.178 46.6387 191.258 46.4706 191.303 46.2741H192.336C192.298 46.6269 192.183 46.9418 191.992 47.2188C191.8 47.4957 191.543 47.7135 191.221 47.8722C190.901 48.0308 190.526 48.1101 190.095 48.1101ZM193.059 43.4616V42.5455H197.661V43.4616H195.882V48H194.845V43.4616H193.059ZM198.784 48V42.5455H201.046C201.662 42.5455 202.149 42.6768 202.509 42.9396C202.869 43.2 203.049 43.554 203.049 44.0014C203.049 44.321 202.947 44.5743 202.744 44.7614C202.54 44.9484 202.27 45.0739 201.934 45.1378C202.178 45.1662 202.402 45.2396 202.605 45.358C202.809 45.474 202.972 45.6302 203.095 45.8267C203.221 46.0232 203.283 46.2576 203.283 46.5298C203.283 46.8187 203.209 47.0743 203.06 47.2969C202.911 47.517 202.694 47.6899 202.41 47.8153C202.128 47.9384 201.788 48 201.391 48H198.784ZM199.782 47.1122H201.391C201.653 47.1122 201.859 47.0495 202.009 46.924C202.158 46.7985 202.232 46.6281 202.232 46.4126C202.232 46.1593 202.158 45.9605 202.009 45.8161C201.859 45.6693 201.653 45.5959 201.391 45.5959H199.782V47.1122ZM199.782 44.8182H201.057C201.256 44.8182 201.426 44.7898 201.568 44.733C201.713 44.6761 201.823 44.5956 201.898 44.4915C201.977 44.3849 202.016 44.2595 202.016 44.1151C202.016 43.9044 201.929 43.7398 201.756 43.6214C201.584 43.5031 201.347 43.4439 201.046 43.4439H199.782V44.8182ZM206.799 48.1101C206.262 48.1101 205.799 47.9953 205.411 47.7656C205.025 47.5336 204.726 47.2081 204.516 46.7891C204.307 46.3677 204.203 45.8741 204.203 45.3082C204.203 44.7495 204.307 44.2571 204.516 43.831C204.726 43.4048 205.02 43.0722 205.396 42.8331C205.775 42.594 206.218 42.4744 206.724 42.4744C207.032 42.4744 207.33 42.5253 207.619 42.6271C207.908 42.7289 208.167 42.8887 208.397 43.1065C208.627 43.3243 208.808 43.6072 208.94 43.9553C209.073 44.3009 209.139 44.7211 209.139 45.2159V45.5923H204.803V44.7969H208.099C208.099 44.5175 208.042 44.2701 207.928 44.0547C207.815 43.8369 207.655 43.6652 207.449 43.5398C207.245 43.4143 207.006 43.3516 206.732 43.3516C206.433 43.3516 206.173 43.425 205.95 43.5717C205.73 43.7161 205.56 43.9055 205.439 44.1399C205.321 44.3719 205.261 44.6241 205.261 44.8963V45.5178C205.261 45.8823 205.325 46.1925 205.453 46.4482C205.583 46.7038 205.764 46.8991 205.996 47.0341C206.228 47.1667 206.5 47.233 206.81 47.233C207.011 47.233 207.194 47.2045 207.36 47.1477C207.526 47.0885 207.669 47.0009 207.79 46.8849C207.911 46.7689 208.003 46.6257 208.067 46.4553L209.072 46.6364C208.991 46.9323 208.847 47.1915 208.638 47.4141C208.433 47.6342 208.173 47.8059 207.861 47.929C207.551 48.0497 207.197 48.1101 206.799 48.1101ZM214.014 44.8146V45.7344H211.059V44.8146H214.014ZM211.358 42.5455V48H210.317V42.5455H211.358ZM214.756 42.5455V48H213.719V42.5455H214.756ZM219.873 44.8146V45.7344H216.919V44.8146H219.873ZM217.217 42.5455V48H216.177V42.5455H217.217ZM220.616 42.5455V48H219.579V42.5455H220.616ZM224.334 48.1101C223.822 48.1101 223.376 47.9929 222.995 47.7585C222.614 47.5241 222.318 47.1963 222.107 46.7749C221.896 46.3535 221.791 45.861 221.791 45.2976C221.791 44.7318 221.896 44.237 222.107 43.8132C222.318 43.3894 222.614 43.0604 222.995 42.826C223.376 42.5916 223.822 42.4744 224.334 42.4744C224.845 42.4744 225.291 42.5916 225.672 42.826C226.054 43.0604 226.349 43.3894 226.56 43.8132C226.771 44.237 226.876 44.7318 226.876 45.2976C226.876 45.861 226.771 46.3535 226.56 46.7749C226.349 47.1963 226.054 47.5241 225.672 47.7585C225.291 47.9929 224.845 48.1101 224.334 48.1101ZM224.337 47.2188C224.669 47.2188 224.943 47.1312 225.161 46.956C225.379 46.7808 225.54 46.5476 225.644 46.2564C225.751 45.9652 225.804 45.6444 225.804 45.294C225.804 44.946 225.751 44.6264 225.644 44.3352C225.54 44.0417 225.379 43.8061 225.161 43.6286C224.943 43.451 224.669 43.3622 224.337 43.3622C224.003 43.3622 223.726 43.451 223.506 43.6286C223.288 43.8061 223.126 44.0417 223.02 44.3352C222.916 44.6264 222.863 44.946 222.863 45.294C222.863 45.6444 222.916 45.9652 223.02 46.2564C223.126 46.5476 223.288 46.7808 223.506 46.956C223.726 47.1312 224.003 47.2188 224.337 47.2188Z" fill="#394551"/>
</svg>
