<svg width="120" height="39" viewBox="0 0 120 39" fill="none" xmlns="http://www.w3.org/2000/svg">
<g clip-path="url(#clip0_47_1015)">
<path fill-rule="evenodd" clip-rule="evenodd" d="M54 27.9845L55.7322 28L56 7.01533L54.2681 7L54 27.9845Z" fill="#A8AABE"/>
<path fill-rule="evenodd" clip-rule="evenodd" d="M59 23.9847L60.7321 24L61 3.01555L59.2679 3L59 23.9847Z" fill="#FFEA00"/>
<path d="M12 22.3244L13.0622 20.8301C14.0012 21.7207 15.1481 22.1661 16.5028 22.1661C17.1033 22.1661 17.5844 22.0339 17.9461 21.7697C18.3079 21.5057 18.4888 21.1396 18.4888 20.6718C18.4888 20.2792 18.2808 19.9397 17.8652 19.6528C17.4495 19.3661 16.9492 19.1169 16.3643 18.9057C15.7793 18.6943 15.1943 18.4603 14.6093 18.2038C14.0244 17.947 13.5241 17.5735 13.1084 17.083C12.6928 16.5924 12.4848 16 12.4848 15.3056C12.4848 14.2641 12.8852 13.4526 13.6855 12.8716C14.4861 12.2905 15.4867 12 16.6876 12C18.2577 12 19.5202 12.4225 20.4745 13.2678L19.5741 14.8527C19.2354 14.5358 18.7927 14.2868 18.2462 14.1056C17.6998 13.9244 17.1572 13.8339 16.6182 13.8339C16.018 13.8339 15.5369 13.9545 15.1751 14.1961C14.8134 14.4376 14.6325 14.7923 14.6325 15.2602C14.6325 15.6678 14.8402 16.015 15.2558 16.3019C15.6715 16.5885 16.1718 16.8339 16.7568 17.0376C17.3418 17.2415 17.9307 17.4717 18.5233 17.7282C19.1161 17.9849 19.6203 18.3585 20.036 18.849C20.4516 19.3396 20.6593 19.932 20.6593 20.6264C20.6593 21.6075 20.2668 22.4151 19.4818 23.049C18.6965 23.6829 17.6882 24 16.4566 24C14.6093 24 13.1237 23.4414 12 22.3244ZM22.5528 17.9999C22.5528 16.2037 23.107 14.7547 24.2154 13.6527C25.3238 12.5509 26.7246 12 28.4182 12C30.0038 12 31.2429 12.5094 32.136 13.5282C33.0288 14.5471 33.4752 15.8263 33.4752 17.366C33.4752 17.5622 33.4445 17.8717 33.3829 18.2943H24.8851C24.9466 19.4868 25.3585 20.4189 26.1205 21.0904C26.8826 21.7622 27.8101 22.0981 28.903 22.0981C30.1808 22.0981 31.3278 21.6529 32.3437 20.7623L33.2904 22.3698C32.7362 22.8678 32.0474 23.2641 31.2237 23.5584C30.4003 23.8528 29.5803 24 28.7645 24C26.9481 24 25.4585 23.4303 24.2962 22.2906C23.1339 21.151 22.5528 19.7208 22.5528 17.9999ZM24.9544 16.7094H31.2122C31.1814 15.7585 30.9006 15.0189 30.3693 14.4905C29.8382 13.9622 29.1725 13.698 28.372 13.698C27.4944 13.698 26.744 13.9659 26.1205 14.5018C25.4971 15.0377 25.1083 15.7734 24.9544 16.7094ZM35.415 17.9772C35.415 16.2717 36.0231 14.849 37.2393 13.7094C38.4555 12.5697 39.9409 12 41.696 12C43.4662 12 44.9595 12.5659 46.1757 13.698C47.3919 14.8302 48 16.2565 48 17.9772C48 19.6981 47.3919 21.1319 46.1757 22.2793C44.9595 23.4264 43.4741 24 41.7189 24C39.964 24 38.4747 23.4264 37.2508 22.2793C36.027 21.1319 35.415 19.6981 35.415 17.9772ZM37.7009 17.9772C37.7009 19.1697 38.0898 20.1547 38.8672 20.9321C39.6446 21.7094 40.5953 22.0981 41.7189 22.0981C42.8273 22.0981 43.7743 21.7057 44.5593 20.9208C45.3444 20.1358 45.7369 19.1547 45.7369 17.9772C45.7369 16.7999 45.3444 15.8263 44.5593 15.0565C43.7743 14.2868 42.8273 13.9017 41.7189 13.9017C40.5953 13.9017 39.6446 14.2868 38.8672 15.0565C38.0898 15.8263 37.7009 16.7999 37.7009 17.9772Z" fill="#333333"/>
<path d="M67 20.6574C67 19.8254 67.236 19.1272 67.7077 18.5627C68.1797 17.9982 68.8074 17.5933 69.5912 17.3482C70.3749 17.1031 71.1016 16.9359 71.7713 16.8469C72.4409 16.7576 73.1486 16.7132 73.8943 16.7132H74.4879V16.4902C74.4879 14.8413 73.6432 14.0167 71.9538 14.0167C70.843 14.0167 69.7623 14.3806 68.7122 15.1087L67.8218 13.5263C68.2938 13.1402 68.9329 12.8208 69.7394 12.5683C70.5461 12.3156 71.3451 12.1895 72.1365 12.1895C73.5975 12.1895 74.7236 12.5683 75.5151 13.3259C76.3065 14.0835 76.7023 15.1754 76.7023 16.6016V23.7326H74.6249V22.5962L74.6932 21.7047H74.6477C74.2976 22.3732 73.784 22.923 73.1067 23.3538C72.4294 23.7846 71.6799 24 70.858 24C69.808 24 68.9025 23.6955 68.1415 23.0864C67.3805 22.4772 67 21.6676 67 20.6574ZM69.2144 20.479C69.2144 20.9694 69.4046 21.3929 69.7851 21.7493C70.1656 22.1058 70.6982 22.2842 71.3831 22.2842C72.2963 22.2842 73.042 21.9127 73.6203 21.1699C74.1986 20.427 74.4879 19.6027 74.4879 18.6964V18.273H73.9171C70.7819 18.273 69.2144 19.0083 69.2144 20.479ZM79.9894 20.635V8H82.1809V20.2786C82.1809 20.8877 82.2913 21.3074 82.512 21.5375C82.7327 21.7679 83.0409 21.883 83.4365 21.883C83.6039 21.883 83.7333 21.8757 83.8245 21.8607V23.7772C83.5051 23.8217 83.2616 23.844 83.0942 23.844C81.0243 23.844 79.9894 22.7743 79.9894 20.635ZM85.3312 18.0946C85.3312 16.3268 85.8791 14.9007 86.9749 13.8161C88.0706 12.7317 89.4554 12.1895 91.1297 12.1895C92.6972 12.1895 93.9222 12.6908 94.8051 13.6935C95.6877 14.6964 96.129 15.9554 96.129 17.4708C96.129 17.6638 96.0986 17.9685 96.0378 18.3844H87.6369C87.6977 19.558 88.1049 20.4754 88.8582 21.1364C89.6116 21.7975 90.5286 22.1281 91.609 22.1281C92.8722 22.1281 94.0061 21.69 95.0104 20.8134L95.9464 22.3955C95.3985 22.8857 94.7175 23.2757 93.9032 23.5654C93.0892 23.8551 92.2786 24 91.472 24C89.6763 24 88.2037 23.4393 87.0547 22.3176C85.9056 21.196 85.3312 19.7884 85.3312 18.0946ZM87.7055 16.8246H93.8918C93.8614 15.8886 93.5838 15.1607 93.0585 14.6406C92.5335 14.1208 91.8754 13.8607 91.084 13.8607C90.2164 13.8607 89.4746 14.1243 88.8582 14.6518C88.2419 15.1792 87.8575 15.9034 87.7055 16.8246ZM97.3846 23.7326L101.334 17.9386L97.6129 12.4569H100.147L102.293 15.8886L102.658 16.5571H102.704C102.856 16.3045 102.985 16.0817 103.092 15.8886L105.238 12.4569H107.772L104.05 17.9386L108 23.7326H105.489L103.069 19.9665L102.704 19.365H102.658C102.552 19.5877 102.437 19.7884 102.316 19.9665L99.8959 23.7326H97.3846Z" fill="#333333"/>
<path d="M11 36V31.0835H11.7484V31.397L11.7234 31.6615H11.7402C11.8731 31.4526 12.0643 31.2902 12.3139 31.1741C12.5633 31.058 12.8434 31 13.1538 31C13.7193 31 14.1684 31.1694 14.501 31.5083C14.8336 31.8472 15 32.2929 15 32.8454C15 33.4025 14.8225 33.8494 14.4677 34.1859C14.113 34.5225 13.6554 34.6907 13.0956 34.6907C12.5357 34.6907 12.1004 34.4911 11.7899 34.0918H11.7734C11.7956 34.1755 11.8066 34.2775 11.8066 34.3983V36H11ZM11.7817 32.8593C11.7817 33.1936 11.8884 33.4848 12.1018 33.7333C12.3153 33.9816 12.605 34.1058 12.9709 34.1058C13.3146 34.1058 13.6029 33.9933 13.8358 33.7681C14.0684 33.5428 14.1849 33.2377 14.1849 32.8524C14.1849 32.4716 14.0755 32.1664 13.8565 31.9366C13.6375 31.7069 13.3506 31.592 12.9959 31.592C12.652 31.592 12.3637 31.6988 12.131 31.9122C11.8981 32.1257 11.7817 32.4416 11.7817 32.8593Z" fill="#333333"/>
<path d="M15 33.8681C15 33.5863 15.073 33.3497 15.2189 33.1586C15.3648 32.9674 15.5589 32.8302 15.8012 32.7472C16.0435 32.6642 16.2682 32.6075 16.4753 32.5774C16.6824 32.5472 16.9013 32.532 17.1318 32.532H17.3153V32.4567C17.3153 31.8981 17.0542 31.6189 16.5319 31.6189C16.1884 31.6189 15.8542 31.7422 15.5294 31.9886L15.2541 31.4529C15.4 31.322 15.5977 31.2139 15.8472 31.1284C16.0965 31.0428 16.3436 31 16.5883 31C17.0402 31 17.3883 31.1284 17.633 31.3849C17.8777 31.6416 18 32.0113 18 32.4944V34.9095H17.3577V34.5246L17.3789 34.2228H17.3647C17.2565 34.4491 17.0978 34.6352 16.8883 34.7811C16.6788 34.927 16.4471 35 16.193 35C15.8682 35 15.5883 34.8969 15.353 34.6906C15.1177 34.4844 15 34.2101 15 33.8681ZM15.6847 33.8075C15.6847 33.9737 15.7435 34.1171 15.8612 34.2377C15.9789 34.3586 16.1435 34.4189 16.3554 34.4189C16.6378 34.4189 16.8683 34.2931 17.0472 34.0416C17.226 33.79 17.3153 33.5108 17.3153 33.2038V33.0604H17.1388C16.1695 33.0604 15.6847 33.3095 15.6847 33.8075Z" fill="#333333"/>
<path d="M19 34.4416L19.3554 33.9585C19.6552 34.2604 20.0028 34.4115 20.3973 34.4115C20.6394 34.4115 20.8381 34.3573 20.9934 34.2491C21.1487 34.141 21.2264 33.9861 21.2264 33.785C21.2264 33.3976 20.9527 33.2038 20.4053 33.2038H19.9157V32.6756H20.3342C20.8395 32.6756 21.0921 32.4918 21.0921 32.1245C21.0921 31.9484 21.029 31.8125 20.9026 31.7169C20.7764 31.6215 20.6027 31.5736 20.3816 31.5736C20.0448 31.5736 19.721 31.6844 19.4106 31.9056L19.1264 31.415C19.5158 31.1384 19.979 31 20.5159 31C20.9106 31 21.2342 31.0905 21.4869 31.2717C21.7395 31.4529 21.8657 31.7069 21.8657 32.034C21.8657 32.4567 21.671 32.7459 21.2817 32.9019V32.9171C21.7606 33.063 22 33.3623 22 33.8152C22 34.1926 21.8539 34.4844 21.5618 34.6906C21.2698 34.8969 20.9053 35 20.4684 35C19.9 35 19.4106 34.8139 19 34.4416Z" fill="#333333"/>
<path d="M23 36V31.0835H23.7484V31.397L23.7234 31.6615H23.7402C23.8731 31.4526 24.0643 31.2902 24.3139 31.1741C24.5633 31.058 24.8434 31 25.1538 31C25.7193 31 26.1684 31.1694 26.501 31.5083C26.8336 31.8472 27 32.2929 27 32.8454C27 33.4025 26.8225 33.8494 26.4677 34.1859C26.113 34.5225 25.6554 34.6907 25.0956 34.6907C24.5357 34.6907 24.1004 34.4911 23.7899 34.0918H23.7734C23.7956 34.1755 23.8066 34.2775 23.8066 34.3983V36H23ZM23.7817 32.8593C23.7817 33.1936 23.8884 33.4848 24.1018 33.7333C24.3153 33.9816 24.605 34.1058 24.9709 34.1058C25.3146 34.1058 25.6029 33.9933 25.8358 33.7681C26.0684 33.5428 26.1849 33.2377 26.1849 32.8524C26.1849 32.4716 26.0755 32.1664 25.8565 31.9366C25.6375 31.7069 25.3506 31.592 24.9959 31.592C24.652 31.592 24.3637 31.6988 24.131 31.9122C23.8981 32.1257 23.7817 32.4416 23.7817 32.8593Z" fill="#333333"/>
<path d="M27 33.8681C27 33.5863 27.073 33.3497 27.2189 33.1586C27.3648 32.9674 27.5589 32.8302 27.8012 32.7472C28.0435 32.6642 28.2682 32.6075 28.4753 32.5774C28.6824 32.5472 28.9013 32.532 29.1318 32.532H29.3153V32.4567C29.3153 31.8981 29.0542 31.6189 28.5319 31.6189C28.1884 31.6189 27.8542 31.7422 27.5294 31.9886L27.2541 31.4529C27.4 31.322 27.5977 31.2139 27.8472 31.1284C28.0965 31.0428 28.3436 31 28.5883 31C29.0402 31 29.3883 31.1284 29.633 31.3849C29.8777 31.6416 30 32.0113 30 32.4944V34.9095H29.3577V34.5246L29.3789 34.2228H29.3647C29.2565 34.4491 29.0978 34.6352 28.8883 34.7811C28.6788 34.927 28.4471 35 28.193 35C27.8682 35 27.5883 34.8969 27.353 34.6906C27.1177 34.4844 27 34.2101 27 33.8681ZM27.6847 33.8075C27.6847 33.9737 27.7435 34.1171 27.8612 34.2377C27.9789 34.3586 28.1435 34.4189 28.3554 34.4189C28.6378 34.4189 28.8683 34.2931 29.0472 34.0416C29.226 33.79 29.3153 33.5108 29.3153 33.2038V33.0604H29.1388C28.1695 33.0604 27.6847 33.3095 27.6847 33.8075Z" fill="#333333"/>
<path d="M31 32.563C31 31.807 31.1369 31.201 31.4107 30.7453C31.6845 30.2895 32.1718 29.917 32.8726 29.6274L34.3593 29L34.6221 29.6434L33.0286 30.295C32.6126 30.4826 32.3017 30.7038 32.0964 30.9584C31.891 31.2131 31.7749 31.5336 31.7474 31.9196H31.7639C32.0924 31.437 32.5825 31.1958 33.234 31.1958C33.7597 31.1958 34.1856 31.3661 34.5113 31.7065C34.837 32.0469 35 32.5015 35 33.0698C35 33.6382 34.8193 34.1019 34.458 34.4613C34.0966 34.8203 33.6228 35 33.037 35C32.3634 35 31.8556 34.7788 31.5134 34.3365C31.1711 33.8942 31 33.3031 31 32.563ZM31.8296 33.0698C31.8296 33.4611 31.9418 33.7709 32.1662 33.9987C32.3907 34.2267 32.6701 34.3407 33.0042 34.3407C33.3437 34.3407 33.627 34.2267 33.8543 33.9987C34.0815 33.7709 34.1951 33.4665 34.1951 33.0858C34.1951 32.6998 34.0829 32.3916 33.8582 32.1608C33.6338 31.9303 33.36 31.815 33.037 31.815C32.6864 31.815 32.3977 31.9345 32.1704 32.1729C31.9432 32.4116 31.8296 32.7105 31.8296 33.0698Z" fill="#333333"/>
<path d="M36 32.9924C36 32.424 36.1933 31.9497 36.5798 31.5697C36.9664 31.19 37.4385 31 37.9963 31C38.559 31 39.0336 31.1887 39.4202 31.5661C39.8067 31.9435 40 32.4188 40 32.9924C40 33.5662 39.8067 34.0441 39.4202 34.4264C39.0336 34.809 38.5615 35 38.0037 35C37.4457 35 36.9724 34.809 36.5834 34.4264C36.1945 34.0441 36 33.5662 36 32.9924ZM36.7265 32.9924C36.7265 33.3899 36.8501 33.7183 37.0973 33.9774C37.3442 34.2365 37.6465 34.3661 38.0037 34.3661C38.356 34.3661 38.6568 34.2352 38.9065 33.9737C39.1559 33.7121 39.2808 33.385 39.2808 32.9924C39.2808 32.6 39.1559 32.2755 38.9065 32.019C38.6568 31.7623 38.356 31.6339 38.0037 31.6339C37.6465 31.6339 37.3442 31.7623 37.0973 32.019C36.8501 32.2755 36.7265 32.6 36.7265 32.9924Z" fill="#333333"/>
<path d="M41.1759 35V31.6561H40V31H43V31.6561H41.8172V35H41.1759Z" fill="#333333"/>
<path d="M45 35V31H45.6674V32.6127H46.156L47.1055 31H47.8623L46.6996 32.9051V32.921L48 35H47.2087L46.1697 33.2688H45.6674V35H45Z" fill="#333333"/>
<path d="M48 33.8681C48 33.5863 48.073 33.3497 48.2189 33.1586C48.3648 32.9674 48.5589 32.8302 48.8012 32.7472C49.0435 32.6642 49.2682 32.6075 49.4753 32.5774C49.6824 32.5472 49.9013 32.532 50.1318 32.532H50.3153V32.4567C50.3153 31.8981 50.0542 31.6189 49.5319 31.6189C49.1884 31.6189 48.8542 31.7422 48.5295 31.9886L48.2541 31.4529C48.4 31.322 48.5977 31.2139 48.8472 31.1284C49.0965 31.0428 49.3436 31 49.5883 31C50.0402 31 50.3883 31.1284 50.633 31.3849C50.8777 31.6416 51 32.0113 51 32.4944V34.9095H50.3577V34.5246L50.3789 34.2228H50.3647C50.2565 34.4491 50.0978 34.6352 49.8883 34.7811C49.6788 34.927 49.4471 35 49.193 35C48.8682 35 48.5883 34.8969 48.353 34.6906C48.1177 34.4844 48 34.2101 48 33.8681ZM48.6847 33.8075C48.6847 33.9737 48.7435 34.1171 48.8612 34.2377C48.9789 34.3586 49.1435 34.4189 49.3554 34.4189C49.6378 34.4189 49.8683 34.2931 50.0472 34.0416C50.226 33.79 50.3153 33.5108 50.3153 33.2038V33.0604H50.1388C49.1695 33.0604 48.6847 33.3095 48.6847 33.8075Z" fill="#333333"/>
<path d="M55 35V31H55.6214V33.3873C55.6214 33.6667 55.6146 33.8458 55.6013 33.9249H55.6146C55.6369 33.8617 55.7371 33.6824 55.9153 33.3873L57.372 31H58V35H57.372V32.6127C57.372 32.539 57.3752 32.4348 57.3818 32.3005C57.3886 32.1661 57.3919 32.0935 57.3919 32.083H57.3786C57.3741 32.0935 57.2761 32.2701 57.0847 32.6127L55.6214 35H55Z" fill="#333333"/>
<path d="M61 35V31H64V35H63.3416V31.6561H61.6584V35H61Z" fill="#333333"/>
<path d="M66 36V31.0835H66.7484V31.397L66.7234 31.6615H66.7402C66.8731 31.4526 67.0643 31.2902 67.3139 31.1741C67.5633 31.058 67.8434 31 68.1538 31C68.7193 31 69.1684 31.1694 69.501 31.5083C69.8336 31.8472 70 32.2929 70 32.8454C70 33.4025 69.8225 33.8494 69.4677 34.1859C69.113 34.5225 68.6554 34.6907 68.0956 34.6907C67.5357 34.6907 67.1004 34.4911 66.7899 34.0918H66.7734C66.7956 34.1755 66.8066 34.2775 66.8066 34.3983V36H66ZM66.7817 32.8593C66.7817 33.1936 66.8884 33.4848 67.1018 33.7333C67.3153 33.9816 67.605 34.1058 67.9709 34.1058C68.3146 34.1058 68.6029 33.9933 68.8358 33.7681C69.0684 33.5428 69.1849 33.2377 69.1849 32.8524C69.1849 32.4716 69.0755 32.1664 68.8565 31.9366C68.6375 31.7069 68.3506 31.592 67.9959 31.592C67.652 31.592 67.3637 31.6988 67.131 31.9122C66.8981 32.1257 66.7817 32.4416 66.7817 32.8593Z" fill="#333333"/>
<path d="M70 32.9924C70 32.424 70.1933 31.9497 70.5798 31.5697C70.9664 31.19 71.4385 31 71.9963 31C72.559 31 73.0336 31.1887 73.4202 31.5661C73.8067 31.9435 74 32.4188 74 32.9924C74 33.5662 73.8067 34.0441 73.4202 34.4264C73.0336 34.809 72.5615 35 72.0037 35C71.4457 35 70.9724 34.809 70.5834 34.4264C70.1945 34.0441 70 33.5662 70 32.9924ZM70.7265 32.9924C70.7265 33.3899 70.8501 33.7183 71.0973 33.9774C71.3442 34.2365 71.6465 34.3661 72.0037 34.3661C72.356 34.3661 72.6568 34.2352 72.9065 33.9737C73.1559 33.7121 73.2808 33.385 73.2808 32.9924C73.2808 32.6 73.1559 32.2755 72.9065 32.019C72.6568 31.7623 72.356 31.6339 72.0037 31.6339C71.6465 31.6339 71.3442 31.7623 71.0973 32.019C70.8501 32.2755 70.7265 32.6 70.7265 32.9924Z" fill="#333333"/>
<path d="M76.1675 34.4027H77.782V31.631H76.6864V31.8468C76.6864 32.9544 76.5136 33.8063 76.1675 34.4027ZM75 34.4027H75.447C75.8266 33.8276 76.0163 32.941 76.0163 31.7428V31H78.4811V34.4027H79V36H78.3585V35.0416H75.656V36H75V34.4027Z" fill="#333333"/>
<path d="M80 35V31H81.5597C81.9476 31 82.255 31.0883 82.4813 31.2649C82.7077 31.4414 82.8208 31.6958 82.8208 32.0276C82.8208 32.2228 82.7737 32.398 82.6791 32.5533C82.5845 32.7088 82.4528 32.8262 82.2835 32.9051V32.9132C82.5124 32.971 82.689 33.0871 82.8134 33.2609C82.9378 33.4348 83 33.6351 83 33.8617C83 34.2254 82.8744 34.5059 82.623 34.7035C82.3717 34.9012 82.0348 35 81.6119 35H80ZM80.7239 32.6918H81.4327C81.6468 32.6918 81.8084 32.6378 81.9178 32.5298C82.0274 32.4215 82.0819 32.2728 82.0819 32.083C82.0819 31.7141 81.8581 31.5297 81.4103 31.5297H80.7239V32.6918ZM80.7239 34.4624H81.5C81.7536 34.4624 81.9453 34.4071 82.0745 34.2964C82.204 34.1857 82.2685 34.0329 82.2685 33.8379C82.2685 33.6376 82.2015 33.4823 82.0671 33.3716C81.9328 33.2609 81.7411 33.2056 81.4924 33.2056H80.7239V34.4624Z" fill="#333333"/>
<path d="M84 35V31H84.6214V33.3873C84.6214 33.6667 84.6146 33.8458 84.6013 33.9249H84.6146C84.6369 33.8617 84.7371 33.6824 84.9153 33.3873L86.372 31H87V35H86.372V32.6127C86.372 32.539 86.3752 32.4348 86.3818 32.3005C86.3886 32.1661 86.3919 32.0935 86.3919 32.083H86.3786C86.3741 32.0935 86.2761 32.2701 86.0847 32.6127L84.6214 35H84Z" fill="#333333"/>
<path d="M88 35L89.3601 32.9448V32.9289L88.1169 31H88.9762L90.0111 32.6364H90.6119V31H91.3795V32.6364H91.9804L93.0235 31H93.8746L92.6396 32.9289V32.9448L94 35H93.0902L91.9889 33.2925H91.3795V35H90.6119V33.2925H90.0111L88.9012 35H88Z" fill="#333333"/>
<path d="M94 33.0001C94 32.4013 94.2028 31.9182 94.6089 31.5509C95.0148 31.1836 95.5277 31 96.1479 31C96.7288 31 97.1826 31.1699 97.5095 31.5094C97.8365 31.8491 98 32.2755 98 32.7887C98 32.8542 97.9887 32.9573 97.9662 33.0981H94.8541C94.8767 33.4956 95.0274 33.8064 95.3065 34.0302C95.5855 34.2542 95.9252 34.3661 96.3255 34.3661C96.7935 34.3661 97.2135 34.2176 97.5858 33.9209L97.9324 34.4566C97.7293 34.6226 97.4772 34.7548 97.1756 34.8528C96.8738 34.951 96.5737 35 96.2747 35C95.6095 35 95.0641 34.8102 94.6384 34.4303C94.2129 34.0503 94 33.5737 94 33.0001ZM94.8795 32.5699H97.1713C97.16 32.2528 97.0572 32.0064 96.8625 31.8303C96.6681 31.654 96.4243 31.5661 96.1311 31.5661C95.8097 31.5661 95.5349 31.6553 95.3065 31.8339C95.0783 32.0126 94.9359 32.258 94.8795 32.5699Z" fill="#333333"/>
<path d="M98 35V31H98.6467V32.6286H100.353V31H101V35H100.353V33.2847H98.6467V35H98Z" fill="#333333"/>
<path d="M103 35V31H103.621V33.3873C103.621 33.6667 103.615 33.8458 103.601 33.9249H103.615C103.637 33.8617 103.737 33.6824 103.915 33.3873L105.372 31H106V35H105.372V32.6127C105.372 32.539 105.375 32.4348 105.382 32.3005C105.389 32.1661 105.392 32.0935 105.392 32.083H105.379C105.374 32.0935 105.276 32.2701 105.085 32.6127L103.621 35H103Z" fill="#333333"/>
<path d="M107 33.0001C107 32.4013 107.203 31.9182 107.609 31.5509C108.015 31.1836 108.528 31 109.148 31C109.729 31 110.183 31.1699 110.51 31.5094C110.837 31.8491 111 32.2755 111 32.7887C111 32.8542 110.989 32.9573 110.966 33.0981H107.854C107.877 33.4956 108.027 33.8064 108.306 34.0302C108.586 34.2542 108.925 34.3661 109.326 34.3661C109.793 34.3661 110.213 34.2176 110.586 33.9209L110.932 34.4566C110.729 34.6226 110.477 34.7548 110.176 34.8528C109.874 34.951 109.574 35 109.275 35C108.609 35 108.064 34.8102 107.638 34.4303C107.213 34.0503 107 33.5737 107 33.0001ZM107.88 32.5699H110.171C110.16 32.2528 110.057 32.0064 109.863 31.8303C109.668 31.654 109.424 31.5661 109.131 31.5661C108.81 31.5661 108.535 31.6553 108.306 31.8339C108.078 32.0126 107.936 32.258 107.88 32.5699Z" fill="#333333"/>
</g>
<defs>
<clipPath id="clip0_47_1015">
<rect width="120" height="39" fill="white"/>
</clipPath>
</defs>
</svg>
