<?xml version="1.0" encoding="utf-8"?><svg width="126" height="93" viewBox="0 0 126 93" xmlns="http://www.w3.org/2000/svg" xmlns:xlink="http://www.w3.org/1999/xlink"><svg width="13" height="7" fill="none" viewBox="0 0 13 7" id="arrow-top" x="93" y="52" xmlns="http://www.w3.org/2000/svg"><path fill-rule="evenodd" clip-rule="evenodd" d="M6.854.146a.5.5 0 00-.708 0l-6 6a.5.5 0 10.708.708L6.5 1.207l5.646 5.647a.5.5 0 00.708-.708l-6-6z" fill="#D93C6C"/></svg><svg width="18" height="20" fill="none" viewBox="0 0 18 20" id="autumn" x="75" xmlns="http://www.w3.org/2000/svg"><path d="M11.132 14.714L7.487 12.62l-.058-.033-.065-.017-3.806-.994.307-.227v-.001a.905.905 0 00.28-1.09.954.954 0 00-.11-.196L2.048 7.237H2.376a.51.51 0 00.041.001h.201l.017-.016a.93.93 0 00.395-.174h.002a.9.9 0 00.354-.678l.001-.009.241-1.549.901.86a.984.984 0 00.56.282.943.943 0 00.72-.164c.053-.04.088-.084.096-.094v-.001a1.683 1.683 0 00.088-.131 26.838 26.838 0 00.331-.611l.533 1.208.028.063.045.054a.951.951 0 001.47-.015l.065-.013.092-.28 1.493-4.544c.286.335.614.715.763.87h0l.003.003a.963.963 0 001.203.17l.01-.007.005-.003.002-.001h0v-.001l-.272-.42.273.42.022-.015.02-.016 1.692-1.375V2.972l.5-.025-.5.025h0v.002l.001.002v.005l.001.012a.995.995 0 00.019.124c.015.071.044.172.101.279.128.236.39.472.813.472l.742.003-2.78 3.555-.18.23.03.071a.852.852 0 00-.04.24h0v.006a.947.947 0 00.93.948h.05l.05-.009 1.325-.254a15.662 15.662 0 00-.128.377 1.59 1.59 0 00-.021.075v.002a.625.625 0 00-.02.143v.003h.5m-4.032 5.456l5.554-4.312.479-.417-1.565-.3m-4.468 5.03c0-.149 0-.29.002-.403h0a.916.916 0 01.697-.874.904.904 0 01.158-.034l.027-.006H12.1l3.499-.302a3.771 3.771 0 01-.242-.225l-4.226 1.843zm4.032-5.457a.431.431 0 00.436.426m-.436-.426c0-.044.124-.391.241-.71l-.24.71zm.436.426l-.094.491.035.007.053.002.006-.5zM11.5 6C8 10.5 4.462 19.71 1 19.21" stroke="#8C8C8C"/></svg><svg width="17" height="19" fill="none" viewBox="0 0 17 19" id="autumn-red" x="75" y="20" xmlns="http://www.w3.org/2000/svg"><path d="M10.049 14.714L6.404 12.62l-.058-.033-.065-.017-3.806-.994.307-.227v-.001a.905.905 0 00.28-1.09.953.953 0 00-.11-.196L.965 7.237H1.293a.51.51 0 00.041.001h.201l.017-.016a.93.93 0 00.395-.174h.001a.9.9 0 00.355-.678l.001-.009.241-1.549.901.86a.984.984 0 00.56.282.943.943 0 00.72-.164c.053-.04.088-.084.096-.094v-.001a1.698 1.698 0 00.088-.131 26.934 26.934 0 00.331-.611l.533 1.208.028.063.045.054a.951.951 0 001.47-.015l.065-.013.092-.28 1.494-4.544c.285.335.613.715.762.87h0l.003.003a.963.963 0 001.203.17l.01-.007.005-.003.002-.001h0v-.001l-.272-.42.273.42.022-.015.02-.016 1.692-1.375V2.972l.5-.025-.5.025h0v.002l.001.002v.005l.001.012a.995.995 0 00.019.124c.015.071.044.172.101.279.128.236.39.472.813.472l.742.003-2.78 3.555-.18.23.03.071a.852.852 0 00-.04.24h0v.006a.947.947 0 00.93.948h.05l.05-.009 1.325-.254a15.662 15.662 0 00-.128.377 1.48 1.48 0 00-.021.075v.002a.619.619 0 00-.02.143v.003h.5m-4.032 5.456l5.554-4.312.479-.417-1.565-.3m-4.468 5.03c0-.149 0-.29.002-.403h0a.916.916 0 01.697-.874.904.904 0 01.158-.034l.027-.006H11.018l3.499-.302a3.745 3.745 0 01-.242-.225l-4.226 1.843zm4.032-5.457a.431.431 0 00.436.426m-.436-.426c0-.044.124-.391.241-.71l-.24.71zm.436.426l-.094.491.035.007.053.002.006-.5zM9.76 6C8.284 11.053 4.38 18.71.916 18.21" stroke="#D93C6C"/></svg><svg width="19" height="20" fill="none" viewBox="0 0 19 20" id="autumn-white" y="73" xmlns="http://www.w3.org/2000/svg"><path d="M11.498 15.176L7.23 12.962l-.055-.029-.06-.014-4.36-1.029c.132-.087.254-.168.348-.232v-.001a.891.891 0 00.308-1.135.952.952 0 00-.123-.201L1.024 7.419H1.476a.512.512 0 00.042.002h.186l.012-.011c.149-.021.3-.074.438-.168h0a.901.901 0 00.396-.697l.001-.006.292-1.691 1.144.986c.166.162.398.242.587.27.207.029.492.015.74-.154a.553.553 0 00.1-.09h.001a1.706 1.706 0 00.098-.133c.038-.057.083-.13.131-.21.095-.157.21-.356.323-.552l.672 1.374.031.065.05.054c.346.378.939.428 1.352.145a.872.872 0 00.193-.177l.067-.011.099-.273 1.737-4.774.076.08c.33.35.717.756.89.918h0l.003.003a1.06 1.06 0 001.133.218 1.04 1.04 0 00.114-.053l.01-.006.005-.002.002-.001h0v-.001l-.253-.431.254.43.022-.012.02-.015L14.5.987V3.054l.5-.027-.5.028h0v.001l.001.003v.005l.001.013a.98.98 0 00.14.423c.147.246.426.46.852.46.2 0 .558 0 .916.002l-3.163 3.653-.211.244.036.079a.826.826 0 00-.043.244h0v.006c-.004.557.48.954.99.96l.046.001.046-.008 1.606-.278a16.49 16.49 0 00-.153.406 1.525 1.525 0 00-.025.079s0 0 0 0c-.003.012-.023.08-.023.156v.004h.5m-4.518 5.668l6.312-4.497.528-.416-1.826-.317m-5.014 5.23c0-.174 0-.346.002-.478h0c.005-.49.387-.8.756-.887a1.012 1.012 0 01.169-.032l.023-.005H12.537l-1.039 1.402zm4.518-5.668c-.002.24.218.435.496.438m-.496-.438c0-.046.146-.414.28-.745l-.28.745zm.496.438l-.086.493.033.005.047.002.006-.5zM11 6C7.667 10.422 4.298 19.471 1 18.98" stroke="#fff"/></svg><svg width="16" height="19" fill="none" viewBox="0 0 16 19" id="benefits" x="75" y="39" xmlns="http://www.w3.org/2000/svg"><path d="M10.417 12H5.5L5 18h6l-.583-6zM4 1h8v5.063a3.906 3.906 0 01-1.172 2.784A4.032 4.032 0 018 10v0a4.032 4.032 0 01-2.828-1.153A3.907 3.907 0 014 6.063V1zM8 10v2M12 1h3v2.4c0 .955-.316 1.87-.879 2.546C13.56 6.62 12.796 7 12 7M4 1H1v2.4c0 .955.316 1.87.879 2.546C2.44 6.62 3.204 7 4 7M8 8a2 2 0 002-2" stroke="#A69888" stroke-linecap="round" stroke-linejoin="round"/></svg><svg width="21" height="14" fill="none" viewBox="0 0 21 14" id="button-arrow-right" x="53" y="22" xmlns="http://www.w3.org/2000/svg"><path fill-rule="evenodd" clip-rule="evenodd" d="M0 7c0-.206.079-.404.22-.55a.737.737 0 01.53-.228h17.688l-4.72-4.893a.794.794 0 01-.22-.55c0-.207.08-.405.22-.55A.738.738 0 0114.25 0c.2 0 .39.082.531.228l6 6.221A.78.78 0 0121 7a.803.803 0 01-.22.55l-6 6.222a.738.738 0 01-.53.228c-.2 0-.391-.082-.532-.228a.793.793 0 01-.22-.55c0-.207.08-.405.22-.551l4.72-4.893H.75a.737.737 0 01-.53-.228A.793.793 0 010 7z" fill="#D93C6C"/></svg><svg width="16" height="18" fill="none" viewBox="0 0 16 18" id="calculator" x="93" xmlns="http://www.w3.org/2000/svg"><path d="M14.667 1.286v15.428H1.333V1.286h13.334zm0-1.286H1.333C.98 0 .641.135.391.377.14.617 0 .945 0 1.286v15.428c0 .341.14.668.39.91.25.24.59.376.943.376h13.334c.353 0 .692-.136.943-.377.25-.24.39-.568.39-.909V1.286c0-.341-.14-.668-.39-.91A1.359 1.359 0 0014.667 0z" fill="#B1A597"/><path d="M3 14h1v1H3v-1zM11 14h1v1h-1v-1zM3 11h1v1H3v-1zM11 11h1v1h-1v-1zM3 8h1v1H3V8zM7 14h1v1H7v-1zM7 11h1v1H7v-1zM7 8h1v1H7V8zM11 8h1v1h-1V8zM3 4h9v2H3V4z" fill="#B1A597"/></svg><svg width="20" height="20" fill="none" viewBox="0 0 20 20" id="common-square" x="19" y="73" xmlns="http://www.w3.org/2000/svg"><path fill-rule="evenodd" clip-rule="evenodd" d="M7.276 12.723a.627.627 0 00-.886 0L1.254 17.86v-3.471a.627.627 0 00-1.254 0v4.984A.627.627 0 00.627 20h4.984a.627.627 0 000-1.254h-3.47l5.135-5.136a.627.627 0 000-.886zm5.447 0a.627.627 0 01.887 0l5.136 5.137v-3.471a.627.627 0 111.254 0v4.984a.627.627 0 01-.627.627h-4.984a.627.627 0 010-1.254h3.47l-5.136-5.136a.627.627 0 010-.886zm0-5.447a.627.627 0 00.887 0l5.136-5.136v3.471a.627.627 0 101.254 0V.627A.627.627 0 0019.373 0h-4.984a.627.627 0 000 1.254h3.47L12.724 6.39a.627.627 0 000 .886zm-5.447 0a.627.627 0 01-.886 0L1.254 2.14v3.471a.627.627 0 01-1.254 0V.627A.627.627 0 01.627 0h4.984a.627.627 0 010 1.254h-3.47L7.275 6.39a.627.627 0 010 .886z" fill="#747474"/></svg><svg width="16" height="16" fill="none" viewBox="0 0 16 16" id="contacts" x="109" y="71" xmlns="http://www.w3.org/2000/svg"><path d="M5.863 6.135l-.499.037c.019.247.162.456.26.587.108.142.252.305.403.475l.022.025.001.001.029.033h0l.002.002c.68.767.888.981 1.153 1.254l.02.02h0l.005.006.064.065.002.002a6 6 0 00.082.084l.073.077h0l.003.003.002.002c.318.33.5.52 1.301 1.213l.044.04h0l.01.008c.136.118.263.226.373.303a.862.862 0 00.492.174c.149 0 .288-.045.391-.085a3.05 3.05 0 00.346-.166c.232-.127.507-.3.793-.482l.002-.001a.797.797 0 01.44-.107c.454 0 1.106.247 1.77.625.65.369 1.219.809 1.496 1.092.321.33.51.615.55.913.036.278-.045.691-.56 1.31a6.042 6.042 0 01-1.644 1.388c-.57.321-1.085.467-1.45.467-.875 0-2.247-.56-3.764-1.653-1.37-.987-1.963-1.428-3.329-2.823-1.447-1.48-2.35-2.7-3.356-4.534h0C.816 5.444.589 4.705.522 4.157c-.064-.537.02-.923.133-1.285l-.478-.148m5.686 3.41l-.499.038c-.017-.236.078-.458.172-.632.102-.19.254-.415.451-.682l.001-.001c.328-.441.384-1.012.007-1.806-.313-.65-.832-1.288-1.335-1.9l-.042-.05-.003-.004h0C4.262.667 3.899.5 3.526.5c-.448 0-.842.244-1.122.423l-.006.005-.003.001-.008.006h0a1.548 1.548 0 01-.055.036c-.24.153-.631.518-.998.937-.179.204-.34.409-.465.589a1.72 1.72 0 00-.214.375l-.478-.148m5.686 3.41c-.013-.173.14-.454.526-.979l.035 1.773-.015-.016c-.322-.364-.533-.602-.546-.777zM.177 2.725c-.248.802-.413 1.843.775 4.006L2.134.503a.57.57 0 00-.033.022c-.01.007-.021.015-.032.021C1.464.928.343 2.191.177 2.724z" stroke="#A69888"/></svg><svg width="22" height="23" fill="none" viewBox="0 0 22 23" id="linear-dimensions" x="24" y="28" xmlns="http://www.w3.org/2000/svg"><path d="M20.852 7.647l-1.5-1.5-4.997-5a.5.5 0 00-.71 0l-4.998 5-1.5 1.5a.5.5 0 00.163.819.5.5 0 00.548-.11l.644-.65V14.5a.5.5 0 00.5.5h9.996a.5.5 0 00.5-.5V7.707l.644.65a.5.5 0 00.82-.163.501.501 0 00-.11-.547zM18.498 14H9.502V6.707L14 2.207l4.498 4.5V14z" fill="#747474"/><path d="M1 3.333L3.5 1m0 0L6 3.333M3.5 1v14m0 0L6 12.667M3.5 15L1 12.667M18.667 17L21 19.5m0 0L18.667 22M21 19.5H7m0 0L9.333 22M7 19.5L9.333 17" stroke="#858585" stroke-linecap="round" stroke-linejoin="round"/></svg><svg width="20" height="19" fill="none" viewBox="0 0 20 19" id="mail" x="39" y="73" xmlns="http://www.w3.org/2000/svg"><path d="M17 3H3a1 1 0 00-1 1v10a1 1 0 001 1h14a1 1 0 001-1V4a1 1 0 00-1-1zm-.77 11H3.83l3.5-3.62-.72-.695L3 13.42V4.76l6.215 6.185a1 1 0 001.41 0L17 4.605v8.75l-3.68-3.68-.705.705L16.23 14zM3.655 4H16.19l-6.27 6.235L3.655 4z" fill="#B1A597"/></svg><svg width="13" height="18" fill="none" viewBox="0 0 13 18" id="map" x="93" y="18" xmlns="http://www.w3.org/2000/svg"><path d="M6.5 2a3.5 3.5 0 100 7 3.5 3.5 0 000-7zm0 5.778A2.278 2.278 0 118.778 5.5 2.278 2.278 0 016.5 7.772v.006z" fill="#B1A597"/><path d="M6.497 0a6.496 6.496 0 00-4.583 1.899A6.522 6.522 0 000 6.483c0 2.58 1.445 4.741 2.504 6.317l.193.287a55.035 55.035 0 003.387 4.421l.419.492.419-.492a55.133 55.133 0 003.386-4.421l.194-.293C11.555 11.219 13 9.064 13 6.483a6.522 6.522 0 00-1.916-4.586A6.496 6.496 0 006.497 0zM9.58 12.158l-.198.293a44.917 44.917 0 01-2.885 3.814c-.65-.79-1.936-2.388-2.884-3.814l-.193-.293C2.443 10.7 1.103 8.704 1.103 6.461a5.414 5.414 0 011.58-3.822 5.393 5.393 0 013.814-1.583 5.385 5.385 0 013.815 1.583 5.406 5.406 0 011.58 3.822c0 2.265-1.335 4.26-2.312 5.697z" fill="#B1A597"/></svg><svg width="28" height="28" fill="none" viewBox="0 0 28 28" id="projects" xmlns="http://www.w3.org/2000/svg"><path d="M16 17h-4v5h4v-5zM4 14l10-8 10 8" stroke="#A69888" stroke-width="2" stroke-miterlimit="10" stroke-linecap="round" stroke-linejoin="round"/><path d="M21 15.835V22H6V7" stroke="#A69888" stroke-width="2" stroke-miterlimit="10" stroke-linecap="round" stroke-linejoin="round"/></svg><svg width="16" height="16" fill="none" viewBox="0 0 16 16" id="sale-arrow" x="93" y="36" xmlns="http://www.w3.org/2000/svg"><path d="M1.518 14.957l13-13m0 0v10.834m0-10.833H3.684" stroke="#B6B6B6" stroke-width="2" stroke-linecap="round" stroke-linejoin="round"/></svg><svg width="24" height="24" fill="none" viewBox="0 0 24 24" id="size" y="28" xmlns="http://www.w3.org/2000/svg"><path d="M23.143 7H.857a.87.87 0 00-.606.244.822.822 0 00-.251.59v8.333c0 .22.09.433.251.589A.87.87 0 00.857 17h22.286a.87.87 0 00.606-.244.822.822 0 00.251-.59V7.834a.822.822 0 00-.251-.589.87.87 0 00-.606-.244zm-.857 8.333H1.714V8.667h3.429V12h1.714V8.667h4.286V12h1.714V8.667h4.286V12h1.714V8.667h3.429v6.666z" fill="#747474"/></svg><svg width="25" height="23" fill="none" viewBox="0 0 25 23" id="square" x="28" xmlns="http://www.w3.org/2000/svg"><path d="M21.553 22H1V11m0-4.75V1h20.553v17m0 0L24 15.5M21.553 18l-2.447-2.5" stroke="#747474"/><path d="M11.278 13.162l.1-1.288h-.063l-.493 1.065-1.16 1.921h-.579l-1.27-1.92-.469-1.066H7.27l.16 1.276V16H6V9.804h1.665l1.418 2.33.346.78h.049l.357-.805 1.308-2.305h1.677V16h-1.542v-2.838zM17.803 7.574c0 .487-.124.904-.37 1.251a6.198 6.198 0 01-.888.992l-.58.31v.049l.728-.136H18v1.251h-3.86v-.88c.214-.148.452-.322.715-.52.263-.198.506-.409.728-.632.23-.231.42-.467.567-.706.156-.24.234-.467.234-.682 0-.405-.23-.607-.69-.607a1.77 1.77 0 00-.63.111c-.197.067-.37.145-.517.236l-.42-1.115c.288-.174.592-.298.913-.372A3.85 3.85 0 0115.977 6c.584 0 1.032.136 1.345.409.32.264.48.653.48 1.165z" fill="#747474"/></svg><svg width="21" height="21" viewBox="0 0 21 21" id="summer" y="52" xmlns="http://www.w3.org/2000/svg"><path d="M9.75 1.35a.6.6 0 01.6-.6h.3a.6.6 0 01.6.6v1.8a.6.6 0 01-.6.6h-.3a.6.6 0 01-.6-.6v-1.8z" fill="#8C8C8C"/><path fill-rule="evenodd" clip-rule="evenodd" d="M10.5 15.75a5.25 5.25 0 100-10.5 5.25 5.25 0 000 10.5zm0-1.5a3.75 3.75 0 100-7.5 3.75 3.75 0 000 7.5z" fill="#8C8C8C"/><path d="M3.75 10.35a.6.6 0 00-.6-.6h-1.8a.6.6 0 00-.6.6v.3a.6.6 0 00.6.6h1.8a.6.6 0 00.6-.6v-.3zM19.65 9.75a.6.6 0 01.6.6v.3a.6.6 0 01-.6.6h-1.8a.6.6 0 01-.6-.6v-.3a.688.688 0 01.038-.215.603.603 0 01.563-.385h1.798zM17.23 3.52a.601.601 0 00-.849 0l-1.27 1.27a.6.6 0 00-.167.329.594.594 0 00.126.475l.041.044.212.213a.6.6 0 00.849 0l1.27-1.27a.59.59 0 00.172-.486.608.608 0 00-.172-.363l-.211-.212zM4.789 5.85a.601.601 0 00.85 0l.21-.212a.599.599 0 000-.848L4.576 3.517a.6.6 0 00-.848 0l-.212.211a.598.598 0 000 .85L4.789 5.85zM5.823 14.936a.601.601 0 00-.85 0l-1.27 1.272a.6.6 0 000 .85l.212.212a.6.6 0 00.848 0l1.271-1.273a.6.6 0 000-.849l-.21-.212zM16.544 17.48a.601.601 0 00.563-.16l.21-.212a.597.597 0 000-.848l-1.273-1.273a.597.597 0 00-.848 0l-.212.211a.6.6 0 000 .85l1.273 1.272a.604.604 0 00.287.16zM9.904 17.448a.603.603 0 00-.154.402v1.8a.6.6 0 00.6.6h.3a.6.6 0 00.6-.6v-1.8a.6.6 0 00-.6-.6h-.3a.6.6 0 00-.446.198z" fill="#8C8C8C"/></svg><svg width="22" height="22" fill="none" viewBox="0 0 22 22" id="summer-red" x="53" xmlns="http://www.w3.org/2000/svg"><path d="M10.214 1.414c0-.347.28-.628.63-.628h.312c.348 0 .63.281.63.628V3.3c0 .347-.281.629-.63.629h-.313a.628.628 0 01-.63-.629V1.414z" fill="#D93C6C"/><path fill-rule="evenodd" clip-rule="evenodd" d="M11 16.5a5.5 5.5 0 100-11 5.5 5.5 0 000 11zm0-1.571a3.928 3.928 0 100-7.857 3.928 3.928 0 000 7.857z" fill="#D93C6C"/><path d="M3.929 10.843a.628.628 0 00-.63-.629H1.416a.628.628 0 00-.629.629v.314c0 .347.281.629.63.629H3.3c.348 0 .629-.282.629-.629v-.314zM20.585 10.214c.348 0 .63.282.63.629v.314c0 .347-.282.629-.63.629H18.7a.628.628 0 01-.63-.629v-.314a.713.713 0 01.04-.225.631.631 0 01.59-.404h1.884zM18.051 3.687a.63.63 0 00-.89 0l-1.33 1.331a.628.628 0 00-.175.345.62.62 0 00.131.498l.043.046.223.222a.628.628 0 00.889 0l1.33-1.33a.617.617 0 00.181-.509.637.637 0 00-.181-.38l-.221-.223zM5.017 6.128a.63.63 0 00.89 0l.22-.222a.627.627 0 000-.889L4.795 3.684a.628.628 0 00-.888 0l-.223.221a.627.627 0 000 .89l1.334 1.333zM6.1 15.648a.63.63 0 00-.89 0L3.878 16.98a.629.629 0 000 .89l.222.222a.63.63 0 00.889 0L6.32 16.76a.628.628 0 000-.889l-.221-.222zM17.332 18.313a.628.628 0 00.59-.167l.22-.223a.625.625 0 000-.889l-1.334-1.333a.626.626 0 00-.889 0l-.222.221a.628.628 0 000 .89l1.334 1.333c.086.085.19.142.3.168zM10.375 18.279a.63.63 0 00-.161.42v1.887c0 .347.28.628.63.628h.312a.628.628 0 00.63-.628V18.7a.628.628 0 00-.63-.629h-.313a.63.63 0 00-.468.207z" fill="#D93C6C"/></svg><svg width="21" height="21" fill="none" viewBox="0 0 21 21" id="summer-white" x="21" y="52" xmlns="http://www.w3.org/2000/svg"><path d="M9.75 1.35a.6.6 0 01.6-.6h.3a.6.6 0 01.6.6v1.8a.6.6 0 01-.6.6h-.3a.6.6 0 01-.6-.6v-1.8z" fill="#fff"/><path fill-rule="evenodd" clip-rule="evenodd" d="M10.5 15.75a5.25 5.25 0 100-10.5 5.25 5.25 0 000 10.5zm0-1.5a3.75 3.75 0 100-7.5 3.75 3.75 0 000 7.5z" fill="#fff"/><path d="M3.75 10.35a.6.6 0 00-.6-.6h-1.8a.6.6 0 00-.6.6v.3a.6.6 0 00.6.6h1.8a.6.6 0 00.6-.6v-.3zM19.65 9.75a.6.6 0 01.6.6v.3a.6.6 0 01-.6.6h-1.8a.6.6 0 01-.6-.6v-.3a.688.688 0 01.038-.215.603.603 0 01.563-.385h1.798zM17.23 3.52a.601.601 0 00-.849 0l-1.27 1.27a.6.6 0 00-.167.329.594.594 0 00.126.475l.041.044.212.213a.6.6 0 00.849 0l1.27-1.27a.59.59 0 00.172-.486.608.608 0 00-.172-.363l-.211-.212zM4.789 5.85a.601.601 0 00.85 0l.21-.212a.599.599 0 000-.848L4.576 3.517a.6.6 0 00-.848 0l-.212.211a.598.598 0 000 .85L4.789 5.85zM5.823 14.936a.601.601 0 00-.85 0l-1.27 1.272a.6.6 0 000 .85l.212.212a.6.6 0 00.848 0l1.271-1.273a.6.6 0 000-.849l-.21-.212zM16.544 17.48a.601.601 0 00.563-.16l.21-.212a.597.597 0 000-.848l-1.273-1.273a.597.597 0 00-.848 0l-.212.211a.6.6 0 000 .85l1.273 1.272a.604.604 0 00.287.16zM9.904 17.448a.603.603 0 00-.154.402v1.8a.6.6 0 00.6.6h.3a.6.6 0 00.6-.6v-1.8a.6.6 0 00-.6-.6h-.3a.6.6 0 00-.446.198z" fill="#fff"/></svg><svg width="17" height="18" fill="none" viewBox="0 0 17 18" id="team" x="109" xmlns="http://www.w3.org/2000/svg"><path d="M15.32 6.993v-.146a6.859 6.859 0 00-1.31-4.058A6.767 6.767 0 0010.562.31h-.05A7.025 7.025 0 008.307.001a6.961 6.961 0 00-4.676 2.176 7.074 7.074 0 00-1.926 4.816c-.5.177-.93.506-1.236.94a2.588 2.588 0 000 2.976c.305.434.737.763 1.236.94a6.882 6.882 0 002.227 4.399A6.775 6.775 0 008.513 18h.195a6.89 6.89 0 004.383-1.865 6.995 6.995 0 002.152-4.278 2.553 2.553 0 001.26-.919 2.587 2.587 0 00.047-2.986 2.556 2.556 0 00-1.23-.959zm-6.654 9.291a5.079 5.079 0 01-3.387-1.167 5.156 5.156 0 01-1.795-3.122h10.015a5.236 5.236 0 01-1.676 2.993 5.16 5.16 0 01-3.157 1.296zm5.803-6.005H2.556a.847.847 0 01-.601-.251.861.861 0 010-1.214.847.847 0 01.601-.25h1.702c.226 0 .442-.091.602-.252a.862.862 0 000-1.213.847.847 0 00-.602-.252h-.85c.037-.89.29-1.757.734-2.527A5.47 5.47 0 015.96 2.43v2.702c0 .227.09.445.25.606a.847.847 0 001.202 0c.16-.16.25-.379.25-.606V1.777c.23-.039.464-.064.697-.077h.154c.285.004.57.03.85.077v3.355c0 .227.09.445.25.606a.847.847 0 001.203 0c.16-.16.25-.379.25-.606V2.403c.36.211.697.462 1.003.747.49.48.88 1.055 1.147 1.69.266.635.402 1.318.402 2.007h-.851a.847.847 0 00-.602.252.861.861 0 000 1.213c.16.16.376.251.602.251h1.702c.225 0 .442.09.601.251a.861.861 0 010 1.214.847.847 0 01-.601.25z" fill="#A69888"/></svg><svg width="21" height="21" fill="none" viewBox="0 0 21 21" id="time" x="42" y="52" xmlns="http://www.w3.org/2000/svg"><path d="M10.5 21C4.723 21 0 16.277 0 10.5S4.723 0 10.5 0 21 4.723 21 10.5c.046 5.777-4.677 10.5-10.5 10.5zm0-19.9c-5.181 0-9.354 4.219-9.354 9.354 0 5.135 4.219 9.354 9.354 9.354 5.135 0 9.353-4.219 9.353-9.354 0-5.135-4.172-9.354-9.353-9.354z" fill="#747474"/><path d="M14.086 16L10 12.104V5h1.298v6.6L15 15.13l-.914.87z" fill="#747474"/></svg><svg width="16" height="18" fill="none" viewBox="0 0 16 18" id="winter" x="109" y="18" xmlns="http://www.w3.org/2000/svg"><path d="M15.248 12.554l-2.136-1.225 1.856-.816a.514.514 0 00.264-.675.524.524 0 00-.675-.264l-2.552 1.12L9.031 8.99l2.96-1.709 2.58 1.124a.517.517 0 00.674-.267.513.513 0 00-.266-.674l-1.884-.82 2.146-1.24a.508.508 0 00.187-.7.528.528 0 00-.7-.187l-2.132 1.23.228-2.014a.51.51 0 00-.45-.568.51.51 0 00-.568.453l-.29 2.768-2.954 1.719V4.69l2.236-1.671a.489.489 0 00.195-.324.533.533 0 00-.1-.393.5.5 0 00-.699-.107L8.562 3.413V.94c0-.302-.297-.512-.564-.512-.265 0-.56.21-.56.512v2.46L5.83 2.194a.508.508 0 00-.705.108.54.54 0 00-.101.399c.02.129.087.241.19.316l2.223 1.657v3.427L4.527 6.42l-.31-2.77a.51.51 0 00-.562-.45.516.516 0 00-.449.57l.237 2.015L1.26 4.534a.513.513 0 00-.698.19.516.516 0 00.19.7l2.196 1.26-1.881.825a.508.508 0 00-.263.675.52.52 0 00.675.264l2.576-1.13 2.92 1.674-2.927 1.69-2.553-1.113a.522.522 0 00-.675.265.514.514 0 00.266.676l1.858.809-2.179 1.258a.516.516 0 00-.186.7.515.515 0 00.7.187l2.193-1.266-.233 2.044a.51.51 0 00.512.569c.26 0 .479-.195.508-.456l.294-2.795 2.884-1.678v3.405l-1.98 1.657a.514.514 0 00-.056.719.519.519 0 00.402.188c.142 0 .237-.061.308-.118l1.326-1.112v2.44c0 .302.296.512.561.512.267 0 .564-.21.564-.512v-2.457l1.347 1.132c.224.18.528.137.7-.07a.544.544 0 00.128-.364.477.477 0 00-.173-.358L8.562 13.27V9.874l2.945 1.702.313 2.795a.51.51 0 00.558.449.51.51 0 00.45-.568l-.239-2.041 2.149 1.232a.51.51 0 00.699-.19.514.514 0 00-.19-.7z" fill="#8C8C8C"/></svg><svg width="16" height="18" fill="none" viewBox="0 0 16 18" id="winter-red" x="109" y="36" xmlns="http://www.w3.org/2000/svg"><path d="M15.248 12.554l-2.136-1.225 1.856-.816a.514.514 0 00.264-.675.524.524 0 00-.675-.264l-2.552 1.12L9.031 8.99l2.96-1.709 2.58 1.124a.517.517 0 00.674-.267.513.513 0 00-.266-.674l-1.884-.82 2.146-1.24a.508.508 0 00.187-.7.528.528 0 00-.7-.187l-2.132 1.23.228-2.014a.51.51 0 00-.45-.568.51.51 0 00-.568.453l-.29 2.768-2.954 1.719V4.69l2.236-1.671a.489.489 0 00.195-.324.533.533 0 00-.1-.393.5.5 0 00-.699-.107L8.562 3.413V.94c0-.302-.297-.512-.564-.512-.265 0-.56.21-.56.512v2.46L5.83 2.194a.508.508 0 00-.705.108.54.54 0 00-.101.399c.02.129.087.241.19.316l2.223 1.657v3.427L4.527 6.42l-.31-2.77a.51.51 0 00-.562-.45.516.516 0 00-.449.57l.237 2.015L1.26 4.534a.513.513 0 00-.698.19.516.516 0 00.19.7l2.196 1.26-1.881.825a.508.508 0 00-.263.675.52.52 0 00.675.264l2.576-1.13 2.92 1.674-2.927 1.69-2.553-1.113a.522.522 0 00-.675.265.514.514 0 00.266.676l1.858.809-2.179 1.258a.516.516 0 00-.186.7.515.515 0 00.7.187l2.193-1.266-.233 2.044a.51.51 0 00.512.569c.26 0 .479-.195.508-.456l.294-2.795 2.884-1.678v3.405l-1.98 1.657a.514.514 0 00-.056.719.519.519 0 00.402.188c.142 0 .237-.061.308-.118l1.326-1.112v2.44c0 .302.296.512.561.512.267 0 .564-.21.564-.512v-2.457l1.347 1.132c.224.18.528.137.7-.07a.544.544 0 00.128-.364.477.477 0 00-.173-.358L8.562 13.27V9.874l2.945 1.702.313 2.795a.51.51 0 00.558.449.51.51 0 00.45-.568l-.239-2.041 2.149 1.232a.51.51 0 00.699-.19.514.514 0 00-.19-.7z" fill="#D93C6C"/></svg><svg width="15" height="17" fill="none" viewBox="0 0 15 17" id="winter-white" x="109" y="54" xmlns="http://www.w3.org/2000/svg"><path d="M14.744 12.024l-2.135-1.214 1.855-.81a.508.508 0 00.264-.67.526.526 0 00-.675-.26l-2.55 1.11L8.53 8.49l2.96-1.695 2.578 1.114a.519.519 0 00.672-.264.507.507 0 00-.265-.668l-1.883-.814 2.145-1.229a.504.504 0 00.187-.694.53.53 0 00-.7-.186l-2.13 1.22.228-1.997a.507.507 0 00-.45-.563.508.508 0 00-.568.45l-.29 2.743-2.952 1.704V4.227l2.235-1.656a.484.484 0 00.194-.32.526.526 0 00-.099-.39.502.502 0 00-.699-.107L8.063 2.96V.508c0-.3-.298-.508-.565-.508-.265 0-.56.209-.56.508v2.438L5.33 1.754a.51.51 0 00-.703.106.532.532 0 00-.102.396c.02.127.087.239.19.314l2.222 1.642V7.61L4.029 5.943l-.31-2.746a.507.507 0 10-1.01.118l.237 1.998L.765 4.072a.516.516 0 00-.698.189.51.51 0 00.19.693l2.195 1.249-1.88.82a.505.505 0 00-.263.668.52.52 0 00.674.262l2.574-1.121 2.919 1.66-2.925 1.675L1 9.064a.523.523 0 00-.674.263.508.508 0 00.265.67l1.857.802L.27 12.047a.509.509 0 10.513.88l2.192-1.256-.232 2.026a.506.506 0 00.511.564.51.51 0 00.508-.451l.293-2.772 2.883-1.663v3.376l-1.98 1.643a.506.506 0 00-.055.712.52.52 0 00.402.186c.141 0 .236-.06.307-.116l1.326-1.103v2.42c0 .298.295.507.56.507.267 0 .564-.209.564-.508v-2.435l1.346 1.121c.224.18.527.137.7-.07a.537.537 0 00.127-.36.472.472 0 00-.172-.355l-2-1.659V9.367l2.943 1.687.312 2.772a.508.508 0 001.007-.119l-.238-2.023 2.147 1.221a.513.513 0 00.699-.188.508.508 0 00-.19-.693z" fill="#fff"/></svg><svg width="20" height="19" fill="none" viewBox="0 0 20 19" id="works" x="59" y="73" xmlns="http://www.w3.org/2000/svg"><path d="M13.23 16.623L4.737 7.99a.158.158 0 01-.198.03.352.352 0 00-.137-.038.78.78 0 00-.133 0c-1.237.175-2.5 1.638-2.705 3.215 0 0-1.64-1.763.673-5.364a.214.214 0 00-.022-.262.185.185 0 010-.25l1.792-1.888a.16.16 0 01.233 0 .316.316 0 00.46 0l.371-.39a.359.359 0 000-.486l-.118-.125 1.15-1.213a.676.676 0 01.997 0l1.532 1.615a.767.767 0 010 1.05l-1.15 1.213-.145-.151a.24.24 0 00-.352 0l-.482.508a.273.273 0 000 .371l9.11 8.477c.503.458.518 1.232.03 1.705l-.66.644a1.24 1.24 0 01-1.753-.028z" stroke="#A69888" stroke-miterlimit="10" stroke-linecap="round" stroke-linejoin="round"/><path d="M18.9 4.623l-2.149 2.17a.6.6 0 01-.634.14l-1.203-.454a.596.596 0 01-.35-.353l-.45-1.215a.615.615 0 01.138-.641l2.15-2.17a3.39 3.39 0 00-3.25.924 3.487 3.487 0 00-.764 3.645L11 8.071 13.065 10l1.307-1.32A3.396 3.396 0 0018 7.892a3.476 3.476 0 00.9-3.269zM3.39 15.758a1.3 1.3 0 000 1.857c.52.513 1.36.513 1.88 0L9 13.929 7.193 12 3.39 15.758z" stroke="#A69888" stroke-miterlimit="10" stroke-linecap="round" stroke-linejoin="round"/></svg></svg>