<svg width="42" height="55" viewBox="0 0 42 55" fill="none" xmlns="http://www.w3.org/2000/svg">
<path d="M37.4633 47.7946H30.6516H30.1598L29.8596 48.1841L26.1316 53.021L19.4965 37H32.6812L37.4633 47.7946Z" fill="#D93C6C" stroke="#394551" stroke-width="2"/>
<path d="M22.4979 37L15.7983 53.0212L12.0935 48.1864L11.7933 47.7946H11.2998H4.53311L9.28731 37H22.4979Z" fill="#D93C6C" stroke="#394551" stroke-width="2"/>
<path d="M1.70605 23.4542L1.70638 23.4536L0.829965 22.972L1.70587 23.4545M1.70605 23.4542L32.7698 36.4811L32.791 37.4808L32.7689 36.4811L32.7697 36.4811C31.0277 36.518 29.4262 37.4436 28.5228 38.9339C28.5227 38.9339 28.5227 38.934 28.5227 38.934L28.1744 39.5083L28.1737 39.5094C27.3164 40.9274 25.4931 41.4151 24.0414 40.6169L23.454 40.2936C21.9271 39.4525 20.0745 39.4524 18.5475 40.2934C18.5474 40.2935 18.5473 40.2935 18.5472 40.2936L17.9599 40.6169C16.5089 41.4147 14.6849 40.9257 13.8272 39.5089L13.8268 39.5083L13.4793 38.9353C13.4792 38.9351 13.4791 38.9348 13.4789 38.9346C12.5778 37.4435 10.9745 36.5166 9.23106 36.4811C9.23089 36.4811 9.23071 36.481 9.23054 36.481L8.56031 36.4663L8.55854 36.4662C6.90228 36.4326 5.56803 35.0984 5.53444 33.4421L5.5344 33.4403L5.51959 32.7692C5.51959 32.7691 5.51959 32.769 5.51959 32.7689C5.48261 31.027 4.55704 29.4256 3.06682 28.5221C3.06677 28.5221 3.06671 28.5221 3.06666 28.522L2.49241 28.1738L2.49125 28.1731C1.07331 27.3158 0.585598 25.4924 1.38383 24.0406L1.38396 24.0404L1.70587 23.4545M1.70605 23.4542C1.70599 23.4543 1.70593 23.4544 1.70587 23.4545M1.70605 23.4542L1.70587 23.4545M40.2904 23.4533L40.2926 23.4572L36.4779 9.23057L37.4777 9.20939L36.478 9.23144L36.4779 9.23085C36.5149 10.9728 37.4405 12.5742 38.9307 13.4776C38.9308 13.4776 38.9308 13.4777 38.9309 13.4777L39.5051 13.826L39.5063 13.8267C40.9242 14.684 41.4119 16.5073 40.6137 17.9591L40.2904 18.5464C39.4493 20.0735 39.4493 21.9263 40.2904 23.4533ZM32.767 5.51869L32.7873 4.51889L32.7652 5.51865L32.7661 5.51867C32.7664 5.51868 32.7667 5.51868 32.767 5.51869ZM28.5186 3.06516L28.5191 3.06587L29.3741 2.54733L28.5182 3.06441C28.5183 3.06466 28.5185 3.06491 28.5186 3.06516ZM24.0377 1.38286L24.038 1.38264L23.5559 0.506627L24.0377 1.38286ZM17.9574 1.38409L17.9576 1.38423L9.23049 5.5199C10.9725 5.4829 12.5739 4.55725 13.4773 3.06694L13.8256 2.49268L13.8261 2.49178C14.6837 1.07429 16.5062 0.58614 17.9574 1.38409ZM9.20903 4.52013L9.23021 5.5199L9.20903 4.52013ZM5.51838 9.2309L4.51858 9.21062L5.51834 9.23268L5.51836 9.23179C5.51836 9.23149 5.51837 9.2312 5.51838 9.2309ZM3.06492 13.4793L3.06559 13.4789L2.54704 12.6238L3.06413 13.4797C3.06439 13.4796 3.06465 13.4794 3.06492 13.4793ZM1.38259 17.9603L1.38238 17.9599L0.506315 18.4421L1.38259 17.9603ZM1.70603 18.548L1.70587 18.5477L0.829965 19.0302L1.70603 18.548ZM36.4816 32.7701L37.4814 32.7903L36.4817 32.7683L36.4816 32.7696C36.4816 32.7697 36.4816 32.7699 36.4816 32.7701ZM38.9344 28.5221L39.453 29.3772L38.9359 28.5212L38.9344 28.5221ZM22.9678 0.830237L23.45 1.7063C23.4501 1.70624 23.4502 1.70619 23.4503 1.70613L22.9678 0.830237ZM18.5435 1.70617L18.5444 1.70665L19.026 0.830237L18.5435 1.70613C18.5435 1.70615 18.5435 1.70616 18.5435 1.70617ZM40.62 24.0452L41.4937 23.5588L40.6174 24.0406C40.6178 24.0413 40.6182 24.042 40.6186 24.0427L40.62 24.0452Z" fill="#F5F0EC" stroke="#394551" stroke-width="2"/>
<path d="M35 21C35 28.732 28.732 35 21 35C13.268 35 7 28.732 7 21C7 13.268 13.268 7 21 7C28.732 7 35 13.268 35 21Z" stroke="#394551" stroke-width="2"/>
<path d="M20.5809 25.9943L29.1982 16.4238L29.5979 16.7949L19.908 27.5566L15.4033 23.1531L15.7789 22.7569L19.1388 26.0404L19.8838 26.7684L20.5809 25.9943Z" fill="#D93C6C" stroke="#394551" stroke-width="2"/>
</svg>
