<svg width="65" height="62" viewBox="0 0 65 62" fill="none" xmlns="http://www.w3.org/2000/svg">
<path d="M15.0446 30H22.6688C22.6688 34.0278 15.0446 33.625 15.0446 30Z" fill="#D93C6C"/>
<path d="M13.0382 20.9306H24.6752L22.6688 23.75V29.7917H15.0446V23.75L13.0382 20.9306Z" fill="#D93C6C"/>
<path d="M48.3503 52.75L52.7643 49.9306V52.75V57.9861V60L48.3503 57.9861V52.75Z" fill="#D93C6C"/>
<path d="M28.2866 44.2917H19.0573V40.6667V37.0417M46.3439 55.1667H6.21656V27.7778H1V23.75L7.82166 18.9167M28.2866 5.22222L32.7006 2L64 23.75V27.7778H58.7834V44.2917H44.7389M13.0382 18.1111C9.02548 13.6806 10.6306 4.01389 19.0573 4.01389C27.4841 4.01389 29.0892 14.0833 24.6752 18.1111M36.7134 37.0417V44.2917M33.9045 39.4583C30.6943 40.6667 30.293 48.3194 36.7134 48.3194C43.1338 48.3194 42.3312 40.2639 39.5223 39.4583M52.7643 52.75V49.9306L48.3503 52.75V57.9861L52.7643 60V57.9861M52.7643 52.75H57.9809M52.7643 52.75V57.9861M52.7643 57.9861H57.9809M13.0382 20.9306H24.6752L22.6688 23.75V29.7917H15.0446V23.75L13.0382 20.9306ZM15.0446 30H22.6688C22.6688 34.0278 15.0446 33.625 15.0446 30Z" stroke="#394551" stroke-width="2"/>
</svg>
