<svg width="76" height="60" viewBox="0 0 76 60" fill="none" xmlns="http://www.w3.org/2000/svg">
<path d="M6.01351 24.2766V53H48.9865V24.2766M6.01351 24.2766L27.5 3L40.0338 15.4113M6.01351 24.2766L1 29.2411M54 29.2411L48.9865 24.2766M48.9865 24.2766L46.4797 21.7943M40.0338 15.4113V5.12766H46.4797V21.7943M40.0338 15.4113L46.4797 21.7943" stroke="#394551" stroke-width="2"/>
<g clip-path="url(#clip0_17_729)">
<path d="M51 44.0763L64.7143 58L75 48.1069L61.1053 34L54.7895 34L51 37.6641L51 44.0763Z" fill="#D93C6C" stroke="#394551" stroke-width="2"/>
<circle cx="56" cy="39" r="1.5" transform="rotate(-90 56 39)" fill="#F5F0EC" stroke="#394551"/>
<path d="M57 39.5C56.0556 39.1227 53.9 38.5945 52.8333 39.5C51.7667 40.4055 49.8333 39.8773 49 39.5" stroke="#394551" stroke-width="2" stroke-linecap="round" stroke-linejoin="round"/>
<g clip-path="url(#clip1_17_729)">
<path fill-rule="evenodd" clip-rule="evenodd" d="M61.6438 48.4597L64.7022 45.4013C65.0279 45.0757 65.5728 45.0875 65.9128 45.4275L68.6953 48.21C69.0353 48.5501 69.0472 49.095 68.7215 49.4206L65.6631 52.4791C65.3375 52.8047 64.7927 52.7927 64.4526 52.4526L61.6702 49.6702C61.3301 49.3301 61.3181 48.7854 61.6438 48.4597ZM60.0203 43.9797L60.2718 43.7282C60.9882 43.0118 62.1865 43.0378 62.9346 43.7859L64.2465 45.0977L63.7383 45.6059L62.4265 44.2941C61.9712 43.8388 61.2385 43.8229 60.8025 44.2589L60.551 44.5104C60.1151 44.9463 60.131 45.6791 60.5862 46.1343L61.8981 47.4462L61.39 47.9542L60.0782 46.6424C59.3301 45.8942 59.3039 44.6961 60.0203 43.9797ZM64.5266 48.2839C64.8186 47.9919 65.3028 48.0024 65.6078 48.3074C65.8397 48.5392 65.9015 48.8745 65.7895 49.1503L66.5755 49.9362L66.1789 50.3329L65.3929 49.5469C65.1172 49.6588 64.7819 49.597 64.55 49.3652C64.245 49.0602 64.2344 48.5762 64.5266 48.2839Z" fill="#F5F0EC"/>
</g>
</g>
<path d="M24 26H14V35H24V26Z" stroke="#394551" stroke-width="2"/>
<path d="M24 39H14V48H24V39Z" stroke="#394551" stroke-width="2"/>
<path d="M40 26H30V35H40V26Z" stroke="#394551" stroke-width="2"/>
<path d="M40 39H30V48H40V39Z" stroke="#394551" stroke-width="2"/>
<defs>
<clipPath id="clip0_17_729">
<rect width="29" height="29" fill="white" transform="translate(47 59) rotate(-90)"/>
</clipPath>
<clipPath id="clip1_17_729">
<rect width="6" height="10" fill="white" transform="translate(58 46) rotate(-45)"/>
</clipPath>
</defs>
</svg>
