<svg width="55" height="57" viewBox="0 0 55 57" fill="none" xmlns="http://www.w3.org/2000/svg">
<path d="M28.8191 37.9061L28.8137 37.8934L28.808 37.8809C28.4401 37.0839 28.222 35.6723 28.1089 34.3345C28.0672 33.8404 28.0414 33.3799 28.0255 33H52.9745C52.9586 33.3799 52.9328 33.8404 52.8911 34.3345C52.778 35.6723 52.5599 37.0839 52.192 37.8809L52.1863 37.8934L52.1809 37.9061C51.8326 38.7187 51.3059 39.2124 50.6092 39.5252C49.876 39.8544 48.9133 40 47.7 40H33.3C32.0867 40 31.124 39.8544 30.3908 39.5252C29.6941 39.2124 29.1674 38.7187 28.8191 37.9061Z" stroke="#394551" stroke-width="2"/>
<path d="M52.8011 29.4897C52.9014 30.0087 53.0517 30.5034 53.2697 31H39V18.5C39 18.2864 39.0682 18.1818 39.1215 18.1301C39.1775 18.0757 39.3003 18 39.5455 18C39.6224 18 39.7607 18.0325 39.9491 18.137C40.1186 18.231 40.2716 18.3519 40.3746 18.4486C41.7225 19.9184 44.1039 20.6051 46.1377 20.0667L46.2915 20.026L46.4251 19.9396C46.5581 19.8535 46.751 19.8535 46.884 19.9396C47.013 20.023 47.101 20.1154 47.1512 20.1921C47.1971 20.262 47.1999 20.2993 47.2 20.3007V20.3732L47.2107 20.4456L48.2 20.3C47.2107 20.4456 47.2107 20.4461 47.2108 20.4466L47.211 20.4476L47.2113 20.45L47.2121 20.4555L47.2145 20.47C47.2163 20.4812 47.2187 20.4955 47.2218 20.5126C47.2279 20.5468 47.2368 20.5926 47.2489 20.6486C47.2731 20.7604 47.3106 20.9138 47.3665 21.0975C47.4778 21.4632 47.6651 21.9588 47.9723 22.4889C48.5924 23.559 49.7106 24.7781 51.6419 25.3136L51.8923 25.3831L52.1449 25.3218C52.2714 25.2911 52.4357 25.3294 52.5513 25.5317C52.5539 25.5416 52.5576 25.5575 52.562 25.5803C52.5748 25.6463 52.5855 25.7307 52.5934 25.823C52.6012 25.9131 52.6052 25.9977 52.6072 26.0603C52.6082 26.0912 52.6087 26.1156 52.6089 26.1315L52.6091 26.1483L52.6091 26.15V26.1502V26.1504V26.1507L52.6091 26.1511V26.1511L52.6091 26.2179C52.609 27.4367 52.609 28.4951 52.8011 29.4897Z" fill="#D93C6C" stroke="#394551" stroke-width="2"/>
<path d="M31.2166 39.5995L31.1807 39.5878L31.144 39.5788C30.6906 39.4676 30.2928 39.2784 29.9474 39H52.0526C51.7072 39.2784 51.3094 39.4676 50.856 39.5788L50.8193 39.5878L50.7834 39.5995C49.9608 39.8684 49.1479 40 48.3412 40H33.6588C32.8521 40 32.0392 39.8684 31.2166 39.5995Z" stroke="#394551" stroke-width="2"/>
<path d="M27.1611 25.8337L27.1611 25.8336L27.1565 25.829C26.9478 25.6228 26.9478 25.3657 27.1565 25.1595C27.371 24.9474 27.6501 24.9468 27.8649 25.1577C27.8655 25.1583 27.8662 25.1589 27.8668 25.1595L50.8389 48.1663L50.8389 48.1664L50.8435 48.171C51.0522 48.3772 51.0522 48.6343 50.8435 48.8405C50.8066 48.877 50.7398 48.9224 50.6497 48.958C50.6073 48.9748 50.5676 48.9862 50.535 48.993C50.504 48.9994 50.4879 49 50.4879 49C50.4879 49 50.488 49 50.4884 49C50.3768 49 50.3284 48.9828 50.3048 48.9724C50.2775 48.9604 50.2257 48.9316 50.1353 48.8425C50.1346 48.8419 50.1339 48.8412 50.1332 48.8405L27.1611 25.8337Z" fill="white" stroke="#394551" stroke-width="2"/>
<path d="M34.1495 49.2233L34.1562 49.2168L34.1627 49.2102L42.141 41.1516C42.355 40.9478 42.6377 40.9495 42.8505 41.1566L43.5479 40.44L42.8505 41.1566C43.0498 41.3507 43.0498 41.5827 42.8505 41.7767L42.8438 41.7832L42.8373 41.7898L34.8599 49.8474C34.8233 49.8816 34.7586 49.9242 34.6714 49.9581C34.6288 49.9747 34.5888 49.9861 34.5557 49.9929C34.526 49.9989 34.5094 49.9998 34.5069 50C34.5065 50 34.5065 50 34.5068 50C34.3941 50 34.3444 49.9828 34.32 49.9722C34.292 49.9601 34.2401 49.9315 34.1495 49.8434C33.9502 49.6493 33.9502 49.4173 34.1495 49.2233Z" fill="white" stroke="#394551" stroke-width="2"/>
<path d="M50.5 55C48.5023 55 47 53.4977 47 51.5C47 49.5023 48.5023 48 50.5 48C52.4977 48 54 49.5023 54 51.5C54 53.4977 52.4977 55 50.5 55Z" fill="white" stroke="#394551" stroke-width="2"/>
<path d="M33.5 55C31.5023 55 30 53.4977 30 51.5C30 49.5023 31.5023 48 33.5 48C35.4977 48 37 49.5023 37 51.5C37 53.4977 35.4977 55 33.5 55Z" fill="white" stroke="#394551" stroke-width="2"/>
<path d="M52 51.5C52 52.4 51.4 53 50.5 53C49.6 53 49 52.4 49 51.5C49 50.6 49.6 50 50.5 50C51.4 50 52 50.6 52 51.5Z" fill="#394551"/>
<path d="M35 51.5C35 52.4 34.4 53 33.5 53C32.6 53 32 52.4 32 51.5C32 50.6 32.6 50 33.5 50C34.4 50 35 50.6 35 51.5Z" fill="#394551"/>
<path d="M11 11C8.25228 11 6 8.74771 6 6C6 3.25228 8.25228 1 11 1C13.7477 1 16 3.25228 16 6C16 8.74771 13.7477 11 11 11Z" stroke="#394551" stroke-width="2"/>
<path d="M4.89378 38.1529L4.84386 37.7076L4.47827 37.4484L1 34.9831V24.75C1 19.2907 5.22434 15 10.5 15C15.7757 15 20 19.2907 20 24.75V34.966L16.5437 37.2797L16.1575 37.5383L16.1061 38.0002L14.105 56H6.89418L4.89378 38.1529Z" stroke="#394551" stroke-width="2"/>
<path d="M4.5 23.5164H1.04354C1.49993 18.3494 5.49136 15 10.5 15C15.5086 15 19.5001 18.3494 19.9565 23.5164H16.5H15.2197L15.5298 24.7586L19.9124 42.3164C19.8919 42.3385 19.8699 42.3616 19.8463 42.3858C19.5965 42.6416 19.1628 43.0139 18.4709 43.398C17.0903 44.1643 14.6392 45 10.5 45C6.36079 45 3.90969 44.1643 2.52908 43.398C1.83725 43.0139 1.40351 42.6416 1.15366 42.3858C1.13008 42.3616 1.10809 42.3385 1.08764 42.3164L5.47023 24.7586L5.78029 23.5164H4.5Z" fill="#D93C6C" stroke="#394551" stroke-width="2"/>
</svg>
