<svg width="48" height="60" viewBox="0 0 48 60" fill="none" xmlns="http://www.w3.org/2000/svg">
<path d="M3.62056 18.6931C-0.0977087 23.6555 0.574535 27.8788 2.94896 31.25C3.28983 31.734 3.98218 31.7635 4.39868 31.3428L11.1397 24.5347L21.5507 14.0198L24.4427 11.099L17.502 4.67327L3.62056 18.6931Z" fill="white"/>
<path d="M11.7181 43.2277L10.1151 41.6088C9.72378 41.2136 9.08519 41.2136 8.69388 41.6088L6.05238 44.2766C5.66652 44.6663 5.66652 45.2941 6.05238 45.6838L18.5266 58.2823C18.9179 58.6775 19.5565 58.6775 19.9478 58.2823L22.617 55.5864C22.9918 55.2079 23.0041 54.6021 22.645 54.2087L20.087 51.4059L11.7181 43.2277Z" fill="#D93C6C"/>
<path d="M3.62056 18.6931L2.90995 17.9895L2.86154 18.0384L2.82029 18.0934L3.62056 18.6931ZM17.502 4.67327L18.1813 3.93946L18.1745 3.93311L18.1675 3.92688L17.502 4.67327ZM24.4427 11.099L25.1533 10.3954L25.138 10.38L25.1221 10.3652L24.4427 11.099ZM11.1397 24.5347L10.4291 23.8311L11.1397 24.5347ZM11.7181 43.2277L11.0075 43.9313L11.0132 43.9372L11.0191 43.9429L11.7181 43.2277ZM41.663 49.4797L42.3929 48.7961L41.663 49.4797ZM43.1035 49.4997L42.3929 48.7961L43.1035 49.4997ZM41.9797 36.638L41.009 36.3977L41.9797 36.638ZM41.2502 33.8589L41.9777 33.1729L41.2502 33.8589ZM25.1488 50.435L25.3371 51.4171L25.1488 50.435ZM27.1437 49.8312L27.5316 50.7529L27.1437 49.8312ZM22.617 55.5864L21.9064 54.8828L22.617 55.5864ZM22.645 54.2087L21.9064 54.8828L22.645 54.2087ZM18.5266 58.2823L19.2372 57.5787L18.5266 58.2823ZM19.9478 58.2823L20.6584 58.9859L19.9478 58.2823ZM6.05238 44.2766L6.76299 44.9802L6.05238 44.2766ZM6.05238 45.6838L5.34178 46.3874L6.05238 45.6838ZM23.746 16.237L24.4567 15.5334L23.746 16.237ZM23.746 17.6442L24.4567 18.3478L23.746 17.6442ZM46.3034 46.2679L47.014 46.9715L46.3034 46.2679ZM46.3034 44.8608L45.5928 45.5644L46.3034 44.8608ZM13.321 26.7378L12.6104 27.4413L13.321 26.7378ZM14.7422 26.7378L14.0316 26.0342L14.7422 26.7378ZM10.1151 41.6088L9.40448 42.3124L10.1151 41.6088ZM21.2572 25.9994L20.5466 25.2958L21.2572 25.9994ZM26.6684 13.3469L25.9578 14.0505L26.6684 13.3469ZM14.899 40.015L15.6096 40.7186L14.899 40.015ZM15.4778 31.8364L16.1884 32.54L15.4778 31.8364ZM32.1783 24.2385L31.4507 24.9246L32.1783 24.2385ZM28.9331 23.4911L28.5789 22.556L28.9331 23.4911ZM15.6461 3.01845L14.9806 3.76483L15.6461 3.01845ZM25.2783 25.5244L25.8486 26.3458L25.2783 25.5244ZM27.2673 8.29862L26.5859 9.0306L27.2673 8.29862ZM32.2919 47.6647L31.904 46.743L32.2919 47.6647ZM33.7728 46.7033L34.4569 47.4327L33.7728 46.7033ZM2.94896 31.25L2.13139 31.8259L2.94896 31.25ZM3.76653 30.6742C2.66686 29.1129 2.00007 27.4114 2 25.5682C1.99993 23.7294 2.6633 21.6383 4.42083 19.2927L2.82029 18.0934C0.859548 20.7102 -9.08375e-05 23.212 -1.19209e-07 25.5683C9.05395e-05 27.9202 0.856632 30.016 2.13139 31.8259L3.76653 30.6742ZM4.33116 19.3967L18.2126 5.37686L16.7914 3.96968L2.90995 17.9895L4.33116 19.3967ZM18.1675 3.92688L16.3116 2.27206L14.9806 3.76483L16.8365 5.41965L18.1675 3.92688ZM19.9829 2.88443L26.5859 9.0306L27.9486 7.56664L21.3456 1.42048L19.9829 2.88443ZM27.379 12.6434L25.1533 10.3954L23.7321 11.8026L25.9578 14.0505L27.379 12.6434ZM10.4291 23.8311L3.68808 30.6392L5.10929 32.0464L11.8503 25.2382L10.4291 23.8311ZM10.4291 25.2382L12.6104 27.4413L14.0316 26.0342L11.8503 23.8311L10.4291 25.2382ZM23.7321 10.3954L20.8401 13.3162L22.2613 14.7234L25.1533 11.8026L23.7321 10.3954ZM20.8401 13.3162L10.4291 23.8311L11.8503 25.2382L22.2613 14.7234L20.8401 13.3162ZM24.4567 15.5334L22.2613 13.3162L20.8401 14.7234L23.0354 16.9406L24.4567 15.5334ZM15.4528 27.4413L17.0558 25.8224L15.6346 24.4152L14.0316 26.0342L15.4528 27.4413ZM15.6346 25.8224L18.5266 28.7432L19.9478 27.336L17.0558 24.4152L15.6346 25.8224ZM18.5266 27.336L14.7672 31.1328L16.1884 32.54L19.9478 28.7432L18.5266 27.336ZM14.1884 32.54V39.3115H16.1884V32.54H14.1884ZM14.1884 39.3115L11.0075 42.5241L12.4287 43.9313L15.6096 40.7186L14.1884 39.3115ZM12.4287 42.5241L10.8257 40.9052L9.40448 42.3124L11.0075 43.9313L12.4287 42.5241ZM7.98327 40.9052L5.34178 43.573L6.76299 44.9802L9.40448 42.3124L7.98327 40.9052ZM5.34178 46.3874L17.816 58.9859L19.2372 57.5787L6.76299 44.9802L5.34178 46.3874ZM20.6584 58.9859L23.3276 56.29L21.9064 54.8828L19.2372 57.5787L20.6584 58.9859ZM23.3836 53.5346L20.8256 50.7318L19.3483 52.0801L21.9064 54.8828L23.3836 53.5346ZM20.7859 50.6907L12.417 42.5125L11.0191 43.9429L19.388 52.1211L20.7859 50.6907ZM20.2753 52.388L25.3371 51.4171L24.9604 49.4529L19.8986 50.4238L20.2753 52.388ZM27.5316 50.7529L32.6797 48.5864L31.904 46.743L26.7558 48.9095L27.5316 50.7529ZM42.1868 39.9631L42.9504 36.8783L41.009 36.3977L40.2454 39.4825L42.1868 39.9631ZM41.9777 33.1729L32.9058 23.5524L31.4507 24.9246L40.5226 34.545L41.9777 33.1729ZM26.7643 23.2751L24.7079 24.703L25.8486 26.3458L27.905 24.9179L26.7643 23.2751ZM24.7079 24.703H21.9679V26.703H24.7079V24.703ZM20.5466 25.2958L18.5266 27.336L19.9478 28.7432L21.9679 26.703L20.5466 25.2958ZM34.4569 47.4327L37.273 44.7917L35.9049 43.3328L33.0888 45.9738L34.4569 47.4327ZM37.273 44.7917L41.9001 40.4522L40.532 38.9934L35.9049 43.3328L37.273 44.7917ZM35.8591 44.7458L40.9331 50.1633L42.3929 48.7961L37.3188 43.3786L35.8591 44.7458ZM43.8141 50.2033L47.014 46.9715L45.5928 45.5644L42.3929 48.7961L43.8141 50.2033ZM47.014 44.1572L41.9267 39.0192L40.5055 40.4264L45.5928 45.5644L47.014 44.1572ZM28.5789 22.556L26.9805 23.1614L27.6888 25.0317L29.2873 24.4263L28.5789 22.556ZM17.0558 25.8224L22.9923 19.8267L21.5711 18.4196L15.6346 24.4152L17.0558 25.8224ZM22.9923 19.8267L24.4567 18.3478L23.0354 16.9406L21.5711 18.4196L22.9923 19.8267ZM28.0361 23.3838L22.9832 18.4104L21.5802 19.8358L26.6332 24.8092L28.0361 23.3838ZM16.8226 5.40707L23.7633 11.8328L25.1221 10.3652L18.1813 3.93946L16.8226 5.40707ZM40.9331 50.1633C41.7084 50.9911 43.0161 51.0092 43.8141 50.2033L42.3929 48.7961L40.9331 50.1633ZM42.9504 36.8783C43.2771 35.5581 42.9108 34.1623 41.9777 33.1729L40.5226 34.545C40.9892 35.0397 41.1724 35.7376 41.009 36.3977L42.9504 36.8783ZM25.3371 51.4171C26.0898 51.2728 26.8252 51.0501 27.5316 50.7529L26.7558 48.9095C26.1779 49.1527 25.5762 49.3348 24.9604 49.4529L25.3371 51.4171ZM23.3276 56.29C24.0772 55.533 24.1018 54.3214 23.3836 53.5346L21.9064 54.8828H21.9064L23.3276 56.29ZM17.816 58.9859C18.5986 59.7763 19.8757 59.7763 20.6584 58.9859L19.2372 57.5787L17.816 58.9859ZM5.34178 43.573C4.57006 44.3524 4.57006 45.608 5.34178 46.3874L6.76299 44.9802H6.76299L5.34178 43.573ZM23.0354 16.9406L24.4567 18.3478C25.2284 17.5684 25.2284 16.3128 24.4567 15.5334L23.0354 16.9406ZM47.014 46.9715C47.7857 46.1921 47.7857 44.9366 47.014 44.1572L45.5928 45.5644L47.014 46.9715ZM12.6104 27.4413C13.393 28.2318 14.6702 28.2318 15.4528 27.4413L14.0316 26.0342L12.6104 27.4413ZM10.8257 40.9052C10.0431 40.1148 8.7659 40.1148 7.98327 40.9052L9.40448 42.3124L10.8257 40.9052ZM21.9679 24.703C21.434 24.703 20.9223 24.9164 20.5466 25.2958L21.9679 26.703V24.703ZM27.0217 12.6787C27.1026 12.5561 27.2757 12.539 27.379 12.6434L25.9578 14.0505C26.748 14.8486 28.0722 14.7177 28.6909 13.7805L27.0217 12.6787ZM14.1884 39.3115L15.6096 40.7186C15.9804 40.3442 16.1884 39.8385 16.1884 39.3115H14.1884ZM16.2897 2.59394C17.4386 1.82039 18.9691 1.94077 19.9829 2.88443L21.3456 1.42048C19.6511 -0.15678 17.093 -0.357989 15.1727 0.934948L16.2897 2.59394ZM14.7672 31.1328C14.3964 31.5073 14.1884 32.013 14.1884 32.54H16.1884H16.1884L14.7672 31.1328ZM32.9058 23.5524C31.7972 22.3768 30.0901 21.9836 28.5789 22.556L29.2873 24.4263C30.0429 24.1402 30.8964 24.3367 31.4507 24.9246L32.9058 23.5524ZM16.3116 2.27206C16.4111 2.36078 16.4003 2.51949 16.2897 2.59394L15.1727 0.934948C14.2005 1.58952 14.1058 2.98485 14.9806 3.76483L16.3116 2.27206ZM24.7079 24.703V26.703C25.1157 26.703 25.5137 26.5783 25.8486 26.3458L24.7079 24.703ZM26.5859 9.0306C27.6027 9.97699 27.7869 11.5194 27.0217 12.6787L28.6909 13.7805C29.9942 11.8059 29.6804 9.17864 27.9486 7.56664L26.5859 9.0306ZM32.6797 48.5864C33.3359 48.3103 33.9376 47.9197 34.4569 47.4327L33.0888 45.9738C32.7426 46.2985 32.3414 46.5589 31.904 46.743L32.6797 48.5864ZM2.13139 31.8259C2.86202 32.8632 4.29371 32.8701 5.10929 32.0464L3.68808 30.6392C3.68601 30.6413 3.69024 30.6366 3.70244 30.6373C3.70911 30.6377 3.72066 30.6398 3.73471 30.6473C3.75015 30.6557 3.76123 30.6667 3.76653 30.6742L2.13139 31.8259Z" fill="#394551"/>
</svg>
