<svg width="56" height="56" viewBox="0 0 56 56" fill="none" xmlns="http://www.w3.org/2000/svg">
<path d="M3 17H1V22H3V17Z" stroke="#394551" stroke-width="2" stroke-miterlimit="10" stroke-linecap="round" stroke-linejoin="round"/>
<path d="M54 17H52V22H54V17Z" stroke="#394551" stroke-width="2" stroke-miterlimit="10" stroke-linecap="round" stroke-linejoin="round"/>
<path d="M45 17H38V22H45V17Z" stroke="#394551" stroke-width="2" stroke-miterlimit="10" stroke-linecap="round" stroke-linejoin="round"/>
<path d="M18.3272 22L19 17H10V22H18.3272Z" stroke="#394551" stroke-width="2" stroke-miterlimit="10" stroke-linecap="round" stroke-linejoin="round"/>
<path d="M32 22V17H26.659L26 22H32Z" stroke="#394551" stroke-width="2" stroke-miterlimit="10" stroke-linecap="round" stroke-linejoin="round"/>
<path d="M23.6347 34L23 39H31V34H23.6347Z" stroke="#394551" stroke-width="2" stroke-miterlimit="10" stroke-linecap="round" stroke-linejoin="round"/>
<path d="M3 34H1V39H3V34Z" stroke="#394551" stroke-width="2" stroke-miterlimit="10" stroke-linecap="round" stroke-linejoin="round"/>
<path d="M54 34H52V39H54V34Z" stroke="#394551" stroke-width="2" stroke-miterlimit="10" stroke-linecap="round" stroke-linejoin="round"/>
<path d="M45 34H38V39H45V34Z" stroke="#394551" stroke-width="2" stroke-miterlimit="10" stroke-linecap="round" stroke-linejoin="round"/>
<path d="M10 34V39H15.3926L16 34H10Z" stroke="#394551" stroke-width="2" stroke-miterlimit="10" stroke-linecap="round" stroke-linejoin="round"/>
<path d="M10 48H3V12.7059L6.5 8L10 12.7059V48Z" stroke="#394551" stroke-width="2" stroke-miterlimit="10" stroke-linecap="round" stroke-linejoin="round"/>
<path d="M22.0865 48L15 47.0329L19.9112 12.1647L24.1115 8L27 13.1318L22.0865 48Z" fill="#D93C6C" stroke="#394551" stroke-width="2" stroke-miterlimit="10" stroke-linecap="round" stroke-linejoin="round"/>
<path d="M38 48H31V12.7059L34.5 8L38 12.7059V48Z" stroke="#394551" stroke-width="2" stroke-miterlimit="10" stroke-linecap="round" stroke-linejoin="round"/>
<path d="M52 48H45V12.7059L48.5 8L52 12.7059V48Z" stroke="#394551" stroke-width="2" stroke-miterlimit="10" stroke-linecap="round" stroke-linejoin="round"/>
</svg>
