<svg width="16" height="29" viewBox="0 0 16 29" fill="none" xmlns="http://www.w3.org/2000/svg">
<path fill-rule="evenodd" clip-rule="evenodd" d="M15.6643 13.7104C15.7707 13.814 15.8551 13.9371 15.9127 14.0726C15.9704 14.208 16 14.3533 16 14.5C16 14.6467 15.9704 14.792 15.9127 14.9274C15.8551 15.0629 15.7707 15.186 15.6643 15.2896L1.95302 28.6729C1.73847 28.8824 1.44747 29 1.14405 29C0.840627 29 0.549634 28.8824 0.335082 28.6729C0.120531 28.4635 -1.23176e-06 28.1795 -1.21882e-06 27.8833C-1.20587e-06 27.5872 0.120531 27.3031 0.335082 27.0937L13.2397 14.5L0.335083 1.9063C0.120532 1.69688 -6.17576e-08 1.41285 -4.88119e-08 1.11668C-3.58661e-08 0.820521 0.120532 0.536488 0.335083 0.327069C0.549635 0.11765 0.840629 -6.62637e-07 1.14405 -6.49374e-07C1.44747 -6.36111e-07 1.73847 0.11765 1.95302 0.327069L15.6643 13.7104Z" fill="#D93C6C"/>
</svg>
