<svg width="17" height="19" viewBox="0 0 17 19" fill="none" xmlns="http://www.w3.org/2000/svg">
<path d="M10.049 14.7141L6.4036 12.6191L6.34558 12.5858L6.28084 12.5689L2.47471 11.5746C2.59111 11.4897 2.6989 11.4102 2.7816 11.3475L2.78272 11.3467C3.13837 11.0756 3.22126 10.6217 3.06185 10.2569C3.04082 10.2058 3.01847 10.1635 2.9986 10.1303C2.99065 10.1171 2.9825 10.1044 2.97582 10.0944C2.96875 10.083 2.96112 10.0717 2.95289 10.0606L0.963809 7.23684H0.966172H0.969662H0.973142H0.976613H0.980073H0.983524H0.986964H0.990395H0.993814H0.997224H1.00062H1.00401H1.00739H1.01075H1.01411H1.01745H1.02078H1.02411H1.02741H1.03071H1.034H1.03727H1.04053H1.04378H1.04702H1.05025H1.05346H1.05666H1.05985H1.06302H1.06618H1.06933H1.07246H1.07559H1.07869H1.08179H1.08487H1.08794H1.09099H1.09403H1.09705H1.10006H1.10306H1.10604H1.10901H1.11196H1.1149H1.11782H1.12073H1.12362H1.1265H1.12936H1.1322H1.13503H1.13785H1.14065H1.14343H1.14619H1.14894H1.15168H1.15439H1.15709H1.15977H1.16244H1.16509H1.16772H1.17034H1.17293H1.17551H1.17808H1.18062H1.18315H1.18566H1.18815H1.19062H1.19307H1.19551H1.19793H1.20033H1.20271H1.20507H1.20741H1.20973H1.21203H1.21432H1.21658H1.21883H1.22105H1.22326H1.22544H1.22761H1.22975H1.23188H1.23398H1.23607H1.23813H1.24017H1.24219H1.24419H1.24617H1.24813H1.25007H1.25198H1.25387H1.25575H1.2576H1.25942H1.26123H1.26301H1.26477H1.26651H1.26823H1.26992H1.27159H1.27324H1.27486H1.27646H1.27804H1.2796H1.28113H1.28264H1.28412H1.28558H1.28702H1.28843H1.28982H1.29118H1.29252H1.29332C1.30663 7.23791 1.32029 7.23849 1.33427 7.23849H1.53505L1.55229 7.22198C1.68837 7.1968 1.82434 7.14133 1.94738 7.04794L1.9485 7.04709C2.18262 6.86835 2.28999 6.6139 2.30271 6.36968L2.304 6.36139L2.54499 4.81202L3.44601 5.67225C3.60146 5.84001 3.82176 5.92512 4.0052 5.95446C4.20667 5.98668 4.48702 5.97104 4.7259 5.78966C4.77933 5.74906 4.81351 5.70612 4.82182 5.69569L4.82263 5.69467C4.83765 5.6759 4.85007 5.65816 4.85869 5.64543C4.87634 5.61935 4.89411 5.59042 4.91017 5.56341C4.94304 5.50809 4.98282 5.43692 5.02535 5.35889C5.08931 5.24153 5.16467 5.09905 5.2414 4.95206L5.77424 6.16059L5.80227 6.22417L5.84657 6.2777C6.16956 6.6679 6.74836 6.73135 7.15045 6.42595C7.21769 6.37586 7.27202 6.32002 7.31606 6.26257L7.38247 6.24985L7.47435 5.97023L8.96753 1.42614C9.2529 1.76056 9.5809 2.14061 9.72988 2.29556L9.72987 2.29557L9.73299 2.29876C9.99771 2.56922 10.3073 2.62882 10.5537 2.59814C10.6675 2.58397 10.7609 2.552 10.826 2.52402C10.8591 2.50978 10.8867 2.4958 10.908 2.48411C10.9187 2.47824 10.9279 2.47286 10.9357 2.46821L10.9461 2.46177L10.9505 2.45899L10.9525 2.45771L10.9534 2.4571L10.9539 2.45681C10.9541 2.45666 10.9543 2.45651 10.681 2.03783L10.9543 2.45651L10.9762 2.44227L10.9964 2.42583L12.6881 1.05074V2.94737V2.9596L12.6887 2.97181L13.1881 2.94737C12.6887 2.97181 12.6888 2.97205 12.6888 2.97229L12.6888 2.97279L12.6888 2.97381L12.689 2.976L12.6893 2.9809L12.6901 2.99281C12.6909 3.00165 12.6919 3.01233 12.6934 3.02462C12.6963 3.04903 12.701 3.08063 12.7088 3.11721C12.7239 3.18822 12.7528 3.28926 12.8103 3.3956C12.938 3.63187 13.1997 3.86842 13.6226 3.86842C13.7866 3.86842 14.0713 3.86955 14.3649 3.87098L11.5854 7.42556L11.4051 7.65613L11.4347 7.72713C11.4118 7.79983 11.3969 7.88007 11.3952 7.96731L11.3951 7.96731L11.3951 7.9733C11.3914 8.47609 11.8001 8.91393 12.3245 8.92101L12.3754 8.92169L12.4254 8.91211L13.7504 8.65809C13.7241 8.73138 13.6994 8.80144 13.678 8.86385C13.6564 8.92677 13.6367 8.98602 13.6219 9.03458C13.6147 9.0584 13.607 9.08473 13.6008 9.11012C13.6007 9.11045 13.6006 9.11094 13.6004 9.11157C13.5974 9.12323 13.5816 9.18476 13.5811 9.25455C13.5811 9.25577 13.5811 9.257 13.5811 9.25822H14.0811M10.049 14.7141L15.6034 10.4024L16.0818 9.98532L14.5173 9.68421M10.049 14.7141C10.0492 14.5664 10.0496 14.4244 10.0505 14.3117L10.0505 14.3114C10.0545 13.8616 10.378 13.5353 10.7479 13.4384C10.8018 13.4217 10.849 13.4125 10.8863 13.4071C10.8933 13.4061 10.8999 13.4052 10.9059 13.4045L10.9328 13.398H10.9918H10.9918H10.9919H10.9919H10.9919H10.9919H10.9919H10.9919H10.9919H10.9919H10.9919H10.9919H10.9919H10.9919H10.992H10.992H10.992H10.992H10.992H10.992H10.992H10.992H10.992H10.992H10.992H10.9921H10.9921H10.9921H10.9921H10.9921H10.9921H10.9921H10.9921H10.9921H10.9921H10.9921H10.9921H10.9922H10.9922H10.9922H10.9922H10.9922H10.9922H10.9922H10.9922H10.9922H10.9922H10.9923H10.9923H10.9923H10.9923H10.9923H10.9923H10.9923H10.9923H10.9923H10.9924H10.9924H10.9924H10.9924H10.9924H10.9924H10.9924H10.9924H10.9924H10.9925H10.9925H10.9925H10.9925H10.9925H10.9925H10.9925H10.9925H10.9926H10.9926H10.9926H10.9926H10.9926H10.9926H10.9926H10.9926H10.9927H10.9927H10.9927H10.9927H10.9927H10.9927H10.9927H10.9927H10.9928H10.9928H10.9928H10.9928H10.9928H10.9928H10.9928H10.9928H10.9929H10.9929H10.9929H10.9929H10.9929H10.9929H10.9929H10.9929H10.9929H10.9929H10.9929H10.9929H10.993H10.993H10.993H10.993H10.993H10.993H10.993H10.993H10.993H10.993H10.993H10.993H10.993H10.9931H10.9931H10.9931H10.9931H10.9931H10.9931H10.9931H10.9931H10.9931H10.9931H10.9931H10.9931H10.9931H10.9932H10.9932H10.9932H10.9932H10.9932H10.9932H10.9932H10.9932H10.9932H10.9932H10.9932H10.9932H10.9933H10.9933H10.9933H10.9933H10.9933H10.9933H10.9933H10.9933H10.9933H10.9933H10.9933H10.9933H10.9934H10.9934H10.9934H10.9934H10.9934H10.9934H10.9934H10.9934H10.9934H10.9934H10.9934H10.9935H10.9935H10.9935H10.9935H10.9935H10.9935H10.9935H10.9935H10.9935H10.9935H10.9935H10.9935H10.9936H10.9936H10.9936H10.9936H10.9936H10.9936H10.9936H10.9936H10.9936H10.9936H10.9936H10.9937H10.9937H10.9937H10.9937H10.9937H10.9937H10.9937H10.9937H10.9937H10.9937H10.9937H10.9938H10.9938H10.9938H10.9938H10.9938H10.9938H10.9938H10.9938H10.9938H10.9938H10.9938H10.9939H10.9939H10.9939H10.9939H10.9939H10.9939H10.9939H10.9939H10.9939H10.9939H10.9939H10.994H10.994H10.994H10.994H10.994H10.994H10.994H10.994H10.994H10.994H10.9941H10.9941H10.9941H10.9941H10.9941H10.9941H10.9941H10.9941H10.9941H10.9941H10.9941H10.9942H10.9942H10.9942H10.9942H10.9942H10.9942H10.9942H10.9942H10.9942H10.9942H10.9943H10.9943H10.9943H10.9943H10.9943H10.9943H10.9943H10.9943H10.9943H10.9943H10.9943H10.9944H10.9944H10.9944H10.9944H10.9944H10.9944H10.9944H10.9944H10.9944H10.9944H10.9945H10.9945H10.9945H10.9945H10.9945H10.9945H10.9945H10.9945H10.9945H10.9945H10.9946H10.9946H10.9946H10.9946H10.9946H10.9946H10.9946H10.9946H10.9946H10.9946H10.9947H10.9947H10.9947H10.9947H10.9947H10.9947H10.9947H10.9947H10.9947H10.9947H10.9948H10.9948H10.9948H10.9948H10.9948H10.9948H10.9948H10.9948H10.9948H10.9948H10.9949H10.9949H10.9949H10.9949H10.9949H10.9949H10.9949H10.9949H10.9949H10.9949H10.995H10.995H10.995H10.995H10.995H10.995H10.995H10.995H10.995H10.995H10.9951H10.9951H10.9951H10.9951H10.9951H10.9951H10.9951H10.9951H10.9951H10.9951H10.9952H10.9952H10.9952H10.9952H10.9952H10.9952H10.9952H10.9952H10.9952H10.9952H10.9953H10.9953H10.9953H10.9953H10.9953H10.9953H10.9953H10.9953H10.9953H10.9953H10.9953H10.9953H10.9954H10.9954H10.9954H10.9954H10.9954H10.9954H10.9954H10.9954H10.9954H10.9955H10.9955H10.9955H10.9955H10.9955H10.9955H10.9955H10.9955H10.9955H10.9955H10.9955H10.9956H10.9956H10.9956H10.9956H10.9956H10.9956H10.9956H10.9956H10.9956H10.9956H10.9956H10.9957H10.9957H10.9957H10.9957H10.9957H10.9957H10.9957H10.9957H10.9958H10.9958H10.9958H10.9958H10.9958H10.9958H10.9958H10.9958H10.9959H10.9959H10.9959H10.9959H10.9959H10.9959H10.996H10.996H10.996H10.996H10.996H10.996H10.9961H10.9961H10.9961H10.9961H10.9961H10.9961H10.9962H10.9962H10.9962H10.9962H10.9962H10.9963H10.9963H10.9963H10.9963H10.9964H10.9964H10.9964H10.9964H10.9964H10.9965H10.9965H10.9965H10.9965H10.9966H10.9966H10.9966H10.9966H10.9967H10.9967H10.9967H10.9967H10.9968H10.9968H10.9968H10.9969H10.9969H10.9969H10.9969H10.997H10.997H10.997H10.9971H10.9971H10.9971H10.9972H10.9972H10.9972H10.9972H10.9973H10.9973H10.9973H10.9974H10.9974H10.9974H10.9975H10.9975H10.9976H10.9976H10.9976H10.9977H10.9977H10.9977H10.9978H10.9978H10.9979H10.9979H10.9979H10.998H10.998H10.9981H10.9981H10.9981H10.9982H10.9982H10.9983H10.9983H10.9984H10.9984H10.9984H10.9985H10.9985H10.9986H10.9986H10.9987H10.9987H10.9988H10.9988H10.9989H10.9989H10.999H10.999H10.9991H10.9991H10.9992H10.9992H10.9993H10.9993H10.9994H10.9994H10.9995H10.9995H10.9996H10.9996H10.9997H10.9998H10.9998H10.9999H10.9999H11H11H11.0001H11.0002H11.0002H11.0003H11.0003H11.0004H11.0005H11.0005H11.0006H11.0007H11.0007H11.0008H11.0009H11.0009H11.001H11.0011H11.0011H11.0012H11.0013H11.0013H11.0014H11.0015H11.0015H11.0016H11.0017H11.0017H11.0018H11.0019H11.002H11.002H11.0021H11.0022H11.0023H11.0023H11.0024H11.0025H11.0026H11.0027H11.0027H11.0028H11.0029H11.003H11.0031H11.0031H11.0032H11.0033H11.0034H11.0035H11.0036H11.0036H11.0037H11.0038H11.0039H11.004H11.0041H11.0042H11.0043H11.0043H11.0044H11.0045H11.0046H11.0047H11.0048H11.0049H11.005H11.0051H11.0052H11.0053H11.0054H11.0055H11.0056H11.0057H11.0058H11.0059H11.006H11.0061H11.0062H11.0063H11.0064H11.0065H11.0066H11.0067H11.0068H11.0069H11.007H11.0071H11.0072H11.0073H11.0074H11.0076H11.0077H11.0078H11.0079H11.008H11.0081H11.0082H11.0083H11.0085H11.0086H11.0087H11.0088H11.0089H11.0091H11.0092H11.0093H11.0094H11.0095H11.0097H11.0098H11.0099H11.01H11.0102H11.0103H11.0104H11.0105H11.0107H11.0108H11.0109H11.0111H11.0112H11.0113H11.0114H11.0116H11.0117H11.0119H11.012H11.0121H11.0123H11.0124H11.0125H11.0127H11.0128H11.013H11.0131H11.0132H11.0134H11.0135H11.0137H11.0138H11.014H11.0141H11.0143H11.0144H11.0146H11.0147H11.0149H11.015H11.0152H11.0153H11.0155H11.0156H11.0158H11.0159H11.0161H11.0162H11.0164H11.0166H11.0167H11.0169H11.017H11.0172H11.0174H11.0175H11.0177H11.0179H11.018H11.0182H11.0184H11.0185L14.5169 13.0963C14.4269 13.0185 14.3438 12.9418 14.2755 12.871L10.049 14.7141ZM14.0811 9.25822C14.0794 9.49178 14.2734 9.68092 14.5173 9.68421M14.0811 9.25822C14.0811 9.21401 14.2051 8.86689 14.3224 8.54843L14.0811 9.25822ZM14.5173 9.68421L14.4228 10.1752L14.4583 10.182C14.4756 10.1832 14.493 10.1839 14.5105 10.1842L14.5173 9.68421Z" stroke="#D93C6C"/>
<path d="M9.7591 6C8.28541 11.0526 4.37937 18.7095 0.916992 18.2105" stroke="#D93C6C"/>
</svg>
