<svg width="19" height="20" viewBox="0 0 19 20" fill="none" xmlns="http://www.w3.org/2000/svg">
<path d="M11.4983 15.1763L7.2303 12.9616L7.1752 12.933L7.11479 12.9188L2.75442 11.8903C2.8866 11.8032 3.00891 11.7217 3.10264 11.6576L3.10376 11.6568C3.48898 11.3917 3.60266 10.9167 3.41149 10.5219C3.38728 10.4689 3.36175 10.4254 3.33935 10.3916C3.33034 10.378 3.32112 10.3651 3.3136 10.3549C3.30565 10.3433 3.29715 10.332 3.28809 10.3209L1.02421 7.41892H1.02573H1.02987H1.03401H1.03814H1.04226H1.04636H1.05046H1.05456H1.05864H1.06271H1.06677H1.07083H1.07487H1.0789H1.08292H1.08694H1.09094H1.09493H1.09891H1.10288H1.10684H1.11078H1.11472H1.11865H1.12256H1.12646H1.13035H1.13423H1.13809H1.14195H1.14579H1.14962H1.15343H1.15723H1.16102H1.1648H1.16857H1.17232H1.17605H1.17978H1.18349H1.18718H1.19087H1.19453H1.19819H1.20183H1.20545H1.20906H1.21266H1.21624H1.21981H1.22336H1.22689H1.23041H1.23391H1.2374H1.24088H1.24433H1.24777H1.2512H1.2546H1.258H1.26137H1.26473H1.26807H1.27139H1.2747H1.27799H1.28126H1.28451H1.28775H1.29097H1.29417H1.29735H1.30052H1.30366H1.30679H1.3099H1.31299H1.31606H1.31911H1.32214H1.32516H1.32815H1.33112H1.33408H1.33701H1.33993H1.34282H1.34569H1.34855H1.35138H1.35419H1.35698H1.35975H1.3625H1.36523H1.36794H1.37062H1.37329H1.37593H1.37855H1.38115H1.38372H1.38628H1.38881H1.39131H1.3938H1.39626H1.3987H1.40112H1.40351H1.40588H1.40823H1.41055H1.41285H1.41513H1.41738H1.4196H1.42181H1.42398H1.42614H1.42827H1.43037H1.43245H1.4345H1.43653H1.43853H1.44051H1.44246H1.44439H1.44629H1.44816H1.45001H1.45183H1.45363H1.4554H1.45714H1.45885H1.46054H1.4622H1.46383H1.46544H1.46702H1.46857H1.47009H1.47158H1.47305H1.47449H1.4759H1.47597C1.48946 7.42002 1.50334 7.42061 1.51758 7.42061H1.70375L1.71634 7.40972C1.86473 7.38891 2.01567 7.33647 2.15376 7.24183L2.15489 7.24105C2.40644 7.06763 2.53487 6.80833 2.55028 6.54539L2.55134 6.53927L2.84275 4.84753L3.98678 5.83379C4.15329 5.99648 4.3852 6.07595 4.5738 6.10319C4.78052 6.13304 5.06649 6.11925 5.314 5.94954C5.36902 5.9118 5.40511 5.87096 5.4146 5.86022L5.41536 5.85936C5.43183 5.84077 5.4456 5.82303 5.45532 5.81006C5.47518 5.78358 5.49527 5.75405 5.51353 5.72631C5.55087 5.66957 5.5961 5.59651 5.64448 5.51636C5.73863 5.36035 5.85451 5.16115 5.96736 4.9646L6.63859 6.33931L6.67037 6.4044L6.71931 6.4578C7.06611 6.83612 7.65858 6.88646 8.07188 6.60286C8.15072 6.54987 8.21402 6.48927 8.26499 6.42611L8.3317 6.41457L8.43079 6.14227L10.1681 1.36817C10.193 1.39457 10.2182 1.4213 10.2437 1.44824C10.5743 1.7983 10.9615 2.20389 11.1343 2.36616L11.1343 2.36617L11.1375 2.36919C11.424 2.63349 11.7448 2.68314 11.9892 2.65565C12.1054 2.64259 12.2017 2.61298 12.2697 2.58659C12.3042 2.5732 12.3329 2.56005 12.355 2.5491C12.3661 2.5436 12.3756 2.53859 12.3835 2.53429L12.3941 2.52838L12.3985 2.52585L12.4005 2.52471L12.4015 2.52416L12.4019 2.5239C12.4021 2.52377 12.4023 2.52364 12.1484 2.09291L12.4023 2.52364L12.424 2.51087L12.4443 2.49599L14.5 0.987193V3.02703V3.04057L14.5007 3.05409L15 3.02703C14.5007 3.05409 14.5007 3.05435 14.5008 3.05462L14.5008 3.05517L14.5009 3.0563L14.501 3.0587L14.5014 3.06405L14.5024 3.07694C14.5033 3.08646 14.5045 3.09791 14.5062 3.11102C14.5097 3.13708 14.5152 3.1706 14.5243 3.20926C14.5421 3.28473 14.5758 3.39023 14.6415 3.5C14.7888 3.74606 15.0684 3.95946 15.4941 3.95946C15.6942 3.95946 16.0517 3.96079 16.4103 3.9624L13.247 7.61525L13.0356 7.85936L13.0718 7.93766C13.0473 8.01124 13.0313 8.09281 13.0294 8.18186L13.0294 8.18186L13.0293 8.1885C13.0248 8.7448 13.5096 9.1424 14.0193 9.14861L14.0653 9.14917L14.1107 9.14132L15.7171 8.86323C15.6846 8.94495 15.6539 9.02326 15.6276 9.09246C15.603 9.15715 15.5805 9.2183 15.5636 9.26858C15.5553 9.29321 15.5465 9.32076 15.5391 9.34753C15.539 9.34782 15.5389 9.34828 15.5387 9.34889C15.5355 9.36039 15.5163 9.42753 15.5156 9.50437C15.5156 9.50573 15.5156 9.50709 15.5156 9.50845H16.0156M11.4983 15.1763L17.8099 10.679L18.3379 10.2633L16.5117 9.94595M11.4983 15.1763C11.4984 15.0018 11.4988 14.8304 11.5 14.6982L11.5 14.6978C11.5048 14.2077 11.8875 13.898 12.2556 13.8113C12.3117 13.7955 12.3605 13.7869 12.3986 13.7819C12.4082 13.7806 12.417 13.7796 12.4246 13.7788L12.4485 13.7736H12.502H12.502H12.502H12.502H12.502H12.502H12.502H12.502H12.502H12.502H12.502H12.502H12.5021H12.5021H12.5021H12.5021H12.5021H12.5021H12.5021H12.5021H12.5021H12.5021H12.5021H12.5022H12.5022H12.5022H12.5022H12.5022H12.5022H12.5022H12.5022H12.5022H12.5022H12.5022H12.5022H12.5023H12.5023H12.5023H12.5023H12.5023H12.5023H12.5023H12.5023H12.5023H12.5024H12.5024H12.5024H12.5024H12.5024H12.5024H12.5024H12.5024H12.5024H12.5025H12.5025H12.5025H12.5025H12.5025H12.5025H12.5025H12.5025H12.5026H12.5026H12.5026H12.5026H12.5026H12.5026H12.5026H12.5026H12.5027H12.5027H12.5027H12.5027H12.5027H12.5027H12.5027H12.5027H12.5028H12.5028H12.5028H12.5028H12.5028H12.5028H12.5028H12.5028H12.5028H12.5028H12.5028H12.5028H12.5029H12.5029H12.5029H12.5029H12.5029H12.5029H12.5029H12.5029H12.5029H12.5029H12.5029H12.5029H12.503H12.503H12.503H12.503H12.503H12.503H12.503H12.503H12.503H12.503H12.503H12.503H12.503H12.5031H12.5031H12.5031H12.5031H12.5031H12.5031H12.5031H12.5031H12.5031H12.5031H12.5031H12.5031H12.5032H12.5032H12.5032H12.5032H12.5032H12.5032H12.5032H12.5032H12.5032H12.5032H12.5032H12.5033H12.5033H12.5033H12.5033H12.5033H12.5033H12.5033H12.5033H12.5033H12.5033H12.5033H12.5034H12.5034H12.5034H12.5034H12.5034H12.5034H12.5034H12.5034H12.5034H12.5034H12.5034H12.5035H12.5035H12.5035H12.5035H12.5035H12.5035H12.5035H12.5035H12.5035H12.5035H12.5035H12.5036H12.5036H12.5036H12.5036H12.5036H12.5036H12.5036H12.5036H12.5036H12.5036H12.5036H12.5037H12.5037H12.5037H12.5037H12.5037H12.5037H12.5037H12.5037H12.5037H12.5037H12.5038H12.5038H12.5038H12.5038H12.5038H12.5038H12.5038H12.5038H12.5038H12.5038H12.5039H12.5039H12.5039H12.5039H12.5039H12.5039H12.5039H12.5039H12.5039H12.5039H12.504H12.504H12.504H12.504H12.504H12.504H12.504H12.504H12.504H12.504H12.5041H12.5041H12.5041H12.5041H12.5041H12.5041H12.5041H12.5041H12.5041H12.5042H12.5042H12.5042H12.5042H12.5042H12.5042H12.5042H12.5042H12.5042H12.5042H12.5043H12.5043H12.5043H12.5043H12.5043H12.5043H12.5043H12.5043H12.5043H12.5044H12.5044H12.5044H12.5044H12.5044H12.5044H12.5044H12.5044H12.5044H12.5044H12.5045H12.5045H12.5045H12.5045H12.5045H12.5045H12.5045H12.5045H12.5045H12.5046H12.5046H12.5046H12.5046H12.5046H12.5046H12.5046H12.5046H12.5046H12.5047H12.5047H12.5047H12.5047H12.5047H12.5047H12.5047H12.5047H12.5047H12.5048H12.5048H12.5048H12.5048H12.5048H12.5048H12.5048H12.5048H12.5048H12.5049H12.5049H12.5049H12.5049H12.5049H12.5049H12.5049H12.5049H12.5049H12.505H12.505H12.505H12.505H12.505H12.505H12.505H12.505H12.505H12.5051H12.5051H12.5051H12.5051H12.5051H12.5051H12.5051H12.5051H12.5051H12.5052H12.5052H12.5052H12.5052H12.5052H12.5052H12.5052H12.5052H12.5052H12.5053H12.5053H12.5053H12.5053H12.5053H12.5053H12.5053H12.5053H12.5053H12.5054H12.5054H12.5054H12.5054H12.5054H12.5054H12.5054H12.5054H12.5054H12.5055H12.5055H12.5055H12.5055H12.5055H12.5055H12.5055H12.5055H12.5056H12.5056H12.5056H12.5056H12.5056H12.5056H12.5056H12.5056H12.5056H12.5057H12.5057H12.5057H12.5057H12.5057H12.5057H12.5057H12.5057H12.5057H12.5058H12.5058H12.5058H12.5058H12.5058H12.5058H12.5058H12.5058H12.5058H12.5059H12.5059H12.5059H12.5059H12.5059H12.5059H12.5059H12.5059H12.5059H12.5059H12.5059H12.506H12.506H12.506H12.506H12.506H12.506H12.506H12.506H12.5061H12.5061H12.5061H12.5061H12.5061H12.5061H12.5061H12.5061H12.5061H12.5061H12.5061H12.5061H12.5062H12.5062H12.5062H12.5062H12.5062H12.5062H12.5062H12.5062H12.5062H12.5062H12.5063H12.5063H12.5063H12.5063H12.5063H12.5063H12.5063H12.5063H12.5064H12.5064H12.5064H12.5064H12.5064H12.5064H12.5064H12.5065H12.5065H12.5065H12.5065H12.5065H12.5065H12.5066H12.5066H12.5066H12.5066H12.5066H12.5067H12.5067H12.5067H12.5067H12.5067H12.5067H12.5068H12.5068H12.5068H12.5068H12.5069H12.5069H12.5069H12.5069H12.5069H12.507H12.507H12.507H12.507H12.5071H12.5071H12.5071H12.5071H12.5072H12.5072H12.5072H12.5072H12.5073H12.5073H12.5073H12.5074H12.5074H12.5074H12.5074H12.5075H12.5075H12.5075H12.5076H12.5076H12.5076H12.5077H12.5077H12.5077H12.5078H12.5078H12.5078H12.5079H12.5079H12.5079H12.508H12.508H12.508H12.5081H12.5081H12.5081H12.5082H12.5082H12.5083H12.5083H12.5083H12.5084H12.5084H12.5085H12.5085H12.5085H12.5086H12.5086H12.5087H12.5087H12.5088H12.5088H12.5088H12.5089H12.5089H12.509H12.509H12.5091H12.5091H12.5092H12.5092H12.5093H12.5093H12.5094H12.5094H12.5095H12.5095H12.5096H12.5096H12.5097H12.5097H12.5098H12.5098H12.5099H12.5099H12.51H12.5101H12.5101H12.5102H12.5102H12.5103H12.5103H12.5104H12.5105H12.5105H12.5106H12.5106H12.5107H12.5108H12.5108H12.5109H12.511H12.511H12.5111H12.5112H12.5112H12.5113H12.5114H12.5114H12.5115H12.5116H12.5116H12.5117H12.5118H12.5118H12.5119H12.512H12.5121H12.5121H12.5122H12.5123H12.5124H12.5124H12.5125H12.5126H12.5127H12.5127H12.5128H12.5129H12.513H12.5131H12.5131H12.5132H12.5133H12.5134H12.5135H12.5136H12.5136H12.5137H12.5138H12.5139H12.514H12.5141H12.5142H12.5143H12.5143H12.5144H12.5145H12.5146H12.5147H12.5148H12.5149H12.515H12.5151H12.5152H12.5153H12.5154H12.5155H12.5156H12.5157H12.5158H12.5159H12.516H12.5161H12.5162H12.5163H12.5164H12.5165H12.5166H12.5167H12.5168H12.5169H12.517H12.5171H12.5172H12.5174H12.5175H12.5176H12.5177H12.5178H12.5179H12.518H12.5181H12.5183H12.5184H12.5185H12.5186H12.5187H12.5188H12.519H12.5191H12.5192H12.5193H12.5195H12.5196H12.5197H12.5198H12.52H12.5201H12.5202H12.5203H12.5205H12.5206H12.5207H12.5209H12.521H12.5211H12.5213H12.5214H12.5215H12.5217H12.5218H12.5219H12.5221H12.5222H12.5224H12.5225H12.5226H12.5228H12.5229H12.5231H12.5232H12.5234H12.5235H12.5237H12.5238H12.524H12.5241H12.5243H12.5244H12.5246H12.5247H12.5249H12.525H12.5252H12.5253H12.5255H12.5257H12.5258H12.526H12.5261H12.5263H12.5265H12.5266H12.5268H12.5269H12.5271H12.5273H12.5275H12.5276H12.5278H12.528H12.5281H12.5283H12.5285H12.5286H12.5288H12.529H12.5292H12.5294H12.5295H12.5297H12.5299H12.5301H12.5303H12.5304H12.5306H12.5308H12.531H12.5312H12.5314H12.5316H12.5317H12.5319H12.5321H12.5323H12.5325H12.5327H12.5329H12.5331H12.5333H12.5335H12.5337H12.5339H12.5341H12.5343H12.5345H12.5347H12.5349H12.5351H12.5353H12.5355H12.5357H12.5359H12.5362H12.5364H12.5366H12.5368H12.537L11.4983 15.1763ZM16.0156 9.50845C16.0137 9.74831 16.2344 9.94257 16.5117 9.94595M16.0156 9.50845C16.0156 9.46227 16.1615 9.09436 16.2969 8.76287L16.0156 9.50845ZM16.5117 9.94595L16.4261 10.4386L16.4588 10.4443C16.4745 10.4452 16.4901 10.4457 16.5056 10.4459L16.5117 9.94595Z" stroke="white"/>
<path d="M11 6C7.66667 10.4218 4.2975 19.4711 1 18.9809" stroke="white"/>
</svg>
