<svg width="18" height="20" viewBox="0 0 18 20" fill="none" xmlns="http://www.w3.org/2000/svg">
<path d="M11.1321 14.7141L7.48661 12.6191L7.42859 12.5858L7.36384 12.5689L3.55772 11.5746C3.67412 11.4897 3.78191 11.4102 3.86461 11.3475L3.86573 11.3467C4.22138 11.0756 4.30427 10.6217 4.14486 10.2569C4.12382 10.2058 4.10148 10.1635 4.08161 10.1303C4.07366 10.1171 4.0655 10.1044 4.05883 10.0944C4.05176 10.083 4.04412 10.0717 4.0359 10.0606L2.04682 7.23684H2.04918H2.05267H2.05615H2.05962H2.06308H2.06653H2.06997H2.0734H2.07682H2.08023H2.08363H2.08702H2.0904H2.09376H2.09712H2.10046H2.10379H2.10711H2.11042H2.11372H2.11701H2.12028H2.12354H2.12679H2.13003H2.13325H2.13647H2.13967H2.14285H2.14603H2.14919H2.15234H2.15547H2.15859H2.1617H2.1648H2.16788H2.17094H2.174H2.17704H2.18006H2.18307H2.18607H2.18905H2.19202H2.19497H2.19791H2.20083H2.20374H2.20663H2.2095H2.21237H2.21521H2.21804H2.22085H2.22365H2.22644H2.2292H2.23195H2.23468H2.2374H2.2401H2.24278H2.24545H2.2481H2.25073H2.25334H2.25594H2.25852H2.26108H2.26363H2.26616H2.26866H2.27115H2.27363H2.27608H2.27852H2.28093H2.28333H2.28571H2.28807H2.29042H2.29274H2.29504H2.29733H2.29959H2.30183H2.30406H2.30627H2.30845H2.31062H2.31276H2.31489H2.31699H2.31907H2.32114H2.32318H2.3252H2.3272H2.32918H2.33114H2.33307H2.33499H2.33688H2.33875H2.3406H2.34243H2.34424H2.34602H2.34778H2.34952H2.35124H2.35293H2.3546H2.35625H2.35787H2.35947H2.36105H2.36261H2.36414H2.36564H2.36713H2.36859H2.37002H2.37144H2.37282H2.37419H2.37552H2.37633C2.38964 7.23791 2.4033 7.23849 2.41728 7.23849H2.61806L2.6353 7.22198C2.77138 7.1968 2.90734 7.14133 3.03038 7.04794L3.03151 7.04709C3.26563 6.86835 3.373 6.6139 3.38571 6.36968L3.387 6.36139L3.628 4.81202L4.52902 5.67225C4.68446 5.84001 4.90476 5.92512 5.08821 5.95446C5.28967 5.98668 5.57003 5.97104 5.80891 5.78966C5.86234 5.74906 5.89652 5.70612 5.90483 5.69569L5.90564 5.69467C5.92066 5.6759 5.93307 5.65816 5.94169 5.64543C5.95935 5.61935 5.97712 5.59042 5.99317 5.56341C6.02605 5.50809 6.06583 5.43692 6.10835 5.35889C6.17232 5.24153 6.24768 5.09905 6.32441 4.95206L6.85724 6.16059L6.88528 6.22417L6.92958 6.2777C7.25256 6.6679 7.83137 6.73135 8.23345 6.42595C8.3007 6.37586 8.35502 6.32002 8.39906 6.26257L8.46547 6.24985L8.55735 5.97023L10.0505 1.42614C10.3359 1.76056 10.6639 2.14061 10.8129 2.29556L10.8129 2.29557L10.816 2.29876C11.0807 2.56922 11.3903 2.62882 11.6367 2.59814C11.7505 2.58397 11.8439 2.552 11.909 2.52402C11.9422 2.50978 11.9697 2.4958 11.991 2.48411C12.0017 2.47824 12.011 2.47286 12.0187 2.46821L12.0291 2.46177L12.0335 2.45899L12.0355 2.45771L12.0364 2.4571L12.0369 2.45681C12.0371 2.45666 12.0374 2.45651 11.764 2.03783L12.0374 2.45651L12.0592 2.44227L12.0794 2.42583L13.7712 1.05074V2.94737V2.9596L13.7718 2.97181L14.2712 2.94737C13.7718 2.97181 13.7718 2.97205 13.7718 2.97229L13.7718 2.97279L13.7719 2.97381L13.772 2.976L13.7723 2.9809L13.7731 2.99281C13.7739 3.00165 13.7749 3.01233 13.7764 3.02462C13.7793 3.04903 13.784 3.08063 13.7918 3.11721C13.8069 3.18822 13.8358 3.28926 13.8933 3.3956C14.021 3.63187 14.2827 3.86842 14.7056 3.86842C14.8696 3.86842 15.1543 3.86955 15.4479 3.87098L12.6684 7.42556L12.4881 7.65613L12.5177 7.72713C12.4948 7.79983 12.4799 7.88007 12.4782 7.96731L12.4782 7.96731L12.4781 7.9733C12.4744 8.47609 12.8831 8.91393 13.4075 8.92101L13.4584 8.92169L13.5084 8.91211L14.8334 8.65809C14.8071 8.73138 14.7824 8.80144 14.761 8.86385C14.7394 8.92677 14.7197 8.98602 14.7049 9.03458C14.6977 9.0584 14.6901 9.08473 14.6838 9.11012C14.6837 9.11045 14.6836 9.11094 14.6834 9.11157C14.6804 9.12323 14.6647 9.18476 14.6641 9.25455C14.6641 9.25577 14.6641 9.257 14.6641 9.25822H15.1641M11.1321 14.7141L16.6864 10.4024L17.1648 9.98532L15.6003 9.68421M11.1321 14.7141C11.1322 14.5664 11.1326 14.4244 11.1335 14.3117L11.1335 14.3114C11.1375 13.8616 11.461 13.5353 11.8309 13.4384C11.8848 13.4217 11.932 13.4125 11.9693 13.4071C11.9763 13.4061 11.9829 13.4052 11.9889 13.4045L12.0158 13.398H12.0748H12.0749H12.0749H12.0749H12.0749H12.0749H12.0749H12.0749H12.0749H12.0749H12.0749H12.0749H12.0749H12.075H12.075H12.075H12.075H12.075H12.075H12.075H12.075H12.075H12.075H12.075H12.0751H12.0751H12.0751H12.0751H12.0751H12.0751H12.0751H12.0751H12.0751H12.0751H12.0751H12.0751H12.0752H12.0752H12.0752H12.0752H12.0752H12.0752H12.0752H12.0752H12.0752H12.0752H12.0753H12.0753H12.0753H12.0753H12.0753H12.0753H12.0753H12.0753H12.0753H12.0753H12.0754H12.0754H12.0754H12.0754H12.0754H12.0754H12.0754H12.0754H12.0755H12.0755H12.0755H12.0755H12.0755H12.0755H12.0755H12.0755H12.0756H12.0756H12.0756H12.0756H12.0756H12.0756H12.0756H12.0756H12.0757H12.0757H12.0757H12.0757H12.0757H12.0757H12.0757H12.0757H12.0757H12.0758H12.0758H12.0758H12.0758H12.0758H12.0758H12.0758H12.0758H12.0759H12.0759H12.0759H12.0759H12.0759H12.0759H12.0759H12.0759H12.0759H12.0759H12.0759H12.076H12.076H12.076H12.076H12.076H12.076H12.076H12.076H12.076H12.076H12.076H12.076H12.076H12.0761H12.0761H12.0761H12.0761H12.0761H12.0761H12.0761H12.0761H12.0761H12.0761H12.0761H12.0761H12.0761H12.0762H12.0762H12.0762H12.0762H12.0762H12.0762H12.0762H12.0762H12.0762H12.0762H12.0762H12.0762H12.0763H12.0763H12.0763H12.0763H12.0763H12.0763H12.0763H12.0763H12.0763H12.0763H12.0763H12.0763H12.0764H12.0764H12.0764H12.0764H12.0764H12.0764H12.0764H12.0764H12.0764H12.0764H12.0764H12.0764H12.0765H12.0765H12.0765H12.0765H12.0765H12.0765H12.0765H12.0765H12.0765H12.0765H12.0765H12.0766H12.0766H12.0766H12.0766H12.0766H12.0766H12.0766H12.0766H12.0766H12.0766H12.0766H12.0767H12.0767H12.0767H12.0767H12.0767H12.0767H12.0767H12.0767H12.0767H12.0767H12.0767H12.0768H12.0768H12.0768H12.0768H12.0768H12.0768H12.0768H12.0768H12.0768H12.0768H12.0768H12.0769H12.0769H12.0769H12.0769H12.0769H12.0769H12.0769H12.0769H12.0769H12.0769H12.0769H12.077H12.077H12.077H12.077H12.077H12.077H12.077H12.077H12.077H12.077H12.077H12.0771H12.0771H12.0771H12.0771H12.0771H12.0771H12.0771H12.0771H12.0771H12.0771H12.0772H12.0772H12.0772H12.0772H12.0772H12.0772H12.0772H12.0772H12.0772H12.0772H12.0773H12.0773H12.0773H12.0773H12.0773H12.0773H12.0773H12.0773H12.0773H12.0773H12.0773H12.0774H12.0774H12.0774H12.0774H12.0774H12.0774H12.0774H12.0774H12.0774H12.0774H12.0775H12.0775H12.0775H12.0775H12.0775H12.0775H12.0775H12.0775H12.0775H12.0775H12.0776H12.0776H12.0776H12.0776H12.0776H12.0776H12.0776H12.0776H12.0776H12.0776H12.0777H12.0777H12.0777H12.0777H12.0777H12.0777H12.0777H12.0777H12.0777H12.0777H12.0778H12.0778H12.0778H12.0778H12.0778H12.0778H12.0778H12.0778H12.0778H12.0778H12.0779H12.0779H12.0779H12.0779H12.0779H12.0779H12.0779H12.0779H12.0779H12.0779H12.078H12.078H12.078H12.078H12.078H12.078H12.078H12.078H12.078H12.078H12.0781H12.0781H12.0781H12.0781H12.0781H12.0781H12.0781H12.0781H12.0781H12.0781H12.0782H12.0782H12.0782H12.0782H12.0782H12.0782H12.0782H12.0782H12.0782H12.0782H12.0783H12.0783H12.0783H12.0783H12.0783H12.0783H12.0783H12.0783H12.0783H12.0783H12.0783H12.0783H12.0784H12.0784H12.0784H12.0784H12.0784H12.0784H12.0784H12.0784H12.0784H12.0784H12.0785H12.0785H12.0785H12.0785H12.0785H12.0785H12.0785H12.0785H12.0785H12.0785H12.0786H12.0786H12.0786H12.0786H12.0786H12.0786H12.0786H12.0786H12.0786H12.0786H12.0786H12.0787H12.0787H12.0787H12.0787H12.0787H12.0787H12.0787H12.0787H12.0787H12.0788H12.0788H12.0788H12.0788H12.0788H12.0788H12.0788H12.0789H12.0789H12.0789H12.0789H12.0789H12.0789H12.0789H12.079H12.079H12.079H12.079H12.079H12.079H12.0791H12.0791H12.0791H12.0791H12.0791H12.0792H12.0792H12.0792H12.0792H12.0792H12.0793H12.0793H12.0793H12.0793H12.0793H12.0794H12.0794H12.0794H12.0794H12.0795H12.0795H12.0795H12.0795H12.0795H12.0796H12.0796H12.0796H12.0796H12.0797H12.0797H12.0797H12.0798H12.0798H12.0798H12.0798H12.0799H12.0799H12.0799H12.0799H12.08H12.08H12.08H12.0801H12.0801H12.0801H12.0802H12.0802H12.0802H12.0803H12.0803H12.0803H12.0804H12.0804H12.0804H12.0805H12.0805H12.0805H12.0806H12.0806H12.0806H12.0807H12.0807H12.0807H12.0808H12.0808H12.0809H12.0809H12.0809H12.081H12.081H12.0811H12.0811H12.0811H12.0812H12.0812H12.0813H12.0813H12.0814H12.0814H12.0815H12.0815H12.0815H12.0816H12.0816H12.0817H12.0817H12.0818H12.0818H12.0819H12.0819H12.082H12.082H12.0821H12.0821H12.0822H12.0822H12.0823H12.0823H12.0824H12.0824H12.0825H12.0825H12.0826H12.0827H12.0827H12.0828H12.0828H12.0829H12.0829H12.083H12.0831H12.0831H12.0832H12.0832H12.0833H12.0834H12.0834H12.0835H12.0835H12.0836H12.0837H12.0837H12.0838H12.0839H12.0839H12.084H12.0841H12.0841H12.0842H12.0843H12.0843H12.0844H12.0845H12.0845H12.0846H12.0847H12.0848H12.0848H12.0849H12.085H12.0851H12.0851H12.0852H12.0853H12.0854H12.0854H12.0855H12.0856H12.0857H12.0857H12.0858H12.0859H12.086H12.0861H12.0861H12.0862H12.0863H12.0864H12.0865H12.0866H12.0866H12.0867H12.0868H12.0869H12.087H12.0871H12.0872H12.0873H12.0874H12.0874H12.0875H12.0876H12.0877H12.0878H12.0879H12.088H12.0881H12.0882H12.0883H12.0884H12.0885H12.0886H12.0887H12.0888H12.0889H12.089H12.0891H12.0892H12.0893H12.0894H12.0895H12.0896H12.0897H12.0898H12.0899H12.09H12.0901H12.0902H12.0903H12.0905H12.0906H12.0907H12.0908H12.0909H12.091H12.0911H12.0912H12.0914H12.0915H12.0916H12.0917H12.0918H12.0919H12.0921H12.0922H12.0923H12.0924H12.0925H12.0927H12.0928H12.0929H12.093H12.0932H12.0933H12.0934H12.0935H12.0937H12.0938H12.0939H12.0941H12.0942H12.0943H12.0945H12.0946H12.0947H12.0949H12.095H12.0951H12.0953H12.0954H12.0955H12.0957H12.0958H12.096H12.0961H12.0962H12.0964H12.0965H12.0967H12.0968H12.097H12.0971H12.0973H12.0974H12.0976H12.0977H12.0979H12.098H12.0982H12.0983H12.0985H12.0986H12.0988H12.0989H12.0991H12.0993H12.0994H12.0996H12.0997H12.0999H12.1001H12.1002H12.1004H12.1005H12.1007H12.1009H12.101H12.1012H12.1014H12.1015L15.5999 13.0963C15.51 13.0185 15.4268 12.9418 15.3585 12.871L11.1321 14.7141ZM15.1641 9.25822C15.1624 9.49178 15.3564 9.68092 15.6003 9.68421M15.1641 9.25822C15.1641 9.21401 15.2881 8.86689 15.4054 8.54843L15.1641 9.25822ZM15.6003 9.68421L15.5058 10.1752L15.5413 10.182C15.5586 10.1832 15.576 10.1839 15.5935 10.1842L15.6003 9.68421Z" stroke="#8C8C8C"/>
<path d="M11.5 6C8 10.5 4.46238 19.7095 1 19.2105" stroke="#8C8C8C"/>
</svg>
