<svg width="21" height="14" viewBox="0 0 21 14" fill="none" xmlns="http://www.w3.org/2000/svg">
<path fill-rule="evenodd" clip-rule="evenodd" d="M0 7C0 6.79375 0.0790126 6.59595 0.219656 6.45011C0.360299 6.30426 0.551052 6.22233 0.749952 6.22233H18.4383L13.7181 1.32924C13.5773 1.18322 13.4982 0.985162 13.4982 0.778651C13.4982 0.57214 13.5773 0.374087 13.7181 0.228061C13.8589 0.082036 14.0499 4.86557e-09 14.2491 0C14.4482 -4.86557e-09 14.6392 0.082036 14.7801 0.228061L20.7797 6.44941C20.8495 6.52165 20.9049 6.60747 20.9427 6.70195C20.9805 6.79642 21 6.89771 21 7C21 7.10229 20.9805 7.20358 20.9427 7.29805C20.9049 7.39253 20.8495 7.47835 20.7797 7.55059L14.7801 13.7719C14.6392 13.918 14.4482 14 14.2491 14C14.0499 14 13.8589 13.918 13.7181 13.7719C13.5773 13.6259 13.4982 13.4279 13.4982 13.2213C13.4982 13.0148 13.5773 12.8168 13.7181 12.6708L18.4383 7.77767H0.749952C0.551052 7.77767 0.360299 7.69574 0.219656 7.5499C0.0790126 7.40405 0 7.20625 0 7Z" fill="#D93C6C"/>
</svg>
