<svg width="16" height="18" viewBox="0 0 16 18" fill="none" xmlns="http://www.w3.org/2000/svg">
<path d="M14.6667 1.28571V16.7143H1.33333V1.28571H14.6667ZM14.6667 0H1.33333C0.979711 0 0.640573 0.135459 0.390524 0.376577C0.140476 0.617695 0 0.944722 0 1.28571V16.7143C0 17.0553 0.140476 17.3823 0.390524 17.6234C0.640573 17.8645 0.979711 18 1.33333 18H14.6667C15.0203 18 15.3594 17.8645 15.6095 17.6234C15.8595 17.3823 16 17.0553 16 16.7143V1.28571C16 0.944722 15.8595 0.617695 15.6095 0.376577C15.3594 0.135459 15.0203 0 14.6667 0Z" fill="#B1A597"/>
<path d="M3 14H4V15H3V14Z" fill="#B1A597"/>
<path d="M11 14H12V15H11V14Z" fill="#B1A597"/>
<path d="M3 11H4V12H3V11Z" fill="#B1A597"/>
<path d="M11 11H12V12H11V11Z" fill="#B1A597"/>
<path d="M3 8H4V9H3V8Z" fill="#B1A597"/>
<path d="M7 14H8V15H7V14Z" fill="#B1A597"/>
<path d="M7 11H8V12H7V11Z" fill="#B1A597"/>
<path d="M7 8H8V9H7V8Z" fill="#B1A597"/>
<path d="M11 8H12V9H11V8Z" fill="#B1A597"/>
<path d="M3 4H12V6H3V4Z" fill="#B1A597"/>
</svg>
