<svg width="16" height="16" viewBox="0 0 16 16" fill="none" xmlns="http://www.w3.org/2000/svg">
<path d="M5.863 6.13489L5.36434 6.17151C5.38254 6.41939 5.52645 6.62795 5.62485 6.75886C5.73185 6.90122 5.87596 7.06366 6.02698 7.23388C6.03445 7.24229 6.04193 7.25073 6.04943 7.25918C6.04969 7.25948 6.04995 7.25978 6.05022 7.26007L6.07905 7.29291L6.07904 7.29292L6.0806 7.29468C6.76112 8.06233 6.96885 8.27597 7.23423 8.54889L7.25366 8.56887L7.25361 8.56891L7.25923 8.57451C7.27833 8.59354 7.29796 8.61396 7.32344 8.64044L7.32466 8.64172C7.34829 8.66628 7.37603 8.6951 7.40657 8.72565L7.4804 8.80331L7.48039 8.80331L7.48259 8.8056L7.4853 8.80841C7.8032 9.13856 7.98514 9.32751 8.78611 10.0211L8.82983 10.0607L8.82972 10.0608L8.83937 10.0691C8.97594 10.1866 9.10253 10.2954 9.21267 10.3716C9.32108 10.4467 9.48876 10.5456 9.70505 10.5456C9.85386 10.5456 9.99343 10.5011 10.0962 10.4609C10.2077 10.4174 10.3251 10.3591 10.4418 10.2953C10.6745 10.1683 10.9489 9.99521 11.2355 9.8127L11.237 9.81167C11.3353 9.74857 11.4755 9.70452 11.6761 9.70452C12.1312 9.70452 12.7828 9.95212 13.4469 10.3296C14.0963 10.6988 14.6657 11.1389 14.9426 11.4222C15.2641 11.7529 15.4533 12.0368 15.4923 12.3352C15.5287 12.6133 15.4479 13.0263 14.9337 13.6452C14.433 14.2467 13.8505 14.7162 13.2885 15.0331C12.7189 15.3543 12.2043 15.5 11.8383 15.5C10.9641 15.5 9.59207 14.94 8.07534 13.8471C6.70527 12.8597 6.11188 12.4187 4.74638 11.0241C3.2992 9.54386 2.39525 8.32335 1.39014 6.49006L1.39 6.48979C0.815765 5.44392 0.588561 4.705 0.522406 4.15693C0.457621 3.62021 0.542905 3.23419 0.654896 2.87201L0.177211 2.72431M5.863 6.13489L5.36441 6.17242C5.3466 5.93578 5.44181 5.71448 5.53581 5.53977C5.63796 5.3499 5.78999 5.12528 5.98721 4.85809L5.98802 4.857C6.31559 4.41576 6.37185 3.84454 5.99494 3.05112C5.68226 2.40078 5.16348 1.76317 4.66018 1.15168L4.61792 1.10116L4.61474 1.09735L4.61476 1.09733C4.26199 0.666913 3.89853 0.499977 3.52644 0.499977C3.07775 0.499977 2.68362 0.744033 2.40445 0.923498L2.39762 0.927891L2.39524 0.929316L2.38748 0.934684L2.38667 0.93525C2.3817 0.938723 2.37321 0.94464 2.36417 0.95072C2.35579 0.956357 2.34489 0.963521 2.33223 0.971269C2.09202 1.1239 1.70065 1.48944 1.33439 1.90775C1.15535 2.11224 0.993265 2.3169 0.868761 2.49699C0.736608 2.68815 0.672482 2.81529 0.654783 2.87238L0.177211 2.72431M5.863 6.13489C5.84994 5.96147 6.00223 5.67965 6.38949 5.15504L6.42429 6.92831L6.40947 6.9116C6.08712 6.54817 5.87586 6.30998 5.863 6.13489ZM0.177211 2.72431C-0.070804 3.5264 -0.236147 4.56695 0.951713 6.73043L2.13407 0.50291C2.1232 0.509413 2.11232 0.517 2.10144 0.524588C2.09056 0.532175 2.07968 0.539762 2.06881 0.546266C1.464 0.927801 0.342554 2.19102 0.177211 2.72431Z" stroke="#A69888"/>
</svg>
