<svg width="22" height="23" viewBox="0 0 22 23" fill="none" xmlns="http://www.w3.org/2000/svg">
<path d="M20.8522 7.64652L19.3528 6.14683L14.3549 1.14787C14.3084 1.10101 14.2531 1.06382 14.1922 1.03845C14.1313 1.01307 14.066 1 14 1C13.934 1 13.8687 1.01307 13.8078 1.03845C13.7469 1.06382 13.6916 1.10101 13.6451 1.14787L8.64722 6.14683L7.14784 7.64652C7.10099 7.69299 7.06381 7.74828 7.03844 7.8092C7.01306 7.87012 7 7.93546 7 8.00145C7 8.06744 7.01306 8.13278 7.03844 8.1937C7.06381 8.25461 7.10099 8.3099 7.14784 8.35638C7.1943 8.40323 7.24958 8.44042 7.31048 8.4658C7.37139 8.49118 7.43671 8.50424 7.50269 8.50424C7.56867 8.50424 7.634 8.49118 7.6949 8.4658C7.7558 8.44042 7.81108 8.40323 7.85754 8.35638L8.50228 7.70651V14.5001C8.50228 14.6327 8.55493 14.7598 8.64866 14.8536C8.74239 14.9473 8.86952 15 9.00207 15H18.9979C19.1305 15 19.2576 14.9473 19.3513 14.8536C19.4451 14.7598 19.4977 14.6327 19.4977 14.5001V7.70651L20.1425 8.35638C20.1889 8.40323 20.2442 8.44042 20.3051 8.4658C20.366 8.49118 20.4313 8.50424 20.4973 8.50424C20.5633 8.50424 20.6286 8.49118 20.6895 8.4658C20.7504 8.44042 20.8057 8.40323 20.8522 8.35638C20.899 8.3099 20.9362 8.25461 20.9616 8.1937C20.9869 8.13278 21 8.06744 21 8.00145C21 7.93546 20.9869 7.87012 20.9616 7.8092C20.9362 7.74828 20.899 7.69299 20.8522 7.64652ZM18.4981 14.0002H9.50186V6.70672L14 2.20765L18.4981 6.70672V14.0002Z" fill="#747474"/>
<path d="M1 3.33333L3.5 1M3.5 1L6 3.33333M3.5 1V15M3.5 15L6 12.6667M3.5 15L1 12.6667" stroke="#858585" stroke-linecap="round" stroke-linejoin="round"/>
<path d="M18.6667 17L21 19.5M21 19.5L18.6667 22M21 19.5L7 19.5M7 19.5L9.33333 22M7 19.5L9.33333 17" stroke="#858585" stroke-linecap="round" stroke-linejoin="round"/>
</svg>
