<svg width="20" height="19" viewBox="0 0 20 19" fill="none" xmlns="http://www.w3.org/2000/svg">
<path d="M17 3H3C2.73478 3 2.48043 3.10536 2.29289 3.29289C2.10536 3.48043 2 3.73478 2 4V14C2 14.2652 2.10536 14.5196 2.29289 14.7071C2.48043 14.8946 2.73478 15 3 15H17C17.2652 15 17.5196 14.8946 17.7071 14.7071C17.8946 14.5196 18 14.2652 18 14V4C18 3.73478 17.8946 3.48043 17.7071 3.29289C17.5196 3.10536 17.2652 3 17 3ZM16.23 14H3.83L7.33 10.38L6.61 9.685L3 13.42V4.76L9.215 10.945C9.40236 11.1313 9.65581 11.2358 9.92 11.2358C10.1842 11.2358 10.4376 11.1313 10.625 10.945L17 4.605V13.355L13.32 9.675L12.615 10.38L16.23 14ZM3.655 4H16.19L9.92 10.235L3.655 4Z" fill="#B1A597"/>
</svg>
