<svg width="13" height="18" viewBox="0 0 13 18" fill="none" xmlns="http://www.w3.org/2000/svg">
<path d="M6.5 2C5.80777 2 5.13108 2.20527 4.55551 2.58986C3.97993 2.97444 3.53133 3.52107 3.26642 4.16061C3.00152 4.80015 2.9322 5.50388 3.06725 6.18281C3.2023 6.86175 3.53564 7.48539 4.02513 7.97487C4.51461 8.46436 5.13825 8.7977 5.81718 8.93275C6.49612 9.0678 7.19985 8.99848 7.83939 8.73358C8.47893 8.46867 9.02556 8.02007 9.41014 7.44449C9.79473 6.86892 10 6.19223 10 5.5C10 4.57174 9.63125 3.6815 8.97487 3.02513C8.3185 2.36875 7.42826 2 6.5 2ZM6.5 7.77836C6.04938 7.77836 5.60889 7.64473 5.23421 7.39439C4.85954 7.14404 4.56752 6.7882 4.39507 6.37189C4.22263 5.95557 4.17751 5.49747 4.26542 5.05551C4.35333 4.61355 4.57032 4.20759 4.88896 3.88896C5.20759 3.57032 5.61356 3.35333 6.05551 3.26542C6.49747 3.17751 6.95558 3.22263 7.37189 3.39507C7.78821 3.56751 8.14404 3.85954 8.39439 4.23421C8.64474 4.60888 8.77836 5.04938 8.77836 5.5C8.77674 6.1032 8.53599 6.68114 8.10889 7.10709C7.68179 7.53305 7.1032 7.77225 6.5 7.77225V7.77836Z" fill="#B1A597"/>
<path d="M6.49724 5.47086e-10C4.77928 0.00143778 3.13168 0.684014 1.91432 1.89865C0.696953 3.11328 0.00874223 4.76126 0 6.48265C0 9.06355 1.44506 11.2244 2.50403 12.7995L2.69707 13.0869C3.75068 14.617 4.88097 16.0926 6.08358 17.5081L6.50276 18L6.92193 17.5081C8.12439 16.0925 9.25467 14.6169 10.3084 13.0869L10.5015 12.794C11.5549 11.2189 13 9.06355 13 6.48265C12.9913 4.7603 12.3023 3.11149 11.0837 1.8967C9.86517 0.68191 8.21616 -2.2303e-05 6.49724 5.47086e-10ZM9.5804 12.1584L9.38184 12.4513C8.43318 13.8772 7.17565 15.4744 6.49724 16.2647C5.84642 15.4744 4.56131 13.8772 3.61264 12.4513L3.4196 12.1584C2.44336 10.6994 1.1031 8.70433 1.1031 6.46055C1.1031 5.75075 1.24262 5.04791 1.5137 4.39215C1.78478 3.73639 2.18211 3.14055 2.68301 2.63865C3.1839 2.13675 3.77854 1.73863 4.43299 1.467C5.08744 1.19538 5.78887 1.05557 6.49724 1.05557C7.20561 1.05557 7.90704 1.19538 8.56149 1.467C9.21594 1.73863 9.81059 2.13675 10.3115 2.63865C10.8124 3.14055 11.2097 3.73639 11.4808 4.39215C11.7519 5.04791 11.8914 5.75075 11.8914 6.46055C11.8914 8.72643 10.5566 10.7215 9.5804 12.1584Z" fill="#B1A597"/>
</svg>
