<svg width="24" height="24" viewBox="0 0 24 24" fill="none" xmlns="http://www.w3.org/2000/svg">
<path d="M23.1429 7H0.857143C0.629814 7 0.411797 7.0878 0.251051 7.24408C0.0903058 7.40036 0 7.61232 0 7.83333V16.1667C0 16.3877 0.0903058 16.5996 0.251051 16.7559C0.411797 16.9122 0.629814 17 0.857143 17H23.1429C23.3702 17 23.5882 16.9122 23.749 16.7559C23.9097 16.5996 24 16.3877 24 16.1667V7.83333C24 7.61232 23.9097 7.40036 23.749 7.24408C23.5882 7.0878 23.3702 7 23.1429 7ZM22.2857 15.3333H1.71429V8.66667H5.14286V12H6.85714V8.66667H11.1429V12H12.8571V8.66667H17.1429V12H18.8571V8.66667H22.2857V15.3333Z" fill="#747474"/>
</svg>
