<svg width="25" height="23" viewBox="0 0 25 23" fill="none" xmlns="http://www.w3.org/2000/svg">
<path d="M21.5532 22H1V11M1 6.25V1H21.5532V18M21.5532 18L24 15.5M21.5532 18L19.1064 15.5" stroke="#747474"/>
<path d="M11.2784 13.1623L11.3771 11.8736H11.3154L10.8221 12.9393L9.66284 14.86H9.0832L7.81292 12.9393L7.34427 11.8736H7.27028L7.4306 13.1499V16H6V9.80421H7.66493L9.0832 12.1338L9.42852 12.9145H9.47785L9.8355 12.109L11.1428 9.80421H12.82V16H11.2784V13.1623Z" fill="#747474"/>
<path d="M17.8027 7.57373C17.8027 8.06113 17.6793 8.47831 17.4327 8.82528C17.186 9.17224 16.89 9.50269 16.5447 9.81661L15.9651 10.1264V10.176L16.6927 10.0397H18V11.2912H14.1398V10.4114C14.3536 10.2627 14.592 10.0892 14.8551 9.89095C15.1182 9.69269 15.3608 9.48203 15.5828 9.25898C15.813 9.02767 16.0021 8.79224 16.1501 8.55266C16.3063 8.31309 16.3844 8.08591 16.3844 7.87113C16.3844 7.46634 16.1542 7.26394 15.6938 7.26394C15.4718 7.26394 15.2621 7.30112 15.0648 7.37546C14.8675 7.44155 14.6948 7.52003 14.5468 7.6109L14.1275 6.49566C14.4153 6.32218 14.7195 6.19827 15.0401 6.12392C15.369 6.04131 15.6814 6 15.9774 6C16.5612 6 17.0093 6.13631 17.3217 6.40892C17.6423 6.67328 17.8027 7.06155 17.8027 7.57373Z" fill="#747474"/>
</svg>
