<svg width="22" height="22" viewBox="0 0 22 22" fill="none" xmlns="http://www.w3.org/2000/svg">
<path d="M10.2139 1.41406C10.2139 1.06724 10.4947 0.785645 10.8431 0.785645H11.1561C11.5045 0.785645 11.7853 1.06724 11.7853 1.41406V3.30009C11.7853 3.6469 11.5045 3.9285 11.1561 3.9285H10.8431C10.4947 3.9285 10.2139 3.6469 10.2139 3.30009V1.41406Z" fill="#D93C6C"/>
<path fill-rule="evenodd" clip-rule="evenodd" d="M11 16.5C14.0369 16.5 16.5 14.0377 16.5 11C16.5 7.96227 14.0369 5.5 11 5.5C7.96306 5.5 5.5 7.96227 5.5 11C5.5 14.0377 7.96306 16.5 11 16.5ZM11 14.9286C13.1699 14.9286 14.9286 13.1699 14.9286 11C14.9286 8.83009 13.1699 7.07143 11 7.07143C8.83009 7.07143 7.07143 8.83009 7.07143 11C7.07143 13.1699 8.83009 14.9286 11 14.9286Z" fill="#D93C6C"/>
<path d="M3.92899 10.8428C3.92899 10.496 3.64816 10.2144 3.29981 10.2144H1.41532C1.06696 10.2144 0.786133 10.496 0.786133 10.8428V11.1574C0.786133 11.5042 1.06696 11.7858 1.41532 11.7858H3.29981C3.64816 11.7858 3.92899 11.5042 3.92899 11.1574V10.8428Z" fill="#D93C6C"/>
<path d="M20.5849 10.2144C20.9333 10.2144 21.2141 10.496 21.2141 10.8428V11.1574C21.2141 11.5042 20.9333 11.7858 20.5849 11.7858H18.7005C18.3521 11.7858 18.0713 11.5042 18.0713 11.1574V10.8428C18.0713 10.7937 18.0774 10.7461 18.0866 10.7008C18.0927 10.6724 18.1004 10.6448 18.1112 10.618C18.145 10.5304 18.1972 10.4522 18.2647 10.3878C18.3782 10.2804 18.5316 10.2144 18.7005 10.2144H20.5849Z" fill="#D93C6C"/>
<path d="M18.051 3.68708C17.8054 3.44155 17.4065 3.44155 17.1609 3.68708L15.8304 5.01835C15.7982 5.05057 15.7706 5.08587 15.746 5.1227C15.6985 5.19636 15.6693 5.27846 15.6555 5.36287C15.6432 5.43576 15.6432 5.51019 15.657 5.58231C15.6631 5.61761 15.6739 5.65291 15.6861 5.68743C15.6954 5.71276 15.7061 5.73731 15.7199 5.76109C15.7383 5.79562 15.7613 5.82862 15.7875 5.86084L15.8304 5.90688L16.0529 6.1294C16.2984 6.37493 16.6959 6.37493 16.9415 6.1294L18.272 4.79814C18.3303 4.74058 18.3748 4.67383 18.4055 4.60247C18.4485 4.50349 18.4638 4.39607 18.453 4.29018C18.4377 4.1513 18.3778 4.01626 18.272 3.9096L18.051 3.68708Z" fill="#D93C6C"/>
<path d="M5.01682 6.12827C5.26236 6.37381 5.66135 6.37381 5.90689 6.12827L6.12787 5.90576C6.25064 5.78299 6.31202 5.62186 6.31202 5.46073C6.31202 5.36635 6.29207 5.27197 6.2491 5.18527C6.21841 5.12465 6.17851 5.06787 6.12787 5.01723L4.7943 3.68366C4.5503 3.43813 4.1513 3.43813 3.90576 3.68366L3.68325 3.90541C3.63568 3.95298 3.59731 4.00592 3.56816 4.06271C3.52058 4.15709 3.49756 4.26067 3.4991 4.36426C3.50217 4.52079 3.56355 4.67578 3.68325 4.79471L5.01682 6.12827Z" fill="#D93C6C"/>
<path d="M6.09961 15.6475C5.85407 15.402 5.45508 15.402 5.20954 15.6475L3.87751 16.9803C3.63198 17.2259 3.63198 17.6242 3.87751 17.8697L4.10003 18.0922C4.34556 18.337 4.74302 18.337 4.98856 18.0922L6.32059 16.7586C6.56612 16.5131 6.56612 16.1156 6.32059 15.87L6.09961 15.6475Z" fill="#D93C6C"/>
<path d="M17.3316 18.3126C17.3869 18.3264 17.4452 18.3318 17.502 18.3295C17.614 18.3249 17.726 18.2904 17.8242 18.2251C17.858 18.2021 17.8902 18.1752 17.9209 18.1454L18.1419 17.9228C18.26 17.8047 18.3215 17.652 18.326 17.4977C18.3307 17.3304 18.2693 17.1617 18.1419 17.0343L16.8084 15.7007C16.7147 15.6071 16.5997 15.5495 16.4784 15.5273C16.282 15.4905 16.0718 15.5488 15.9198 15.7007L15.6973 15.9224C15.5684 16.0514 15.507 16.2217 15.5131 16.3906C15.5193 16.544 15.5807 16.6951 15.6973 16.8118L17.0309 18.1454C17.1168 18.2305 17.2212 18.2865 17.3316 18.3126Z" fill="#D93C6C"/>
<path d="M10.375 18.2785C10.2752 18.3904 10.2139 18.5378 10.2139 18.6997V20.5857C10.2139 20.9325 10.4947 21.2141 10.8431 21.2141H11.1561C11.3572 21.2141 11.5351 21.1213 11.6502 20.9763C11.7346 20.8688 11.7853 20.7331 11.7853 20.5857V18.6997C11.7853 18.3529 11.5045 18.0713 11.1561 18.0713H10.8431C10.6574 18.0713 10.4901 18.1511 10.375 18.2785Z" fill="#D93C6C"/>
</svg>
