<svg width="21" height="21" viewBox="0 0 21 21" xmlns="http://www.w3.org/2000/svg">
<path d="M9.75 1.34985C9.75 1.0188 10.0181 0.75 10.3506 0.75H10.6494C10.9819 0.75 11.25 1.0188 11.25 1.34985V3.15015C11.25 3.4812 10.9819 3.75 10.6494 3.75H10.3506C10.0181 3.75 9.75 3.4812 9.75 3.15015V1.34985Z" fill="#8C8C8C"/>
<path fill-rule="evenodd" clip-rule="evenodd" d="M10.5 15.75C13.3989 15.75 15.75 13.3996 15.75 10.5C15.75 7.60035 13.3989 5.25 10.5 5.25C7.6011 5.25 5.25 7.60035 5.25 10.5C5.25 13.3996 7.6011 15.75 10.5 15.75ZM10.5 14.25C12.5713 14.25 14.25 12.5713 14.25 10.5C14.25 8.42873 12.5713 6.75 10.5 6.75C8.42873 6.75 6.75 8.42873 6.75 10.5C6.75 12.5713 8.42873 14.25 10.5 14.25Z" fill="#8C8C8C"/>
<path d="M3.75 10.3498C3.75 10.0188 3.48194 9.75 3.14942 9.75H1.35059C1.01807 9.75 0.75 10.0188 0.75 10.3498V10.6502C0.75 10.9812 1.01807 11.25 1.35059 11.25H3.14942C3.48194 11.25 3.75 10.9812 3.75 10.6502V10.3498Z" fill="#8C8C8C"/>
<path d="M19.6494 9.75C19.982 9.75 20.25 10.0188 20.25 10.3498V10.6501C20.25 10.9812 19.982 11.25 19.6494 11.25H17.8506C17.5181 11.25 17.25 10.9812 17.25 10.6501V10.3498C17.25 10.303 17.2559 10.2576 17.2646 10.2143C17.2705 10.1872 17.2778 10.1609 17.2881 10.1353C17.3204 10.0517 17.3701 9.97703 17.4346 9.91553C17.5429 9.813 17.6894 9.75 17.8506 9.75H19.6494Z" fill="#8C8C8C"/>
<path d="M17.2308 3.51953C16.9964 3.28516 16.6155 3.28516 16.3812 3.51953L15.1111 4.79029C15.0804 4.82104 15.054 4.85474 15.0306 4.88989C14.9852 4.96021 14.9574 5.03857 14.9442 5.11915C14.9325 5.18872 14.9325 5.25977 14.9456 5.32861C14.9514 5.3623 14.9617 5.396 14.9734 5.42896C14.9823 5.45313 14.9925 5.47657 15.0057 5.49927C15.0232 5.53223 15.0452 5.56372 15.0702 5.59448L15.1111 5.63843L15.3235 5.85083C15.5579 6.08521 15.9373 6.08521 16.1717 5.85083L17.4417 4.58008C17.4974 4.52515 17.5398 4.46143 17.5692 4.39331C17.6102 4.29883 17.6248 4.19629 17.6145 4.09522C17.5999 3.96265 17.5428 3.83374 17.4417 3.73194L17.2308 3.51953Z" fill="#8C8C8C"/>
<path d="M4.78865 5.85009C5.02302 6.08447 5.40388 6.08447 5.63826 5.85009L5.8492 5.63769C5.96638 5.5205 6.02497 5.36669 6.02497 5.21289C6.02497 5.1228 6.00593 5.03271 5.96491 4.94995C5.93562 4.89209 5.89753 4.83789 5.8492 4.78955L4.57624 3.5166C4.34334 3.28223 3.96247 3.28223 3.7281 3.5166L3.5157 3.72827C3.47028 3.77368 3.43366 3.82421 3.40584 3.87842C3.36042 3.96851 3.33845 4.06738 3.33991 4.16626C3.34284 4.31567 3.40144 4.46362 3.5157 4.57715L4.78865 5.85009Z" fill="#8C8C8C"/>
<path d="M5.82324 14.936C5.58886 14.7017 5.20801 14.7017 4.97363 14.936L3.70215 16.2083C3.46777 16.4426 3.46777 16.8228 3.70215 17.0572L3.91455 17.2696C4.14892 17.5032 4.52832 17.5032 4.76269 17.2696L6.03418 15.9966C6.26855 15.7622 6.26855 15.3828 6.03418 15.1484L5.82324 14.936Z" fill="#8C8C8C"/>
<path d="M16.5439 17.4799C16.5966 17.4931 16.6523 17.4983 16.7065 17.4961C16.8134 17.4917 16.9203 17.4587 17.0141 17.3965C17.0463 17.3745 17.0771 17.3488 17.1064 17.3203L17.3173 17.1079C17.4301 16.9951 17.4887 16.8493 17.4931 16.7021C17.4975 16.5424 17.4389 16.3813 17.3173 16.2598L16.0444 14.9868C15.955 14.8975 15.8452 14.8425 15.7295 14.8213C15.542 14.7861 15.3413 14.8418 15.1962 14.9868L14.9838 15.1984C14.8608 15.3215 14.8022 15.4841 14.808 15.6453C14.8139 15.7918 14.8725 15.936 14.9838 16.0474L16.2568 17.3203C16.3388 17.4016 16.4384 17.455 16.5439 17.4799Z" fill="#8C8C8C"/>
<path d="M9.90383 17.4478C9.80858 17.5547 9.75 17.6954 9.75 17.8499V19.6502C9.75 19.9812 10.0181 20.25 10.3506 20.25H10.6494C10.8413 20.25 11.0112 20.1614 11.1211 20.023C11.2016 19.9204 11.25 19.7908 11.25 19.6502V17.8499C11.25 17.5188 10.9819 17.25 10.6494 17.25H10.3506C10.1734 17.25 10.0137 17.3262 9.90383 17.4478Z" fill="#8C8C8C"/>
</svg>
