<svg width="17" height="18" viewBox="0 0 17 18" fill="none" xmlns="http://www.w3.org/2000/svg">
<path d="M15.3196 6.99318V6.84734C15.3247 5.38802 14.8655 3.96551 14.0094 2.78885C13.1532 1.61219 11.9453 0.743424 10.5632 0.310223H10.5121C9.79826 0.0908039 9.05449 -0.0134299 8.30835 0.00138336C6.53157 0.0996908 4.85898 0.87793 3.63193 2.17727C2.40488 3.47661 1.71588 5.19909 1.70555 6.99318C1.20694 7.17003 0.775081 7.49856 0.469578 7.93344C0.164076 8.36832 0 8.88809 0 9.42101C0 9.95392 0.164076 10.4737 0.469578 10.9086C0.775081 11.3434 1.20694 11.672 1.70555 11.8488C1.8808 13.543 2.67463 15.1109 3.93269 16.2477C5.19076 17.3846 6.82317 18.0091 8.51256 17.9999H8.70826C10.3419 17.9202 11.8947 17.2594 13.091 16.1349C14.2873 15.0104 15.0498 13.4949 15.243 11.8574C15.7475 11.6906 16.1878 11.3693 16.5026 10.9383C16.8175 10.5073 16.9913 9.98803 16.9997 9.4528C17.0081 8.91757 16.8508 8.39301 16.5497 7.95215C16.2485 7.5113 15.8185 7.17608 15.3196 6.99318ZM8.66571 16.2841C7.43398 16.32 6.23093 15.9056 5.27855 15.1172C4.32617 14.3289 3.68874 13.2198 3.48388 11.9947H13.4987C13.291 13.1545 12.7005 14.2094 11.8232 14.9881C10.9458 15.7668 9.83306 16.2235 8.66571 16.2841ZM14.4687 10.2789H2.55642C2.33076 10.2789 2.11433 10.1885 1.95476 10.0276C1.79519 9.86674 1.70555 9.64853 1.70555 9.42101C1.70555 9.19348 1.79519 8.97527 1.95476 8.81439C2.11433 8.6535 2.33076 8.56312 2.55642 8.56312H4.25818C4.48384 8.56312 4.70027 8.47273 4.85984 8.31185C5.01941 8.15096 5.10905 7.93275 5.10905 7.70523C5.10905 7.4777 5.01941 7.25949 4.85984 7.09861C4.70027 6.93772 4.48384 6.84734 4.25818 6.84734H3.4073C3.44539 5.95738 3.69767 5.09012 4.14239 4.3204C4.5871 3.55068 5.21089 2.90162 5.95993 2.42921V5.13156C5.95993 5.35909 6.04957 5.57729 6.20914 5.73818C6.36871 5.89907 6.58514 5.98945 6.8108 5.98945C7.03647 5.98945 7.25289 5.89907 7.41246 5.73818C7.57203 5.57729 7.66168 5.35909 7.66168 5.13156V1.77721C7.89263 1.73831 8.12557 1.71253 8.3594 1.7H8.51256C8.79771 1.70405 9.08215 1.72986 9.36343 1.77721V5.13156C9.36343 5.35909 9.45308 5.57729 9.61265 5.73818C9.77222 5.89907 9.98864 5.98945 10.2143 5.98945C10.44 5.98945 10.6564 5.89907 10.816 5.73818C10.9755 5.57729 11.0652 5.35909 11.0652 5.13156V2.40347C11.4261 2.61419 11.7628 2.8645 12.0692 3.14984C12.5598 3.63017 12.9497 4.20497 13.2157 4.84013C13.4817 5.4753 13.6185 6.15787 13.6178 6.84734H12.7669C12.5413 6.84734 12.3248 6.93772 12.1653 7.09861C12.0057 7.25949 11.9161 7.4777 11.9161 7.70523C11.9161 7.93275 12.0057 8.15096 12.1653 8.31185C12.3248 8.47273 12.5413 8.56312 12.7669 8.56312H14.4687C14.6944 8.56312 14.9108 8.6535 15.0703 8.81439C15.2299 8.97527 15.3196 9.19348 15.3196 9.42101C15.3196 9.64853 15.2299 9.86674 15.0703 10.0276C14.9108 10.1885 14.6944 10.2789 14.4687 10.2789Z" fill="#A69888"/>
</svg>
