<svg width="21" height="21" viewBox="0 0 21 21" fill="none" xmlns="http://www.w3.org/2000/svg">
<path d="M10.4998 21C4.72263 21 0 16.2773 0 10.5C0 4.72271 4.72263 0 10.4998 0C16.277 0 20.9997 4.72271 20.9997 10.5C21.0455 16.2773 16.3229 21 10.4998 21ZM10.4998 1.10043C5.31869 1.10043 1.14627 5.31877 1.14627 10.4541C1.14627 15.5895 5.36454 19.8079 10.4998 19.8079C15.6351 19.8079 19.8534 15.5895 19.8534 10.4541C19.8534 5.31877 15.681 1.10043 10.4998 1.10043Z" fill="#747474"/>
<path d="M14.0865 16L10 12.1042V5H11.2981V11.6L15 15.1292L14.0865 16Z" fill="#747474"/>
</svg>
