<svg width="15" height="17" viewBox="0 0 15 17" fill="none" xmlns="http://www.w3.org/2000/svg">
<path d="M14.7436 12.0238L12.6089 10.8095L14.4642 10.0008C14.7226 9.88813 14.8416 9.58809 14.7284 9.3308C14.6175 9.08187 14.3058 8.95974 14.0529 9.06942L11.5033 10.1806L8.53042 8.48922L11.4891 6.79491L14.0675 7.90883C14.3293 8.02074 14.6323 7.89266 14.7404 7.64485C14.8526 7.38756 14.7335 7.08789 14.4751 6.97672L12.5918 6.16321L14.7374 4.9344C14.8558 4.86654 14.9405 4.75686 14.9757 4.62562C15.011 4.49437 14.9928 4.35754 14.9242 4.24005C14.7878 4.0073 14.461 3.91882 14.2245 4.05397L12.0934 5.27441L12.3216 3.27671C12.3374 3.14119 12.2988 3.0079 12.2131 2.90119C12.1279 2.79522 12.0062 2.72867 11.8715 2.71398C11.5848 2.68034 11.3337 2.88594 11.3043 3.16312L11.0148 5.90722L8.06215 7.61139V4.22741L10.2967 2.57065C10.4024 2.49369 10.4716 2.37992 10.4914 2.25016C10.512 2.11464 10.4757 1.97261 10.3921 1.86032C10.2289 1.64077 9.91708 1.59039 9.69334 1.7538L8.06215 2.96086V0.507885C8.06215 0.208582 7.76514 0 7.49849 0C7.23334 0 6.93783 0.208582 6.93783 0.507885V2.94599L5.33137 1.75361C5.11157 1.59169 4.79114 1.64077 4.62755 1.86014C4.54191 1.97465 4.505 2.11891 4.5258 2.25555C4.54529 2.38326 4.61349 2.49499 4.71637 2.56954L6.93783 4.2118V7.60971L4.02941 5.94292L3.71966 3.19696C3.68875 2.94078 3.47363 2.74763 3.21878 2.74763C3.19836 2.74763 3.17718 2.74875 3.15769 2.75135C2.88111 2.78277 2.68005 3.03467 2.70965 3.31519L2.94614 5.31327L0.764776 4.072C0.687573 4.02831 0.599876 4.00507 0.511243 4.00507C0.32798 4.00507 0.157833 4.10286 0.0671382 4.2605C-0.0720895 4.50125 0.0120468 4.81207 0.256398 4.9541L2.45162 6.20299L0.571581 7.02208C0.446032 7.07673 0.349529 7.17638 0.300246 7.3026C0.250589 7.42902 0.253774 7.56714 0.308679 7.69077C0.416613 7.93765 0.718492 8.06369 0.983081 7.95326L3.55739 6.8319L6.47592 8.49201L3.5512 10.1672L0.998821 9.06421C0.745288 8.95509 0.434602 9.0776 0.325169 9.32726C0.211988 9.58362 0.33079 9.88385 0.590132 9.99688L2.4475 10.7992L0.269703 12.0466C0.0266631 12.1879 -0.0569113 12.4993 0.0834408 12.7408C0.17451 12.8973 0.345032 12.9946 0.527546 12.9946C0.618428 12.9946 0.707248 12.9706 0.782765 12.9265L2.97518 11.6707L2.74263 13.6974C2.72764 13.8326 2.76643 13.9653 2.85225 14.0717C2.9377 14.1774 3.0595 14.2442 3.19067 14.2583C3.21072 14.2611 3.23227 14.2617 3.25364 14.2617C3.5141 14.2617 3.73259 14.068 3.76201 13.8095L4.05509 11.0381L6.93783 9.37486V12.7508L4.95829 14.3937C4.74691 14.5693 4.72293 14.89 4.90319 15.1062C4.99801 15.2228 5.14811 15.2923 5.30476 15.2923C5.44624 15.2923 5.54124 15.2321 5.61226 15.1761L6.93783 14.0732V16.4921C6.93783 16.7914 7.23334 17 7.49849 17C7.76514 17 8.06215 16.7914 8.06215 16.4921V14.0568L9.40814 15.1783C9.63225 15.3574 9.93544 15.315 10.1073 15.1084C10.1935 15.0056 10.239 14.8779 10.2353 14.7484C10.2313 14.6076 10.1699 14.4814 10.0631 14.3931L8.06215 12.7341V9.36686L11.0056 11.0541L11.3178 13.8259C11.3487 14.0815 11.5644 14.2743 11.8198 14.2743C11.844 14.2743 11.859 14.273 11.8754 14.2706C12.0104 14.2559 12.1314 14.1893 12.2163 14.0838C12.3021 13.977 12.3407 13.8434 12.3248 13.7075L12.087 11.6836L14.2343 12.9051C14.3113 12.9492 14.3993 12.9724 14.4889 12.9724C14.6724 12.9724 14.8425 12.8745 14.9326 12.7168C15.0723 12.4751 14.9879 12.1641 14.7436 12.0238Z" fill="white"/>
</svg>
