<svg width="16" height="18" viewBox="0 0 16 18" fill="none" xmlns="http://www.w3.org/2000/svg">
<path d="M15.2477 12.5539L13.1117 11.3291L14.9681 10.5135C15.2267 10.3999 15.3457 10.0973 15.2325 9.83776C15.1215 9.5867 14.8097 9.46351 14.5565 9.57413L12.0054 10.6948L9.03073 8.98895L11.9912 7.28007L14.5712 8.40357C14.8331 8.51645 15.1363 8.38726 15.2445 8.13732C15.3568 7.87782 15.2375 7.57557 14.979 7.46345L13.0946 6.64295L15.2415 5.40357C15.36 5.33513 15.4447 5.22451 15.48 5.09213C15.5152 4.95976 15.497 4.82176 15.4284 4.70326C15.2919 4.46851 14.9649 4.37926 14.7283 4.51557L12.5959 5.74651L12.8242 3.73163C12.84 3.59495 12.8014 3.46051 12.7157 3.35288C12.6304 3.24601 12.5087 3.17888 12.3739 3.16407C12.087 3.13013 11.8357 3.33751 11.8063 3.61707L11.5166 6.38476L8.56217 8.10357V4.69051L10.7981 3.01951C10.9039 2.94188 10.973 2.82713 10.9929 2.69626C11.0135 2.55957 10.9772 2.41632 10.8935 2.30307C10.7302 2.08163 10.4182 2.03082 10.1944 2.19563L8.56217 3.41307V0.939008C8.56217 0.637133 8.26498 0.426758 7.99817 0.426758C7.73286 0.426758 7.43717 0.637133 7.43717 0.939008V3.39807L5.82973 2.19545C5.6098 2.03213 5.28917 2.08163 5.12548 2.30288C5.0398 2.41838 5.00286 2.56388 5.02367 2.7017C5.04317 2.83051 5.11142 2.9432 5.21436 3.01838L7.43717 4.67476V8.10188L4.52698 6.42076L4.21705 3.6512C4.18611 3.39282 3.97086 3.19801 3.71586 3.19801C3.69542 3.19801 3.67423 3.19913 3.65473 3.20176C3.37798 3.23345 3.1768 3.48751 3.20642 3.77045L3.44305 5.7857L1.26036 4.53376C1.18311 4.4897 1.09536 4.46626 1.00667 4.46626C0.823296 4.46626 0.653046 4.56488 0.562296 4.72388C0.422984 4.9667 0.507171 5.2802 0.751671 5.42345L2.94823 6.68307L1.06705 7.5092C0.941421 7.56432 0.844859 7.66482 0.795546 7.79213C0.745859 7.91963 0.749046 8.05895 0.803984 8.18363C0.911984 8.43263 1.21405 8.55976 1.4788 8.44838L4.05467 7.31738L6.97498 8.99176L4.04848 10.6813L1.49455 9.56888C1.24086 9.45882 0.929984 9.58238 0.820484 9.8342C0.707234 10.0928 0.826109 10.3956 1.08561 10.5096L2.94411 11.3188L0.764984 12.5769C0.521797 12.7194 0.438171 13.0335 0.578609 13.2771C0.669734 13.4349 0.840359 13.533 1.02298 13.533C1.11392 13.533 1.2028 13.5088 1.27836 13.4644L3.47211 12.1978L3.23942 14.2419C3.22442 14.3783 3.26323 14.5121 3.34911 14.6194C3.43461 14.7261 3.55648 14.7934 3.68773 14.8076C3.7078 14.8104 3.72936 14.811 3.75073 14.811C4.01136 14.811 4.22998 14.6156 4.25942 14.355L4.55267 11.5598L7.43717 9.8822V13.2872L5.45642 14.9441C5.24492 15.1213 5.22092 15.4448 5.4013 15.6628C5.49617 15.7804 5.64636 15.8505 5.80311 15.8505C5.94467 15.8505 6.03973 15.7898 6.1108 15.7333L7.43717 14.6209V17.0606C7.43717 17.3625 7.73286 17.5729 7.99817 17.5729C8.26498 17.5729 8.56217 17.3625 8.56217 17.0606V14.6044L9.90898 15.7356C10.1332 15.9161 10.4366 15.8734 10.6085 15.6651C10.6948 15.5614 10.7404 15.4326 10.7366 15.3019C10.7327 15.1599 10.6712 15.0326 10.5643 14.9436L8.56217 13.2703V9.87413L11.5074 11.5759L11.8198 14.3715C11.8507 14.6293 12.0665 14.8238 12.3221 14.8238C12.3463 14.8238 12.3613 14.8224 12.3778 14.82C12.5128 14.8052 12.6339 14.7381 12.7189 14.6316C12.8047 14.5239 12.8434 14.3891 12.8274 14.2521L12.5895 12.2108L14.738 13.4428C14.8151 13.4873 14.9032 13.5107 14.9929 13.5107C15.1764 13.5107 15.3467 13.4119 15.4369 13.2529C15.5765 13.0091 15.4922 12.6954 15.2477 12.5539Z" fill="#D93C6C"/>
</svg>
