<svg width="20" height="19" viewBox="0 0 20 19" fill="none" xmlns="http://www.w3.org/2000/svg">
<path d="M13.2302 16.6234L4.73679 7.98975C4.68283 8.04662 4.6037 8.05799 4.53895 8.02008C4.49579 7.99733 4.44902 7.98596 4.40226 7.98217C4.3591 7.97838 4.30874 7.97838 4.26917 7.98217C3.03179 8.15656 1.76923 9.61989 1.5642 11.1969C1.5642 11.1969 -0.0760477 9.43413 2.23685 5.83267C2.2908 5.74927 2.28001 5.63933 2.21526 5.57109C2.15052 5.50285 2.15052 5.38912 2.21526 5.32088L4.00659 3.43296C4.07134 3.36472 4.17565 3.36472 4.2404 3.43296C4.36629 3.56565 4.57492 3.56565 4.70082 3.43296L5.07131 3.04249C5.19721 2.9098 5.19721 2.68992 5.07131 2.55724L4.95261 2.43214L6.10366 1.21901C6.37704 0.927106 6.82307 0.927106 7.10004 1.21901L8.63238 2.83398C8.90935 3.1221 8.90935 3.59218 8.63238 3.88409L7.48133 5.09721L7.33745 4.94557C7.24032 4.84322 7.08206 4.84322 6.98494 4.94557L6.50293 5.45357C6.40581 5.55593 6.40581 5.72273 6.50293 5.82509L15.6139 14.3017C16.1165 14.7604 16.1309 15.5343 15.6426 16.0071L14.9821 16.6514C14.4938 17.1276 13.7005 17.1136 13.2302 16.6234Z" stroke="#A69888" stroke-miterlimit="10" stroke-linecap="round" stroke-linejoin="round"/>
<path d="M18.9004 4.62328L16.7513 6.79338C16.586 6.96031 16.3361 7.01466 16.117 6.93313L14.9137 6.47893C14.7522 6.41681 14.6215 6.2887 14.5638 6.12565L14.114 4.91055C14.0333 4.68927 14.0871 4.43694 14.2524 4.27001L16.4015 2.09991C15.2712 1.82039 14.0294 2.12708 13.1529 3.02385C12.1879 4.0099 11.9342 5.44628 12.3878 6.66915L11 8.07059L13.0645 10L14.3716 8.68008C15.5903 9.14594 17.0204 8.88195 18.0008 7.89201C18.8773 7.00301 19.1772 5.75685 18.9004 4.62328Z" stroke="#A69888" stroke-miterlimit="10" stroke-linecap="round" stroke-linejoin="round"/>
<path d="M3.38994 15.7575C2.87002 16.2712 2.87002 17.101 3.38994 17.6147C3.90986 18.1284 4.74974 18.1284 5.26966 17.6147L9 13.9291L7.193 12L3.38994 15.7575Z" stroke="#A69888" stroke-miterlimit="10" stroke-linecap="round" stroke-linejoin="round"/>
</svg>
